<mxfile host="Electron" modified="2023-08-13T21:22:32.710Z" agent="Mozilla/5.0 (X11; Linux x86_64) AppleWebKit/537.36 (KHTML, like Gecko) draw.io/21.6.5 Chrome/114.0.5735.243 Electron/25.3.1 Safari/537.36" etag="0Z8SetNQZUV23qMTwEbf" version="21.6.5" type="device" pages="6">
  <diagram id="V8KSC0twbv40yx0gxAX3" name="Summary">
    <mxGraphModel dx="2000" dy="1363" grid="1" gridSize="10" guides="1" tooltips="1" connect="1" arrows="1" fold="1" page="1" pageScale="1" pageWidth="850" pageHeight="1100" math="0" shadow="0">
      <root>
        <mxCell id="0" />
        <mxCell id="1" parent="0" />
        <mxCell id="Z6NYbOm1Wq7mMOEdyu-5-1" value="&lt;div&gt;&lt;br&gt;&lt;/div&gt;&lt;div&gt;&lt;span style=&quot;white-space: pre;&quot;&gt;&#x9;&lt;/span&gt;Post sim:&lt;br&gt;&lt;/div&gt;&lt;ul&gt;&lt;li&gt;Test action flow&lt;/li&gt;&lt;li&gt;Sequence stream flows&lt;/li&gt;&lt;li&gt;Errors&lt;/li&gt;&lt;li&gt;Warnings&lt;/li&gt;&lt;li&gt;Register coverage&lt;/li&gt;&lt;li&gt;Log Details per phase&lt;br&gt;&lt;/li&gt;&lt;li&gt;Log Details per action&lt;/li&gt;&lt;li&gt;maps and charts&lt;/li&gt;&lt;/ul&gt;" style="text;html=1;strokeColor=none;fillColor=none;align=left;verticalAlign=top;whiteSpace=wrap;rounded=0;spacing=0;spacingLeft=0;spacingTop=-15;spacingRight=0;" vertex="1" parent="1">
          <mxGeometry x="230" y="300" width="310" height="190" as="geometry" />
        </mxCell>
        <mxCell id="Z6NYbOm1Wq7mMOEdyu-5-2" value="&lt;div&gt;&lt;br&gt;&lt;/div&gt;&lt;div&gt;&lt;span style=&quot;white-space: pre;&quot;&gt;&#x9;&lt;/span&gt;Pre sim:&lt;br&gt;&lt;/div&gt;&lt;ul&gt;&lt;li&gt;Test Gen&lt;/li&gt;&lt;li&gt;Test Doc&lt;/li&gt;&lt;li&gt;Test Action Diagram&lt;/li&gt;&lt;li&gt;Sequences used/available&lt;/li&gt;&lt;li&gt;Sequence Streams used/available&lt;/li&gt;&lt;li&gt;UVM test env diagram&lt;/li&gt;&lt;li&gt;Seq/test UML diagram&lt;/li&gt;&lt;/ul&gt;" style="text;html=1;strokeColor=none;fillColor=none;align=left;verticalAlign=top;whiteSpace=wrap;rounded=0;spacing=0;spacingLeft=0;spacingTop=-15;spacingRight=0;" vertex="1" parent="1">
          <mxGeometry x="220" y="80" width="310" height="190" as="geometry" />
        </mxCell>
      </root>
    </mxGraphModel>
  </diagram>
  <diagram name="Test Sequence (Pre and Post)" id="13nPXd0nO-WlUH4EevQd">
    <mxGraphModel dx="1143" dy="779" grid="1" gridSize="10" guides="1" tooltips="1" connect="1" arrows="1" fold="1" page="1" pageScale="1" pageWidth="850" pageHeight="1100" math="0" shadow="0">
      <root>
        <mxCell id="0" />
        <mxCell id="1" parent="0" />
        <mxCell id="Jj-B0lnNoFB-Ac3xVI1V-109" value="" style="group" vertex="1" connectable="0" parent="1">
          <mxGeometry x="220" y="250" width="320" height="160" as="geometry" />
        </mxCell>
        <mxCell id="feH9Zb2mQWT0yN_jinA1-24" value="Pre Sim Test Sequence" style="text;html=1;strokeColor=none;fillColor=none;align=center;verticalAlign=middle;whiteSpace=wrap;rounded=0;container=0;" vertex="1" parent="Jj-B0lnNoFB-Ac3xVI1V-109">
          <mxGeometry x="65" width="190" height="30" as="geometry" />
        </mxCell>
        <mxCell id="feH9Zb2mQWT0yN_jinA1-5" value="" style="rounded=0;whiteSpace=wrap;html=1;fillColor=#1ba1e2;fontColor=#ffffff;strokeColor=#006EAF;container=0;" vertex="1" parent="Jj-B0lnNoFB-Ac3xVI1V-109">
          <mxGeometry y="50" width="80" height="10" as="geometry" />
        </mxCell>
        <mxCell id="feH9Zb2mQWT0yN_jinA1-7" value="" style="rounded=0;whiteSpace=wrap;html=1;container=0;" vertex="1" parent="Jj-B0lnNoFB-Ac3xVI1V-109">
          <mxGeometry y="90" width="10" height="70" as="geometry" />
        </mxCell>
        <mxCell id="feH9Zb2mQWT0yN_jinA1-8" value="" style="rounded=0;whiteSpace=wrap;html=1;fillColor=#0050ef;fontColor=#ffffff;strokeColor=#001DBC;container=0;" vertex="1" parent="Jj-B0lnNoFB-Ac3xVI1V-109">
          <mxGeometry x="80" y="40" width="80" height="10" as="geometry" />
        </mxCell>
        <mxCell id="feH9Zb2mQWT0yN_jinA1-9" value="" style="rounded=0;whiteSpace=wrap;html=1;fillColor=#dae8fc;gradientColor=#7ea6e0;strokeColor=#6c8ebf;container=0;" vertex="1" parent="Jj-B0lnNoFB-Ac3xVI1V-109">
          <mxGeometry x="80" y="30" width="80" height="10" as="geometry" />
        </mxCell>
        <mxCell id="feH9Zb2mQWT0yN_jinA1-11" value="" style="rounded=0;whiteSpace=wrap;html=1;fillColor=#fff2cc;gradientColor=#ffd966;strokeColor=#d6b656;container=0;" vertex="1" parent="Jj-B0lnNoFB-Ac3xVI1V-109">
          <mxGeometry x="160" y="50" width="80" height="10" as="geometry" />
        </mxCell>
        <mxCell id="feH9Zb2mQWT0yN_jinA1-15" value="" style="rounded=0;whiteSpace=wrap;html=1;fillColor=#1ba1e2;fontColor=#ffffff;strokeColor=#006EAF;container=0;" vertex="1" parent="Jj-B0lnNoFB-Ac3xVI1V-109">
          <mxGeometry x="10" y="90" width="80" height="10" as="geometry" />
        </mxCell>
        <mxCell id="feH9Zb2mQWT0yN_jinA1-16" value="" style="rounded=0;whiteSpace=wrap;html=1;fillColor=#0050ef;fontColor=#ffffff;strokeColor=#001DBC;container=0;" vertex="1" parent="Jj-B0lnNoFB-Ac3xVI1V-109">
          <mxGeometry x="10" y="100" width="80" height="10" as="geometry" />
        </mxCell>
        <mxCell id="feH9Zb2mQWT0yN_jinA1-17" value="" style="rounded=0;whiteSpace=wrap;html=1;fillColor=#dae8fc;gradientColor=#7ea6e0;strokeColor=#6c8ebf;container=0;" vertex="1" parent="Jj-B0lnNoFB-Ac3xVI1V-109">
          <mxGeometry x="10" y="110" width="80" height="10" as="geometry" />
        </mxCell>
        <mxCell id="feH9Zb2mQWT0yN_jinA1-18" value="" style="rounded=0;whiteSpace=wrap;html=1;fillColor=#fff2cc;gradientColor=#ffd966;strokeColor=#d6b656;container=0;" vertex="1" parent="Jj-B0lnNoFB-Ac3xVI1V-109">
          <mxGeometry x="10" y="140" width="80" height="10" as="geometry" />
        </mxCell>
        <mxCell id="feH9Zb2mQWT0yN_jinA1-19" value="" style="rounded=0;whiteSpace=wrap;html=1;container=0;" vertex="1" parent="Jj-B0lnNoFB-Ac3xVI1V-109">
          <mxGeometry y="90" width="10" height="10" as="geometry" />
        </mxCell>
        <mxCell id="feH9Zb2mQWT0yN_jinA1-20" value="" style="rounded=0;whiteSpace=wrap;html=1;container=0;" vertex="1" parent="Jj-B0lnNoFB-Ac3xVI1V-109">
          <mxGeometry y="100" width="10" height="10" as="geometry" />
        </mxCell>
        <mxCell id="feH9Zb2mQWT0yN_jinA1-21" value="" style="rounded=0;whiteSpace=wrap;html=1;container=0;" vertex="1" parent="Jj-B0lnNoFB-Ac3xVI1V-109">
          <mxGeometry y="110" width="10" height="10" as="geometry" />
        </mxCell>
        <mxCell id="feH9Zb2mQWT0yN_jinA1-25" value="Sequence/Scenario Details" style="text;html=1;strokeColor=none;fillColor=none;align=center;verticalAlign=middle;whiteSpace=wrap;rounded=0;" vertex="1" parent="Jj-B0lnNoFB-Ac3xVI1V-109">
          <mxGeometry y="60" width="150" height="30" as="geometry" />
        </mxCell>
        <mxCell id="feH9Zb2mQWT0yN_jinA1-26" value="" style="rounded=0;whiteSpace=wrap;html=1;fillColor=#dae8fc;gradientColor=#7ea6e0;strokeColor=#6c8ebf;container=0;" vertex="1" parent="Jj-B0lnNoFB-Ac3xVI1V-109">
          <mxGeometry x="160" y="30" width="80" height="10" as="geometry" />
        </mxCell>
        <mxCell id="feH9Zb2mQWT0yN_jinA1-29" value="" style="rounded=0;whiteSpace=wrap;html=1;fillColor=#dae8fc;gradientColor=#7ea6e0;strokeColor=#6c8ebf;container=0;" vertex="1" parent="Jj-B0lnNoFB-Ac3xVI1V-109">
          <mxGeometry x="160" y="40" width="80" height="10" as="geometry" />
        </mxCell>
        <mxCell id="rcodMTzEOomvppw2aIt1-1" value="" style="rounded=0;whiteSpace=wrap;html=1;fillColor=#0050ef;fontColor=#ffffff;strokeColor=#001DBC;container=0;" vertex="1" parent="Jj-B0lnNoFB-Ac3xVI1V-109">
          <mxGeometry x="240" y="50" width="80" height="10" as="geometry" />
        </mxCell>
        <mxCell id="Jj-B0lnNoFB-Ac3xVI1V-54" value="" style="rounded=0;whiteSpace=wrap;html=1;container=0;" vertex="1" parent="Jj-B0lnNoFB-Ac3xVI1V-109">
          <mxGeometry y="120" width="10" height="10" as="geometry" />
        </mxCell>
        <mxCell id="Jj-B0lnNoFB-Ac3xVI1V-55" value="" style="rounded=0;whiteSpace=wrap;html=1;container=0;" vertex="1" parent="Jj-B0lnNoFB-Ac3xVI1V-109">
          <mxGeometry y="140" width="10" height="10" as="geometry" />
        </mxCell>
        <mxCell id="Jj-B0lnNoFB-Ac3xVI1V-56" value="" style="rounded=0;whiteSpace=wrap;html=1;container=0;" vertex="1" parent="Jj-B0lnNoFB-Ac3xVI1V-109">
          <mxGeometry y="150" width="10" height="10" as="geometry" />
        </mxCell>
        <mxCell id="Jj-B0lnNoFB-Ac3xVI1V-58" value="" style="rounded=0;whiteSpace=wrap;html=1;fillColor=#dae8fc;gradientColor=#7ea6e0;strokeColor=#6c8ebf;container=0;" vertex="1" parent="Jj-B0lnNoFB-Ac3xVI1V-109">
          <mxGeometry x="10" y="120" width="80" height="10" as="geometry" />
        </mxCell>
        <mxCell id="Jj-B0lnNoFB-Ac3xVI1V-59" value="" style="rounded=0;whiteSpace=wrap;html=1;fillColor=#dae8fc;gradientColor=#7ea6e0;strokeColor=#6c8ebf;container=0;" vertex="1" parent="Jj-B0lnNoFB-Ac3xVI1V-109">
          <mxGeometry x="10" y="130" width="80" height="10" as="geometry" />
        </mxCell>
        <mxCell id="Jj-B0lnNoFB-Ac3xVI1V-61" value="" style="rounded=0;whiteSpace=wrap;html=1;fillColor=#0050ef;fontColor=#ffffff;strokeColor=#001DBC;container=0;" vertex="1" parent="Jj-B0lnNoFB-Ac3xVI1V-109">
          <mxGeometry x="10" y="150" width="80" height="10" as="geometry" />
        </mxCell>
        <mxCell id="UfEG1egnHP0qr0g5YIs8-2" value="" style="group" vertex="1" connectable="0" parent="1">
          <mxGeometry x="220" y="410" width="340" height="230" as="geometry" />
        </mxCell>
        <mxCell id="rcodMTzEOomvppw2aIt1-10" value="" style="rounded=0;whiteSpace=wrap;html=1;fillColor=#fff2cc;gradientColor=#ffd966;strokeColor=#d6b656;container=0;" vertex="1" parent="UfEG1egnHP0qr0g5YIs8-2">
          <mxGeometry x="10" y="210" width="120" height="10" as="geometry" />
        </mxCell>
        <mxCell id="rcodMTzEOomvppw2aIt1-11" value="" style="rounded=0;whiteSpace=wrap;html=1;fillColor=#dae8fc;gradientColor=#7ea6e0;strokeColor=#6c8ebf;container=0;" vertex="1" parent="UfEG1egnHP0qr0g5YIs8-2">
          <mxGeometry x="10" y="180" width="60" height="10" as="geometry" />
        </mxCell>
        <mxCell id="Jj-B0lnNoFB-Ac3xVI1V-89" value="" style="rounded=0;whiteSpace=wrap;html=1;fillColor=#0050ef;fontColor=#ffffff;strokeColor=#001DBC;container=0;" vertex="1" parent="UfEG1egnHP0qr0g5YIs8-2">
          <mxGeometry x="10" y="220" width="80" height="10" as="geometry" />
        </mxCell>
        <mxCell id="Jj-B0lnNoFB-Ac3xVI1V-104" value="" style="rounded=0;whiteSpace=wrap;html=1;fillColor=#dae8fc;gradientColor=#7ea6e0;strokeColor=#6c8ebf;container=0;" vertex="1" parent="UfEG1egnHP0qr0g5YIs8-2">
          <mxGeometry x="10" y="190" width="60" height="10" as="geometry" />
        </mxCell>
        <mxCell id="Jj-B0lnNoFB-Ac3xVI1V-105" value="" style="rounded=0;whiteSpace=wrap;html=1;fillColor=#dae8fc;gradientColor=#7ea6e0;strokeColor=#6c8ebf;container=0;" vertex="1" parent="UfEG1egnHP0qr0g5YIs8-2">
          <mxGeometry x="10" y="200" width="60" height="10" as="geometry" />
        </mxCell>
        <mxCell id="Jj-B0lnNoFB-Ac3xVI1V-2" value="" style="rounded=0;whiteSpace=wrap;html=1;fillColor=#e51400;fontColor=#ffffff;strokeColor=#B20000;" vertex="1" parent="UfEG1egnHP0qr0g5YIs8-2">
          <mxGeometry x="50" y="80" width="30" height="10" as="geometry" />
        </mxCell>
        <mxCell id="feH9Zb2mQWT0yN_jinA1-2" value="Post Sim Test Sequence" style="text;html=1;strokeColor=none;fillColor=none;align=center;verticalAlign=middle;whiteSpace=wrap;rounded=0;container=0;" vertex="1" parent="UfEG1egnHP0qr0g5YIs8-2">
          <mxGeometry x="70" width="190" height="30" as="geometry" />
        </mxCell>
        <mxCell id="AtjahFSV2H0K1G36zVv8-3" value="0&lt;span style=&quot;white-space: pre;&quot;&gt;&#x9;&lt;/span&gt;5&lt;span style=&quot;white-space: pre;&quot;&gt;&#x9;&lt;/span&gt;10&lt;span style=&quot;white-space: pre;&quot;&gt;&#x9;&lt;/span&gt;15&lt;span style=&quot;white-space: pre;&quot;&gt;&#x9;&lt;/span&gt;20&lt;span style=&quot;white-space: pre;&quot;&gt;&#x9;&lt;/span&gt;25&lt;span style=&quot;white-space: pre;&quot;&gt;&#x9;&lt;/span&gt;30&lt;span style=&quot;white-space: pre;&quot;&gt;&#x9;&lt;/span&gt;35&lt;span style=&quot;white-space: pre;&quot;&gt;&#x9;&lt;/span&gt;40&lt;span style=&quot;white-space: pre;&quot;&gt;&#x9;&lt;/span&gt;50&lt;span style=&quot;white-space: pre;&quot;&gt;&#x9;&lt;/span&gt;60&lt;span style=&quot;white-space: pre;&quot;&gt;&#x9;&lt;/span&gt;70&lt;span style=&quot;white-space: pre;&quot;&gt;&#x9;&lt;/span&gt;80" style="rounded=0;whiteSpace=wrap;html=1;align=left;container=0;" parent="UfEG1egnHP0qr0g5YIs8-2" vertex="1">
          <mxGeometry y="100" width="340" height="10" as="geometry" />
        </mxCell>
        <mxCell id="rcodMTzEOomvppw2aIt1-3" value="" style="rounded=0;whiteSpace=wrap;html=1;fillColor=#1ba1e2;fontColor=#ffffff;strokeColor=#006EAF;container=0;" vertex="1" parent="UfEG1egnHP0qr0g5YIs8-2">
          <mxGeometry y="80" width="80" height="10" as="geometry" />
        </mxCell>
        <mxCell id="rcodMTzEOomvppw2aIt1-4" value="" style="rounded=0;whiteSpace=wrap;html=1;fillColor=#0050ef;fontColor=#ffffff;strokeColor=#001DBC;container=0;" vertex="1" parent="UfEG1egnHP0qr0g5YIs8-2">
          <mxGeometry x="80" y="70" width="80" height="10" as="geometry" />
        </mxCell>
        <mxCell id="rcodMTzEOomvppw2aIt1-5" value="" style="rounded=0;whiteSpace=wrap;html=1;fillColor=#dae8fc;gradientColor=#7ea6e0;strokeColor=#6c8ebf;container=0;" vertex="1" parent="UfEG1egnHP0qr0g5YIs8-2">
          <mxGeometry x="80" y="60" width="60" height="10" as="geometry" />
        </mxCell>
        <mxCell id="rcodMTzEOomvppw2aIt1-6" value="" style="rounded=0;whiteSpace=wrap;html=1;fillColor=#fff2cc;gradientColor=#ffd966;strokeColor=#d6b656;container=0;" vertex="1" parent="UfEG1egnHP0qr0g5YIs8-2">
          <mxGeometry x="140" y="50" width="120" height="10" as="geometry" />
        </mxCell>
        <mxCell id="rcodMTzEOomvppw2aIt1-7" value="" style="rounded=0;whiteSpace=wrap;html=1;fillColor=#dae8fc;gradientColor=#7ea6e0;strokeColor=#6c8ebf;container=0;" vertex="1" parent="UfEG1egnHP0qr0g5YIs8-2">
          <mxGeometry x="140" y="40" width="60" height="10" as="geometry" />
        </mxCell>
        <mxCell id="rcodMTzEOomvppw2aIt1-8" value="" style="rounded=0;whiteSpace=wrap;html=1;fillColor=#dae8fc;gradientColor=#7ea6e0;strokeColor=#6c8ebf;container=0;" vertex="1" parent="UfEG1egnHP0qr0g5YIs8-2">
          <mxGeometry x="140" y="30" width="60" height="10" as="geometry" />
        </mxCell>
        <mxCell id="rcodMTzEOomvppw2aIt1-9" value="" style="rounded=0;whiteSpace=wrap;html=1;fillColor=#0050ef;fontColor=#ffffff;strokeColor=#001DBC;container=0;" vertex="1" parent="UfEG1egnHP0qr0g5YIs8-2">
          <mxGeometry x="260" y="80" width="80" height="10" as="geometry" />
        </mxCell>
        <mxCell id="rcodMTzEOomvppw2aIt1-14" value="Sequence/Scenario Details" style="text;html=1;strokeColor=none;fillColor=none;align=center;verticalAlign=middle;whiteSpace=wrap;rounded=0;" vertex="1" parent="UfEG1egnHP0qr0g5YIs8-2">
          <mxGeometry y="130" width="150" height="30" as="geometry" />
        </mxCell>
        <mxCell id="Jj-B0lnNoFB-Ac3xVI1V-51" value="" style="rounded=0;whiteSpace=wrap;html=1;fillColor=#e51400;fontColor=#ffffff;strokeColor=#B20000;" vertex="1" parent="UfEG1egnHP0qr0g5YIs8-2">
          <mxGeometry x="50" y="80" width="30" height="10" as="geometry" />
        </mxCell>
        <mxCell id="Jj-B0lnNoFB-Ac3xVI1V-52" value="" style="rounded=0;whiteSpace=wrap;html=1;fillColor=#e51400;fontColor=#ffffff;strokeColor=#B20000;" vertex="1" parent="UfEG1egnHP0qr0g5YIs8-2">
          <mxGeometry x="140" y="50" width="10" height="10" as="geometry" />
        </mxCell>
        <mxCell id="Jj-B0lnNoFB-Ac3xVI1V-53" value="" style="rounded=0;whiteSpace=wrap;html=1;fillColor=#e51400;fontColor=#ffffff;strokeColor=#B20000;" vertex="1" parent="UfEG1egnHP0qr0g5YIs8-2">
          <mxGeometry x="295" y="80" width="10" height="10" as="geometry" />
        </mxCell>
        <mxCell id="Jj-B0lnNoFB-Ac3xVI1V-76" value="" style="rounded=0;whiteSpace=wrap;html=1;container=0;" vertex="1" parent="UfEG1egnHP0qr0g5YIs8-2">
          <mxGeometry y="160" width="10" height="70" as="geometry" />
        </mxCell>
        <mxCell id="Jj-B0lnNoFB-Ac3xVI1V-77" value="" style="rounded=0;whiteSpace=wrap;html=1;fillColor=#1ba1e2;fontColor=#ffffff;strokeColor=#006EAF;container=0;" vertex="1" parent="UfEG1egnHP0qr0g5YIs8-2">
          <mxGeometry x="10" y="160" width="80" height="10" as="geometry" />
        </mxCell>
        <mxCell id="Jj-B0lnNoFB-Ac3xVI1V-78" value="" style="rounded=0;whiteSpace=wrap;html=1;fillColor=#0050ef;fontColor=#ffffff;strokeColor=#001DBC;container=0;" vertex="1" parent="UfEG1egnHP0qr0g5YIs8-2">
          <mxGeometry x="10" y="170" width="80" height="10" as="geometry" />
        </mxCell>
        <mxCell id="Jj-B0lnNoFB-Ac3xVI1V-81" value="" style="rounded=0;whiteSpace=wrap;html=1;container=0;" vertex="1" parent="UfEG1egnHP0qr0g5YIs8-2">
          <mxGeometry y="160" width="10" height="10" as="geometry" />
        </mxCell>
        <mxCell id="Jj-B0lnNoFB-Ac3xVI1V-82" value="" style="rounded=0;whiteSpace=wrap;html=1;container=0;" vertex="1" parent="UfEG1egnHP0qr0g5YIs8-2">
          <mxGeometry y="170" width="10" height="10" as="geometry" />
        </mxCell>
        <mxCell id="Jj-B0lnNoFB-Ac3xVI1V-83" value="" style="rounded=0;whiteSpace=wrap;html=1;container=0;" vertex="1" parent="UfEG1egnHP0qr0g5YIs8-2">
          <mxGeometry y="180" width="10" height="10" as="geometry" />
        </mxCell>
        <mxCell id="Jj-B0lnNoFB-Ac3xVI1V-84" value="" style="rounded=0;whiteSpace=wrap;html=1;container=0;" vertex="1" parent="UfEG1egnHP0qr0g5YIs8-2">
          <mxGeometry y="190" width="10" height="10" as="geometry" />
        </mxCell>
        <mxCell id="Jj-B0lnNoFB-Ac3xVI1V-85" value="" style="rounded=0;whiteSpace=wrap;html=1;container=0;" vertex="1" parent="UfEG1egnHP0qr0g5YIs8-2">
          <mxGeometry y="210" width="10" height="10" as="geometry" />
        </mxCell>
        <mxCell id="Jj-B0lnNoFB-Ac3xVI1V-86" value="" style="rounded=0;whiteSpace=wrap;html=1;container=0;" vertex="1" parent="UfEG1egnHP0qr0g5YIs8-2">
          <mxGeometry y="220" width="10" height="10" as="geometry" />
        </mxCell>
        <mxCell id="Jj-B0lnNoFB-Ac3xVI1V-106" value="" style="rounded=0;whiteSpace=wrap;html=1;fillColor=#e51400;fontColor=#ffffff;strokeColor=#B20000;" vertex="1" parent="UfEG1egnHP0qr0g5YIs8-2">
          <mxGeometry y="220" width="10" height="10" as="geometry" />
        </mxCell>
        <mxCell id="Jj-B0lnNoFB-Ac3xVI1V-107" value="" style="rounded=0;whiteSpace=wrap;html=1;fillColor=#e51400;fontColor=#ffffff;strokeColor=#B20000;" vertex="1" parent="UfEG1egnHP0qr0g5YIs8-2">
          <mxGeometry y="160" width="10" height="10" as="geometry" />
        </mxCell>
        <mxCell id="Jj-B0lnNoFB-Ac3xVI1V-108" value="" style="rounded=0;whiteSpace=wrap;html=1;fillColor=#e51400;fontColor=#ffffff;strokeColor=#B20000;" vertex="1" parent="UfEG1egnHP0qr0g5YIs8-2">
          <mxGeometry y="210" width="10" height="10" as="geometry" />
        </mxCell>
      </root>
    </mxGraphModel>
  </diagram>
  <diagram id="jEOaGpwrKEVhfbmr0akZ" name="Heat Maps">
    <mxGraphModel dx="952" dy="649" grid="1" gridSize="1" guides="1" tooltips="1" connect="1" arrows="1" fold="1" page="1" pageScale="1" pageWidth="850" pageHeight="1100" math="0" shadow="0">
      <root>
        <mxCell id="0" />
        <mxCell id="1" parent="0" />
        <mxCell id="ocNy2B_SOmaEHGy6fEzw-425" value="" style="group" vertex="1" connectable="0" parent="1">
          <mxGeometry x="40" y="619" width="484" height="166" as="geometry" />
        </mxCell>
        <mxCell id="P25sO5ouKIv7XjAWjB1X-95" value="Test %" style="rounded=0;whiteSpace=wrap;html=1;" vertex="1" parent="ocNy2B_SOmaEHGy6fEzw-425">
          <mxGeometry x="79" y="20" width="401.25" height="20" as="geometry" />
        </mxCell>
        <mxCell id="P25sO5ouKIv7XjAWjB1X-96" value="module" style="rounded=0;whiteSpace=wrap;html=1;" vertex="1" parent="ocNy2B_SOmaEHGy6fEzw-425">
          <mxGeometry y="20" width="79" height="40" as="geometry" />
        </mxCell>
        <mxCell id="P25sO5ouKIv7XjAWjB1X-97" value="&lt;div style=&quot;text-align: justify;&quot;&gt;&lt;span style=&quot;background-color: initial;&quot;&gt;Top Ports&lt;/span&gt;&lt;/div&gt;" style="rounded=0;whiteSpace=wrap;html=1;align=center;rotation=-90;" vertex="1" parent="ocNy2B_SOmaEHGy6fEzw-425">
          <mxGeometry x="-41" y="102" width="104.19" height="22" as="geometry" />
        </mxCell>
        <mxCell id="P25sO5ouKIv7XjAWjB1X-98" value="/top/DUT Heat Map Snapshot" style="rounded=0;whiteSpace=wrap;html=1;" vertex="1" parent="ocNy2B_SOmaEHGy6fEzw-425">
          <mxGeometry width="481" height="20" as="geometry" />
        </mxCell>
        <mxCell id="P25sO5ouKIv7XjAWjB1X-100" value="5" style="rounded=0;whiteSpace=wrap;html=1;" vertex="1" parent="ocNy2B_SOmaEHGy6fEzw-425">
          <mxGeometry x="79" y="40" width="20" height="20" as="geometry" />
        </mxCell>
        <mxCell id="ocNy2B_SOmaEHGy6fEzw-101" value="10" style="rounded=0;whiteSpace=wrap;html=1;" vertex="1" parent="ocNy2B_SOmaEHGy6fEzw-425">
          <mxGeometry x="99" y="40" width="20" height="20" as="geometry" />
        </mxCell>
        <mxCell id="ocNy2B_SOmaEHGy6fEzw-102" value="15" style="rounded=0;whiteSpace=wrap;html=1;" vertex="1" parent="ocNy2B_SOmaEHGy6fEzw-425">
          <mxGeometry x="119" y="40" width="20" height="20" as="geometry" />
        </mxCell>
        <mxCell id="ocNy2B_SOmaEHGy6fEzw-103" value="20" style="rounded=0;whiteSpace=wrap;html=1;" vertex="1" parent="ocNy2B_SOmaEHGy6fEzw-425">
          <mxGeometry x="139" y="40" width="20" height="20" as="geometry" />
        </mxCell>
        <mxCell id="ocNy2B_SOmaEHGy6fEzw-104" value="25" style="rounded=0;whiteSpace=wrap;html=1;" vertex="1" parent="ocNy2B_SOmaEHGy6fEzw-425">
          <mxGeometry x="159" y="40" width="20" height="20" as="geometry" />
        </mxCell>
        <mxCell id="ocNy2B_SOmaEHGy6fEzw-105" value="30" style="rounded=0;whiteSpace=wrap;html=1;" vertex="1" parent="ocNy2B_SOmaEHGy6fEzw-425">
          <mxGeometry x="180.25" y="40" width="20" height="20" as="geometry" />
        </mxCell>
        <mxCell id="ocNy2B_SOmaEHGy6fEzw-106" value="35" style="rounded=0;whiteSpace=wrap;html=1;" vertex="1" parent="ocNy2B_SOmaEHGy6fEzw-425">
          <mxGeometry x="200.25" y="40" width="20" height="20" as="geometry" />
        </mxCell>
        <mxCell id="ocNy2B_SOmaEHGy6fEzw-107" value="40" style="rounded=0;whiteSpace=wrap;html=1;" vertex="1" parent="ocNy2B_SOmaEHGy6fEzw-425">
          <mxGeometry x="220.25" y="40" width="20" height="20" as="geometry" />
        </mxCell>
        <mxCell id="ocNy2B_SOmaEHGy6fEzw-108" value="50" style="rounded=0;whiteSpace=wrap;html=1;" vertex="1" parent="ocNy2B_SOmaEHGy6fEzw-425">
          <mxGeometry x="280.25" y="40" width="20" height="20" as="geometry" />
        </mxCell>
        <mxCell id="ocNy2B_SOmaEHGy6fEzw-109" value="55" style="rounded=0;whiteSpace=wrap;html=1;" vertex="1" parent="ocNy2B_SOmaEHGy6fEzw-425">
          <mxGeometry x="300.25" y="40" width="20" height="20" as="geometry" />
        </mxCell>
        <mxCell id="ocNy2B_SOmaEHGy6fEzw-110" value="60" style="rounded=0;whiteSpace=wrap;html=1;" vertex="1" parent="ocNy2B_SOmaEHGy6fEzw-425">
          <mxGeometry x="320.25" y="40" width="20" height="20" as="geometry" />
        </mxCell>
        <mxCell id="ocNy2B_SOmaEHGy6fEzw-111" value="65" style="rounded=0;whiteSpace=wrap;html=1;" vertex="1" parent="ocNy2B_SOmaEHGy6fEzw-425">
          <mxGeometry x="340.25" y="40" width="20" height="20" as="geometry" />
        </mxCell>
        <mxCell id="ocNy2B_SOmaEHGy6fEzw-112" value="70" style="rounded=0;whiteSpace=wrap;html=1;" vertex="1" parent="ocNy2B_SOmaEHGy6fEzw-425">
          <mxGeometry x="360.25" y="40" width="20" height="20" as="geometry" />
        </mxCell>
        <mxCell id="ocNy2B_SOmaEHGy6fEzw-113" value="75" style="rounded=0;whiteSpace=wrap;html=1;" vertex="1" parent="ocNy2B_SOmaEHGy6fEzw-425">
          <mxGeometry x="380.25" y="40" width="20" height="20" as="geometry" />
        </mxCell>
        <mxCell id="ocNy2B_SOmaEHGy6fEzw-114" value="80" style="rounded=0;whiteSpace=wrap;html=1;" vertex="1" parent="ocNy2B_SOmaEHGy6fEzw-425">
          <mxGeometry x="400.25" y="40" width="20" height="20" as="geometry" />
        </mxCell>
        <mxCell id="ocNy2B_SOmaEHGy6fEzw-115" value="85" style="rounded=0;whiteSpace=wrap;html=1;" vertex="1" parent="ocNy2B_SOmaEHGy6fEzw-425">
          <mxGeometry x="420.25" y="40" width="20" height="20" as="geometry" />
        </mxCell>
        <mxCell id="ocNy2B_SOmaEHGy6fEzw-116" value="90" style="rounded=0;whiteSpace=wrap;html=1;" vertex="1" parent="ocNy2B_SOmaEHGy6fEzw-425">
          <mxGeometry x="440.25" y="40" width="20" height="20" as="geometry" />
        </mxCell>
        <mxCell id="ocNy2B_SOmaEHGy6fEzw-117" value="100" style="rounded=0;whiteSpace=wrap;html=1;" vertex="1" parent="ocNy2B_SOmaEHGy6fEzw-425">
          <mxGeometry x="460.25" y="40" width="20" height="20" as="geometry" />
        </mxCell>
        <mxCell id="ocNy2B_SOmaEHGy6fEzw-120" value="50" style="rounded=0;whiteSpace=wrap;html=1;" vertex="1" parent="ocNy2B_SOmaEHGy6fEzw-425">
          <mxGeometry x="260.25" y="40" width="20" height="20" as="geometry" />
        </mxCell>
        <mxCell id="ocNy2B_SOmaEHGy6fEzw-121" value="55" style="rounded=0;whiteSpace=wrap;html=1;" vertex="1" parent="ocNy2B_SOmaEHGy6fEzw-425">
          <mxGeometry x="280.25" y="40" width="20" height="20" as="geometry" />
        </mxCell>
        <mxCell id="ocNy2B_SOmaEHGy6fEzw-122" value="60" style="rounded=0;whiteSpace=wrap;html=1;" vertex="1" parent="ocNy2B_SOmaEHGy6fEzw-425">
          <mxGeometry x="300.25" y="40" width="20" height="20" as="geometry" />
        </mxCell>
        <mxCell id="ocNy2B_SOmaEHGy6fEzw-123" value="65" style="rounded=0;whiteSpace=wrap;html=1;" vertex="1" parent="ocNy2B_SOmaEHGy6fEzw-425">
          <mxGeometry x="320.25" y="40" width="20" height="20" as="geometry" />
        </mxCell>
        <mxCell id="ocNy2B_SOmaEHGy6fEzw-124" value="70" style="rounded=0;whiteSpace=wrap;html=1;" vertex="1" parent="ocNy2B_SOmaEHGy6fEzw-425">
          <mxGeometry x="340.25" y="40" width="20" height="20" as="geometry" />
        </mxCell>
        <mxCell id="ocNy2B_SOmaEHGy6fEzw-125" value="75" style="rounded=0;whiteSpace=wrap;html=1;" vertex="1" parent="ocNy2B_SOmaEHGy6fEzw-425">
          <mxGeometry x="360.25" y="40" width="20" height="20" as="geometry" />
        </mxCell>
        <mxCell id="ocNy2B_SOmaEHGy6fEzw-126" value="80" style="rounded=0;whiteSpace=wrap;html=1;" vertex="1" parent="ocNy2B_SOmaEHGy6fEzw-425">
          <mxGeometry x="380.25" y="40" width="20" height="20" as="geometry" />
        </mxCell>
        <mxCell id="ocNy2B_SOmaEHGy6fEzw-127" value="85" style="rounded=0;whiteSpace=wrap;html=1;" vertex="1" parent="ocNy2B_SOmaEHGy6fEzw-425">
          <mxGeometry x="400.25" y="40" width="20" height="20" as="geometry" />
        </mxCell>
        <mxCell id="ocNy2B_SOmaEHGy6fEzw-128" value="90" style="rounded=0;whiteSpace=wrap;html=1;" vertex="1" parent="ocNy2B_SOmaEHGy6fEzw-425">
          <mxGeometry x="420.25" y="40" width="20" height="20" as="geometry" />
        </mxCell>
        <mxCell id="ocNy2B_SOmaEHGy6fEzw-129" value="95" style="rounded=0;whiteSpace=wrap;html=1;" vertex="1" parent="ocNy2B_SOmaEHGy6fEzw-425">
          <mxGeometry x="440.25" y="40" width="20" height="20" as="geometry" />
        </mxCell>
        <mxCell id="ocNy2B_SOmaEHGy6fEzw-130" value="45" style="rounded=0;whiteSpace=wrap;html=1;" vertex="1" parent="ocNy2B_SOmaEHGy6fEzw-425">
          <mxGeometry x="240.25" y="40" width="20" height="20" as="geometry" />
        </mxCell>
        <mxCell id="ocNy2B_SOmaEHGy6fEzw-131" value="clk_i" style="rounded=0;whiteSpace=wrap;html=1;" vertex="1" parent="ocNy2B_SOmaEHGy6fEzw-425">
          <mxGeometry x="22" y="60" width="57" height="21" as="geometry" />
        </mxCell>
        <mxCell id="ocNy2B_SOmaEHGy6fEzw-133" value="rst_n_i" style="rounded=0;whiteSpace=wrap;html=1;" vertex="1" parent="ocNy2B_SOmaEHGy6fEzw-425">
          <mxGeometry x="23" y="81" width="56" height="19" as="geometry" />
        </mxCell>
        <mxCell id="ocNy2B_SOmaEHGy6fEzw-136" value="input_1_i" style="rounded=0;whiteSpace=wrap;html=1;" vertex="1" parent="ocNy2B_SOmaEHGy6fEzw-425">
          <mxGeometry x="22" y="101" width="57" height="23" as="geometry" />
        </mxCell>
        <mxCell id="ocNy2B_SOmaEHGy6fEzw-137" value="input_2_i" style="rounded=0;whiteSpace=wrap;html=1;" vertex="1" parent="ocNy2B_SOmaEHGy6fEzw-425">
          <mxGeometry x="22" y="125" width="57" height="20" as="geometry" />
        </mxCell>
        <mxCell id="ocNy2B_SOmaEHGy6fEzw-138" value="input_3_i" style="rounded=0;whiteSpace=wrap;html=1;" vertex="1" parent="ocNy2B_SOmaEHGy6fEzw-425">
          <mxGeometry x="22" y="146" width="57" height="19" as="geometry" />
        </mxCell>
        <mxCell id="ocNy2B_SOmaEHGy6fEzw-139" value="" style="rounded=0;whiteSpace=wrap;html=1;fillColor=#e3c800;fontColor=#000000;strokeColor=none;" vertex="1" parent="ocNy2B_SOmaEHGy6fEzw-425">
          <mxGeometry x="79" y="60" width="20" height="20" as="geometry" />
        </mxCell>
        <mxCell id="ocNy2B_SOmaEHGy6fEzw-140" value="" style="rounded=0;whiteSpace=wrap;html=1;fillColor=#CCCC00;fontColor=#000000;strokeColor=none;" vertex="1" parent="ocNy2B_SOmaEHGy6fEzw-425">
          <mxGeometry x="99" y="60" width="20" height="20" as="geometry" />
        </mxCell>
        <mxCell id="ocNy2B_SOmaEHGy6fEzw-141" value="" style="rounded=0;whiteSpace=wrap;html=1;fillColor=#e3c800;fontColor=#000000;strokeColor=none;" vertex="1" parent="ocNy2B_SOmaEHGy6fEzw-425">
          <mxGeometry x="119" y="60" width="20" height="20" as="geometry" />
        </mxCell>
        <mxCell id="ocNy2B_SOmaEHGy6fEzw-142" value="" style="rounded=0;whiteSpace=wrap;html=1;fillColor=#FF8000;fontColor=#000000;strokeColor=none;" vertex="1" parent="ocNy2B_SOmaEHGy6fEzw-425">
          <mxGeometry x="139" y="60" width="20" height="20" as="geometry" />
        </mxCell>
        <mxCell id="ocNy2B_SOmaEHGy6fEzw-143" value="" style="rounded=0;whiteSpace=wrap;html=1;fillColor=#fa6800;fontColor=#000000;strokeColor=none;" vertex="1" parent="ocNy2B_SOmaEHGy6fEzw-425">
          <mxGeometry x="159" y="60" width="20" height="20" as="geometry" />
        </mxCell>
        <mxCell id="ocNy2B_SOmaEHGy6fEzw-159" value="" style="rounded=0;whiteSpace=wrap;html=1;fillColor=#331A00;fontColor=#000000;strokeColor=none;" vertex="1" parent="ocNy2B_SOmaEHGy6fEzw-425">
          <mxGeometry x="179" y="60" width="20" height="20" as="geometry" />
        </mxCell>
        <mxCell id="ocNy2B_SOmaEHGy6fEzw-160" value="" style="rounded=0;whiteSpace=wrap;html=1;fillColor=#FF9999;fontColor=#000000;strokeColor=none;" vertex="1" parent="ocNy2B_SOmaEHGy6fEzw-425">
          <mxGeometry x="199" y="60" width="20" height="20" as="geometry" />
        </mxCell>
        <mxCell id="ocNy2B_SOmaEHGy6fEzw-161" value="" style="rounded=0;whiteSpace=wrap;html=1;fillColor=#FF6666;fontColor=#000000;strokeColor=none;" vertex="1" parent="ocNy2B_SOmaEHGy6fEzw-425">
          <mxGeometry x="219" y="60" width="20" height="20" as="geometry" />
        </mxCell>
        <mxCell id="ocNy2B_SOmaEHGy6fEzw-162" value="" style="rounded=0;whiteSpace=wrap;html=1;fillColor=#e51400;fontColor=#ffffff;strokeColor=none;" vertex="1" parent="ocNy2B_SOmaEHGy6fEzw-425">
          <mxGeometry x="239" y="60" width="20" height="20" as="geometry" />
        </mxCell>
        <mxCell id="ocNy2B_SOmaEHGy6fEzw-163" value="" style="rounded=0;whiteSpace=wrap;html=1;fillColor=#FF6666;fontColor=#000000;strokeColor=none;" vertex="1" parent="ocNy2B_SOmaEHGy6fEzw-425">
          <mxGeometry x="258" y="60" width="20" height="20" as="geometry" />
        </mxCell>
        <mxCell id="ocNy2B_SOmaEHGy6fEzw-164" value="" style="rounded=0;whiteSpace=wrap;html=1;fillColor=#FF9999;fontColor=#000000;strokeColor=none;" vertex="1" parent="ocNy2B_SOmaEHGy6fEzw-425">
          <mxGeometry x="278" y="60" width="20" height="20" as="geometry" />
        </mxCell>
        <mxCell id="ocNy2B_SOmaEHGy6fEzw-165" value="" style="rounded=0;whiteSpace=wrap;html=1;fillColor=#e3c800;fontColor=#000000;strokeColor=none;" vertex="1" parent="ocNy2B_SOmaEHGy6fEzw-425">
          <mxGeometry x="298" y="60" width="20" height="20" as="geometry" />
        </mxCell>
        <mxCell id="ocNy2B_SOmaEHGy6fEzw-166" value="" style="rounded=0;whiteSpace=wrap;html=1;fillColor=#FFFFFF;fontColor=#ffffff;strokeColor=none;" vertex="1" parent="ocNy2B_SOmaEHGy6fEzw-425">
          <mxGeometry x="318" y="60" width="20" height="20" as="geometry" />
        </mxCell>
        <mxCell id="ocNy2B_SOmaEHGy6fEzw-167" value="" style="rounded=0;whiteSpace=wrap;html=1;fillColor=#FFFFFF;fontColor=#ffffff;strokeColor=none;" vertex="1" parent="ocNy2B_SOmaEHGy6fEzw-425">
          <mxGeometry x="338" y="60" width="20" height="20" as="geometry" />
        </mxCell>
        <mxCell id="ocNy2B_SOmaEHGy6fEzw-168" value="" style="rounded=0;whiteSpace=wrap;html=1;fillColor=#FFFFFF;fontColor=#ffffff;strokeColor=none;" vertex="1" parent="ocNy2B_SOmaEHGy6fEzw-425">
          <mxGeometry x="358" y="60" width="20" height="20" as="geometry" />
        </mxCell>
        <mxCell id="ocNy2B_SOmaEHGy6fEzw-169" value="" style="rounded=0;whiteSpace=wrap;html=1;fillColor=#FFFFFF;fontColor=#ffffff;strokeColor=none;" vertex="1" parent="ocNy2B_SOmaEHGy6fEzw-425">
          <mxGeometry x="378" y="60" width="20" height="20" as="geometry" />
        </mxCell>
        <mxCell id="ocNy2B_SOmaEHGy6fEzw-170" value="" style="rounded=0;whiteSpace=wrap;html=1;fillColor=#FFFFFF;fontColor=#ffffff;strokeColor=none;" vertex="1" parent="ocNy2B_SOmaEHGy6fEzw-425">
          <mxGeometry x="398" y="60" width="20" height="20" as="geometry" />
        </mxCell>
        <mxCell id="ocNy2B_SOmaEHGy6fEzw-171" value="" style="rounded=0;whiteSpace=wrap;html=1;fillColor=#FFFFFF;fontColor=#ffffff;strokeColor=none;" vertex="1" parent="ocNy2B_SOmaEHGy6fEzw-425">
          <mxGeometry x="418" y="60" width="20" height="20" as="geometry" />
        </mxCell>
        <mxCell id="ocNy2B_SOmaEHGy6fEzw-172" value="" style="rounded=0;whiteSpace=wrap;html=1;fillColor=#FFFFFF;fontColor=#ffffff;strokeColor=none;" vertex="1" parent="ocNy2B_SOmaEHGy6fEzw-425">
          <mxGeometry x="438" y="60" width="20" height="20" as="geometry" />
        </mxCell>
        <mxCell id="ocNy2B_SOmaEHGy6fEzw-173" value="" style="rounded=0;whiteSpace=wrap;html=1;fillColor=#FFFFFF;fontColor=#ffffff;strokeColor=none;" vertex="1" parent="ocNy2B_SOmaEHGy6fEzw-425">
          <mxGeometry x="458" y="60" width="23" height="20" as="geometry" />
        </mxCell>
        <mxCell id="ocNy2B_SOmaEHGy6fEzw-174" value="" style="rounded=0;whiteSpace=wrap;html=1;fillColor=#e3c800;fontColor=#000000;strokeColor=none;" vertex="1" parent="ocNy2B_SOmaEHGy6fEzw-425">
          <mxGeometry x="80" y="61" width="20" height="20" as="geometry" />
        </mxCell>
        <mxCell id="ocNy2B_SOmaEHGy6fEzw-175" value="" style="rounded=0;whiteSpace=wrap;html=1;fillColor=#CCCC00;fontColor=#000000;strokeColor=none;" vertex="1" parent="ocNy2B_SOmaEHGy6fEzw-425">
          <mxGeometry x="100" y="61" width="20" height="20" as="geometry" />
        </mxCell>
        <mxCell id="ocNy2B_SOmaEHGy6fEzw-176" value="" style="rounded=0;whiteSpace=wrap;html=1;fillColor=#e3c800;fontColor=#000000;strokeColor=none;" vertex="1" parent="ocNy2B_SOmaEHGy6fEzw-425">
          <mxGeometry x="120" y="61" width="20" height="20" as="geometry" />
        </mxCell>
        <mxCell id="ocNy2B_SOmaEHGy6fEzw-177" value="" style="rounded=0;whiteSpace=wrap;html=1;fillColor=#FF8000;fontColor=#000000;strokeColor=none;" vertex="1" parent="ocNy2B_SOmaEHGy6fEzw-425">
          <mxGeometry x="140" y="61" width="20" height="20" as="geometry" />
        </mxCell>
        <mxCell id="ocNy2B_SOmaEHGy6fEzw-178" value="" style="rounded=0;whiteSpace=wrap;html=1;fillColor=#fa6800;fontColor=#000000;strokeColor=none;" vertex="1" parent="ocNy2B_SOmaEHGy6fEzw-425">
          <mxGeometry x="160" y="61" width="20" height="20" as="geometry" />
        </mxCell>
        <mxCell id="ocNy2B_SOmaEHGy6fEzw-179" value="" style="rounded=0;whiteSpace=wrap;html=1;fillColor=#331A00;fontColor=#000000;strokeColor=none;" vertex="1" parent="ocNy2B_SOmaEHGy6fEzw-425">
          <mxGeometry x="180" y="61" width="20" height="20" as="geometry" />
        </mxCell>
        <mxCell id="ocNy2B_SOmaEHGy6fEzw-180" value="" style="rounded=0;whiteSpace=wrap;html=1;fillColor=#FF9999;fontColor=#000000;strokeColor=none;" vertex="1" parent="ocNy2B_SOmaEHGy6fEzw-425">
          <mxGeometry x="200" y="61" width="20" height="20" as="geometry" />
        </mxCell>
        <mxCell id="ocNy2B_SOmaEHGy6fEzw-181" value="" style="rounded=0;whiteSpace=wrap;html=1;fillColor=#FF6666;fontColor=#000000;strokeColor=none;" vertex="1" parent="ocNy2B_SOmaEHGy6fEzw-425">
          <mxGeometry x="220" y="61" width="20" height="20" as="geometry" />
        </mxCell>
        <mxCell id="ocNy2B_SOmaEHGy6fEzw-182" value="" style="rounded=0;whiteSpace=wrap;html=1;fillColor=#e51400;fontColor=#ffffff;strokeColor=none;" vertex="1" parent="ocNy2B_SOmaEHGy6fEzw-425">
          <mxGeometry x="240" y="61" width="20" height="20" as="geometry" />
        </mxCell>
        <mxCell id="ocNy2B_SOmaEHGy6fEzw-183" value="" style="rounded=0;whiteSpace=wrap;html=1;fillColor=#FF6666;fontColor=#000000;strokeColor=none;" vertex="1" parent="ocNy2B_SOmaEHGy6fEzw-425">
          <mxGeometry x="259" y="61" width="20" height="20" as="geometry" />
        </mxCell>
        <mxCell id="ocNy2B_SOmaEHGy6fEzw-184" value="" style="rounded=0;whiteSpace=wrap;html=1;fillColor=#FF9999;fontColor=#000000;strokeColor=none;" vertex="1" parent="ocNy2B_SOmaEHGy6fEzw-425">
          <mxGeometry x="279" y="61" width="20" height="20" as="geometry" />
        </mxCell>
        <mxCell id="ocNy2B_SOmaEHGy6fEzw-185" value="" style="rounded=0;whiteSpace=wrap;html=1;fillColor=#e3c800;fontColor=#000000;strokeColor=none;" vertex="1" parent="ocNy2B_SOmaEHGy6fEzw-425">
          <mxGeometry x="299" y="61" width="20" height="20" as="geometry" />
        </mxCell>
        <mxCell id="ocNy2B_SOmaEHGy6fEzw-186" value="" style="rounded=0;whiteSpace=wrap;html=1;fillColor=#FFFFFF;fontColor=#ffffff;strokeColor=none;" vertex="1" parent="ocNy2B_SOmaEHGy6fEzw-425">
          <mxGeometry x="319" y="61" width="20" height="20" as="geometry" />
        </mxCell>
        <mxCell id="ocNy2B_SOmaEHGy6fEzw-187" value="" style="rounded=0;whiteSpace=wrap;html=1;fillColor=#FFFFFF;fontColor=#ffffff;strokeColor=none;" vertex="1" parent="ocNy2B_SOmaEHGy6fEzw-425">
          <mxGeometry x="339" y="61" width="20" height="20" as="geometry" />
        </mxCell>
        <mxCell id="ocNy2B_SOmaEHGy6fEzw-188" value="" style="rounded=0;whiteSpace=wrap;html=1;fillColor=#FFFFFF;fontColor=#ffffff;strokeColor=none;" vertex="1" parent="ocNy2B_SOmaEHGy6fEzw-425">
          <mxGeometry x="359" y="61" width="20" height="20" as="geometry" />
        </mxCell>
        <mxCell id="ocNy2B_SOmaEHGy6fEzw-189" value="" style="rounded=0;whiteSpace=wrap;html=1;fillColor=#FFFFFF;fontColor=#ffffff;strokeColor=none;" vertex="1" parent="ocNy2B_SOmaEHGy6fEzw-425">
          <mxGeometry x="379" y="61" width="20" height="20" as="geometry" />
        </mxCell>
        <mxCell id="ocNy2B_SOmaEHGy6fEzw-190" value="" style="rounded=0;whiteSpace=wrap;html=1;fillColor=#FFFFFF;fontColor=#ffffff;strokeColor=none;" vertex="1" parent="ocNy2B_SOmaEHGy6fEzw-425">
          <mxGeometry x="399" y="61" width="20" height="20" as="geometry" />
        </mxCell>
        <mxCell id="ocNy2B_SOmaEHGy6fEzw-191" value="" style="rounded=0;whiteSpace=wrap;html=1;fillColor=#FFFFFF;fontColor=#ffffff;strokeColor=none;" vertex="1" parent="ocNy2B_SOmaEHGy6fEzw-425">
          <mxGeometry x="419" y="61" width="20" height="20" as="geometry" />
        </mxCell>
        <mxCell id="ocNy2B_SOmaEHGy6fEzw-192" value="" style="rounded=0;whiteSpace=wrap;html=1;fillColor=#FFFFFF;fontColor=#ffffff;strokeColor=none;" vertex="1" parent="ocNy2B_SOmaEHGy6fEzw-425">
          <mxGeometry x="439" y="61" width="20" height="20" as="geometry" />
        </mxCell>
        <mxCell id="ocNy2B_SOmaEHGy6fEzw-193" value="" style="rounded=0;whiteSpace=wrap;html=1;fillColor=#FFFFFF;fontColor=#ffffff;strokeColor=none;" vertex="1" parent="ocNy2B_SOmaEHGy6fEzw-425">
          <mxGeometry x="459" y="61" width="23" height="20" as="geometry" />
        </mxCell>
        <mxCell id="ocNy2B_SOmaEHGy6fEzw-195" value="" style="rounded=0;whiteSpace=wrap;html=1;fillColor=#e3c800;fontColor=#000000;strokeColor=none;" vertex="1" parent="ocNy2B_SOmaEHGy6fEzw-425">
          <mxGeometry x="79" y="81" width="20" height="20" as="geometry" />
        </mxCell>
        <mxCell id="ocNy2B_SOmaEHGy6fEzw-196" value="" style="rounded=0;whiteSpace=wrap;html=1;fillColor=#CCCC00;fontColor=#000000;strokeColor=none;" vertex="1" parent="ocNy2B_SOmaEHGy6fEzw-425">
          <mxGeometry x="99" y="81" width="20" height="20" as="geometry" />
        </mxCell>
        <mxCell id="ocNy2B_SOmaEHGy6fEzw-197" value="" style="rounded=0;whiteSpace=wrap;html=1;fillColor=#e3c800;fontColor=#000000;strokeColor=none;" vertex="1" parent="ocNy2B_SOmaEHGy6fEzw-425">
          <mxGeometry x="119" y="81" width="20" height="20" as="geometry" />
        </mxCell>
        <mxCell id="ocNy2B_SOmaEHGy6fEzw-198" value="" style="rounded=0;whiteSpace=wrap;html=1;fillColor=#FF8000;fontColor=#000000;strokeColor=none;" vertex="1" parent="ocNy2B_SOmaEHGy6fEzw-425">
          <mxGeometry x="139" y="81" width="20" height="20" as="geometry" />
        </mxCell>
        <mxCell id="ocNy2B_SOmaEHGy6fEzw-199" value="" style="rounded=0;whiteSpace=wrap;html=1;fillColor=#fa6800;fontColor=#000000;strokeColor=none;" vertex="1" parent="ocNy2B_SOmaEHGy6fEzw-425">
          <mxGeometry x="159" y="81" width="20" height="20" as="geometry" />
        </mxCell>
        <mxCell id="ocNy2B_SOmaEHGy6fEzw-200" value="" style="rounded=0;whiteSpace=wrap;html=1;fillColor=#331A00;fontColor=#000000;strokeColor=none;" vertex="1" parent="ocNy2B_SOmaEHGy6fEzw-425">
          <mxGeometry x="179" y="81" width="20" height="20" as="geometry" />
        </mxCell>
        <mxCell id="ocNy2B_SOmaEHGy6fEzw-201" value="" style="rounded=0;whiteSpace=wrap;html=1;fillColor=#FF9999;fontColor=#000000;strokeColor=none;" vertex="1" parent="ocNy2B_SOmaEHGy6fEzw-425">
          <mxGeometry x="199" y="81" width="20" height="20" as="geometry" />
        </mxCell>
        <mxCell id="ocNy2B_SOmaEHGy6fEzw-202" value="" style="rounded=0;whiteSpace=wrap;html=1;fillColor=#FF6666;fontColor=#000000;strokeColor=none;" vertex="1" parent="ocNy2B_SOmaEHGy6fEzw-425">
          <mxGeometry x="219" y="81" width="20" height="20" as="geometry" />
        </mxCell>
        <mxCell id="ocNy2B_SOmaEHGy6fEzw-203" value="" style="rounded=0;whiteSpace=wrap;html=1;fillColor=#e51400;fontColor=#ffffff;strokeColor=none;" vertex="1" parent="ocNy2B_SOmaEHGy6fEzw-425">
          <mxGeometry x="239" y="81" width="20" height="20" as="geometry" />
        </mxCell>
        <mxCell id="ocNy2B_SOmaEHGy6fEzw-204" value="" style="rounded=0;whiteSpace=wrap;html=1;fillColor=#FF6666;fontColor=#000000;strokeColor=none;" vertex="1" parent="ocNy2B_SOmaEHGy6fEzw-425">
          <mxGeometry x="258" y="81" width="20" height="20" as="geometry" />
        </mxCell>
        <mxCell id="ocNy2B_SOmaEHGy6fEzw-205" value="" style="rounded=0;whiteSpace=wrap;html=1;fillColor=#FF9999;fontColor=#000000;strokeColor=none;" vertex="1" parent="ocNy2B_SOmaEHGy6fEzw-425">
          <mxGeometry x="278" y="81" width="20" height="20" as="geometry" />
        </mxCell>
        <mxCell id="ocNy2B_SOmaEHGy6fEzw-206" value="" style="rounded=0;whiteSpace=wrap;html=1;fillColor=#e3c800;fontColor=#000000;strokeColor=none;" vertex="1" parent="ocNy2B_SOmaEHGy6fEzw-425">
          <mxGeometry x="298" y="81" width="20" height="20" as="geometry" />
        </mxCell>
        <mxCell id="ocNy2B_SOmaEHGy6fEzw-207" value="" style="rounded=0;whiteSpace=wrap;html=1;fillColor=#FFFFFF;fontColor=#ffffff;strokeColor=none;" vertex="1" parent="ocNy2B_SOmaEHGy6fEzw-425">
          <mxGeometry x="318" y="81" width="20" height="20" as="geometry" />
        </mxCell>
        <mxCell id="ocNy2B_SOmaEHGy6fEzw-208" value="" style="rounded=0;whiteSpace=wrap;html=1;fillColor=#FFFFFF;fontColor=#ffffff;strokeColor=none;" vertex="1" parent="ocNy2B_SOmaEHGy6fEzw-425">
          <mxGeometry x="338" y="81" width="20" height="20" as="geometry" />
        </mxCell>
        <mxCell id="ocNy2B_SOmaEHGy6fEzw-209" value="" style="rounded=0;whiteSpace=wrap;html=1;fillColor=#FFFFFF;fontColor=#ffffff;strokeColor=none;" vertex="1" parent="ocNy2B_SOmaEHGy6fEzw-425">
          <mxGeometry x="358" y="81" width="20" height="20" as="geometry" />
        </mxCell>
        <mxCell id="ocNy2B_SOmaEHGy6fEzw-210" value="" style="rounded=0;whiteSpace=wrap;html=1;fillColor=#FFFFFF;fontColor=#ffffff;strokeColor=none;" vertex="1" parent="ocNy2B_SOmaEHGy6fEzw-425">
          <mxGeometry x="378" y="81" width="20" height="20" as="geometry" />
        </mxCell>
        <mxCell id="ocNy2B_SOmaEHGy6fEzw-211" value="" style="rounded=0;whiteSpace=wrap;html=1;fillColor=#FFFFFF;fontColor=#ffffff;strokeColor=none;" vertex="1" parent="ocNy2B_SOmaEHGy6fEzw-425">
          <mxGeometry x="398" y="81" width="20" height="20" as="geometry" />
        </mxCell>
        <mxCell id="ocNy2B_SOmaEHGy6fEzw-212" value="" style="rounded=0;whiteSpace=wrap;html=1;fillColor=#FFFFFF;fontColor=#ffffff;strokeColor=none;" vertex="1" parent="ocNy2B_SOmaEHGy6fEzw-425">
          <mxGeometry x="418" y="81" width="20" height="20" as="geometry" />
        </mxCell>
        <mxCell id="ocNy2B_SOmaEHGy6fEzw-213" value="" style="rounded=0;whiteSpace=wrap;html=1;fillColor=#FFFFFF;fontColor=#ffffff;strokeColor=none;" vertex="1" parent="ocNy2B_SOmaEHGy6fEzw-425">
          <mxGeometry x="438" y="81" width="20" height="20" as="geometry" />
        </mxCell>
        <mxCell id="ocNy2B_SOmaEHGy6fEzw-214" value="" style="rounded=0;whiteSpace=wrap;html=1;fillColor=#FFFFFF;fontColor=#ffffff;strokeColor=none;" vertex="1" parent="ocNy2B_SOmaEHGy6fEzw-425">
          <mxGeometry x="458" y="81" width="23" height="20" as="geometry" />
        </mxCell>
        <mxCell id="ocNy2B_SOmaEHGy6fEzw-215" value="" style="rounded=0;whiteSpace=wrap;html=1;fillColor=#e3c800;fontColor=#000000;strokeColor=none;" vertex="1" parent="ocNy2B_SOmaEHGy6fEzw-425">
          <mxGeometry x="80" y="82" width="20" height="20" as="geometry" />
        </mxCell>
        <mxCell id="ocNy2B_SOmaEHGy6fEzw-216" value="" style="rounded=0;whiteSpace=wrap;html=1;fillColor=#CCCC00;fontColor=#000000;strokeColor=none;" vertex="1" parent="ocNy2B_SOmaEHGy6fEzw-425">
          <mxGeometry x="100" y="82" width="20" height="20" as="geometry" />
        </mxCell>
        <mxCell id="ocNy2B_SOmaEHGy6fEzw-217" value="" style="rounded=0;whiteSpace=wrap;html=1;fillColor=#e3c800;fontColor=#000000;strokeColor=none;" vertex="1" parent="ocNy2B_SOmaEHGy6fEzw-425">
          <mxGeometry x="120" y="82" width="20" height="20" as="geometry" />
        </mxCell>
        <mxCell id="ocNy2B_SOmaEHGy6fEzw-218" value="" style="rounded=0;whiteSpace=wrap;html=1;fillColor=#FF8000;fontColor=#000000;strokeColor=none;" vertex="1" parent="ocNy2B_SOmaEHGy6fEzw-425">
          <mxGeometry x="140" y="82" width="20" height="20" as="geometry" />
        </mxCell>
        <mxCell id="ocNy2B_SOmaEHGy6fEzw-219" value="" style="rounded=0;whiteSpace=wrap;html=1;fillColor=#fa6800;fontColor=#000000;strokeColor=none;" vertex="1" parent="ocNy2B_SOmaEHGy6fEzw-425">
          <mxGeometry x="160" y="82" width="20" height="20" as="geometry" />
        </mxCell>
        <mxCell id="ocNy2B_SOmaEHGy6fEzw-220" value="" style="rounded=0;whiteSpace=wrap;html=1;fillColor=#331A00;fontColor=#000000;strokeColor=none;" vertex="1" parent="ocNy2B_SOmaEHGy6fEzw-425">
          <mxGeometry x="180" y="82" width="20" height="20" as="geometry" />
        </mxCell>
        <mxCell id="ocNy2B_SOmaEHGy6fEzw-221" value="" style="rounded=0;whiteSpace=wrap;html=1;fillColor=#FF9999;fontColor=#000000;strokeColor=none;" vertex="1" parent="ocNy2B_SOmaEHGy6fEzw-425">
          <mxGeometry x="200" y="82" width="20" height="20" as="geometry" />
        </mxCell>
        <mxCell id="ocNy2B_SOmaEHGy6fEzw-222" value="" style="rounded=0;whiteSpace=wrap;html=1;fillColor=#FF6666;fontColor=#000000;strokeColor=none;" vertex="1" parent="ocNy2B_SOmaEHGy6fEzw-425">
          <mxGeometry x="220" y="82" width="20" height="20" as="geometry" />
        </mxCell>
        <mxCell id="ocNy2B_SOmaEHGy6fEzw-223" value="" style="rounded=0;whiteSpace=wrap;html=1;fillColor=#e51400;fontColor=#ffffff;strokeColor=none;" vertex="1" parent="ocNy2B_SOmaEHGy6fEzw-425">
          <mxGeometry x="240" y="82" width="20" height="20" as="geometry" />
        </mxCell>
        <mxCell id="ocNy2B_SOmaEHGy6fEzw-224" value="" style="rounded=0;whiteSpace=wrap;html=1;fillColor=#FF6666;fontColor=#000000;strokeColor=none;" vertex="1" parent="ocNy2B_SOmaEHGy6fEzw-425">
          <mxGeometry x="259" y="82" width="20" height="20" as="geometry" />
        </mxCell>
        <mxCell id="ocNy2B_SOmaEHGy6fEzw-225" value="" style="rounded=0;whiteSpace=wrap;html=1;fillColor=#FF9999;fontColor=#000000;strokeColor=none;" vertex="1" parent="ocNy2B_SOmaEHGy6fEzw-425">
          <mxGeometry x="279" y="82" width="20" height="20" as="geometry" />
        </mxCell>
        <mxCell id="ocNy2B_SOmaEHGy6fEzw-226" value="" style="rounded=0;whiteSpace=wrap;html=1;fillColor=#e3c800;fontColor=#000000;strokeColor=none;" vertex="1" parent="ocNy2B_SOmaEHGy6fEzw-425">
          <mxGeometry x="299" y="82" width="20" height="20" as="geometry" />
        </mxCell>
        <mxCell id="ocNy2B_SOmaEHGy6fEzw-227" value="" style="rounded=0;whiteSpace=wrap;html=1;fillColor=#FFFFFF;fontColor=#ffffff;strokeColor=none;" vertex="1" parent="ocNy2B_SOmaEHGy6fEzw-425">
          <mxGeometry x="319" y="82" width="20" height="20" as="geometry" />
        </mxCell>
        <mxCell id="ocNy2B_SOmaEHGy6fEzw-228" value="" style="rounded=0;whiteSpace=wrap;html=1;fillColor=#FFFFFF;fontColor=#ffffff;strokeColor=none;" vertex="1" parent="ocNy2B_SOmaEHGy6fEzw-425">
          <mxGeometry x="339" y="82" width="20" height="20" as="geometry" />
        </mxCell>
        <mxCell id="ocNy2B_SOmaEHGy6fEzw-229" value="" style="rounded=0;whiteSpace=wrap;html=1;fillColor=#FFFFFF;fontColor=#ffffff;strokeColor=none;" vertex="1" parent="ocNy2B_SOmaEHGy6fEzw-425">
          <mxGeometry x="359" y="82" width="20" height="20" as="geometry" />
        </mxCell>
        <mxCell id="ocNy2B_SOmaEHGy6fEzw-230" value="" style="rounded=0;whiteSpace=wrap;html=1;fillColor=#FFFFFF;fontColor=#ffffff;strokeColor=none;" vertex="1" parent="ocNy2B_SOmaEHGy6fEzw-425">
          <mxGeometry x="379" y="82" width="20" height="20" as="geometry" />
        </mxCell>
        <mxCell id="ocNy2B_SOmaEHGy6fEzw-231" value="" style="rounded=0;whiteSpace=wrap;html=1;fillColor=#FFFFFF;fontColor=#ffffff;strokeColor=none;" vertex="1" parent="ocNy2B_SOmaEHGy6fEzw-425">
          <mxGeometry x="399" y="82" width="20" height="20" as="geometry" />
        </mxCell>
        <mxCell id="ocNy2B_SOmaEHGy6fEzw-232" value="" style="rounded=0;whiteSpace=wrap;html=1;fillColor=#FFFFFF;fontColor=#ffffff;strokeColor=none;" vertex="1" parent="ocNy2B_SOmaEHGy6fEzw-425">
          <mxGeometry x="419" y="82" width="20" height="20" as="geometry" />
        </mxCell>
        <mxCell id="ocNy2B_SOmaEHGy6fEzw-233" value="" style="rounded=0;whiteSpace=wrap;html=1;fillColor=#FFFFFF;fontColor=#ffffff;strokeColor=none;" vertex="1" parent="ocNy2B_SOmaEHGy6fEzw-425">
          <mxGeometry x="439" y="82" width="20" height="20" as="geometry" />
        </mxCell>
        <mxCell id="ocNy2B_SOmaEHGy6fEzw-234" value="" style="rounded=0;whiteSpace=wrap;html=1;fillColor=#FFFFFF;fontColor=#ffffff;strokeColor=none;" vertex="1" parent="ocNy2B_SOmaEHGy6fEzw-425">
          <mxGeometry x="459" y="82" width="23" height="20" as="geometry" />
        </mxCell>
        <mxCell id="ocNy2B_SOmaEHGy6fEzw-235" value="" style="rounded=0;whiteSpace=wrap;html=1;fillColor=#e3c800;fontColor=#000000;strokeColor=none;" vertex="1" parent="ocNy2B_SOmaEHGy6fEzw-425">
          <mxGeometry x="79" y="103" width="20" height="20" as="geometry" />
        </mxCell>
        <mxCell id="ocNy2B_SOmaEHGy6fEzw-236" value="" style="rounded=0;whiteSpace=wrap;html=1;fillColor=#CCCC00;fontColor=#000000;strokeColor=none;" vertex="1" parent="ocNy2B_SOmaEHGy6fEzw-425">
          <mxGeometry x="99" y="103" width="20" height="20" as="geometry" />
        </mxCell>
        <mxCell id="ocNy2B_SOmaEHGy6fEzw-237" value="" style="rounded=0;whiteSpace=wrap;html=1;fillColor=#e3c800;fontColor=#000000;strokeColor=none;" vertex="1" parent="ocNy2B_SOmaEHGy6fEzw-425">
          <mxGeometry x="119" y="103" width="20" height="20" as="geometry" />
        </mxCell>
        <mxCell id="ocNy2B_SOmaEHGy6fEzw-238" value="" style="rounded=0;whiteSpace=wrap;html=1;fillColor=#FF8000;fontColor=#000000;strokeColor=none;" vertex="1" parent="ocNy2B_SOmaEHGy6fEzw-425">
          <mxGeometry x="139" y="103" width="20" height="20" as="geometry" />
        </mxCell>
        <mxCell id="ocNy2B_SOmaEHGy6fEzw-239" value="" style="rounded=0;whiteSpace=wrap;html=1;fillColor=#fa6800;fontColor=#000000;strokeColor=none;" vertex="1" parent="ocNy2B_SOmaEHGy6fEzw-425">
          <mxGeometry x="159" y="103" width="20" height="20" as="geometry" />
        </mxCell>
        <mxCell id="ocNy2B_SOmaEHGy6fEzw-240" value="" style="rounded=0;whiteSpace=wrap;html=1;fillColor=#331A00;fontColor=#000000;strokeColor=none;" vertex="1" parent="ocNy2B_SOmaEHGy6fEzw-425">
          <mxGeometry x="179" y="103" width="20" height="20" as="geometry" />
        </mxCell>
        <mxCell id="ocNy2B_SOmaEHGy6fEzw-241" value="" style="rounded=0;whiteSpace=wrap;html=1;fillColor=#FF9999;fontColor=#000000;strokeColor=none;" vertex="1" parent="ocNy2B_SOmaEHGy6fEzw-425">
          <mxGeometry x="199" y="103" width="20" height="20" as="geometry" />
        </mxCell>
        <mxCell id="ocNy2B_SOmaEHGy6fEzw-242" value="" style="rounded=0;whiteSpace=wrap;html=1;fillColor=#FF6666;fontColor=#000000;strokeColor=none;" vertex="1" parent="ocNy2B_SOmaEHGy6fEzw-425">
          <mxGeometry x="219" y="103" width="20" height="20" as="geometry" />
        </mxCell>
        <mxCell id="ocNy2B_SOmaEHGy6fEzw-243" value="" style="rounded=0;whiteSpace=wrap;html=1;fillColor=#e51400;fontColor=#ffffff;strokeColor=none;" vertex="1" parent="ocNy2B_SOmaEHGy6fEzw-425">
          <mxGeometry x="239" y="103" width="20" height="20" as="geometry" />
        </mxCell>
        <mxCell id="ocNy2B_SOmaEHGy6fEzw-244" value="" style="rounded=0;whiteSpace=wrap;html=1;fillColor=#FF6666;fontColor=#000000;strokeColor=none;" vertex="1" parent="ocNy2B_SOmaEHGy6fEzw-425">
          <mxGeometry x="258" y="103" width="20" height="20" as="geometry" />
        </mxCell>
        <mxCell id="ocNy2B_SOmaEHGy6fEzw-245" value="" style="rounded=0;whiteSpace=wrap;html=1;fillColor=#FF9999;fontColor=#000000;strokeColor=none;" vertex="1" parent="ocNy2B_SOmaEHGy6fEzw-425">
          <mxGeometry x="278" y="103" width="20" height="20" as="geometry" />
        </mxCell>
        <mxCell id="ocNy2B_SOmaEHGy6fEzw-246" value="" style="rounded=0;whiteSpace=wrap;html=1;fillColor=#e3c800;fontColor=#000000;strokeColor=none;" vertex="1" parent="ocNy2B_SOmaEHGy6fEzw-425">
          <mxGeometry x="298" y="103" width="20" height="20" as="geometry" />
        </mxCell>
        <mxCell id="ocNy2B_SOmaEHGy6fEzw-247" value="" style="rounded=0;whiteSpace=wrap;html=1;fillColor=#FFFFFF;fontColor=#ffffff;strokeColor=none;" vertex="1" parent="ocNy2B_SOmaEHGy6fEzw-425">
          <mxGeometry x="318" y="103" width="20" height="20" as="geometry" />
        </mxCell>
        <mxCell id="ocNy2B_SOmaEHGy6fEzw-248" value="" style="rounded=0;whiteSpace=wrap;html=1;fillColor=#FFFFFF;fontColor=#ffffff;strokeColor=none;" vertex="1" parent="ocNy2B_SOmaEHGy6fEzw-425">
          <mxGeometry x="338" y="103" width="20" height="20" as="geometry" />
        </mxCell>
        <mxCell id="ocNy2B_SOmaEHGy6fEzw-249" value="" style="rounded=0;whiteSpace=wrap;html=1;fillColor=#FFFFFF;fontColor=#ffffff;strokeColor=none;" vertex="1" parent="ocNy2B_SOmaEHGy6fEzw-425">
          <mxGeometry x="358" y="103" width="20" height="20" as="geometry" />
        </mxCell>
        <mxCell id="ocNy2B_SOmaEHGy6fEzw-250" value="" style="rounded=0;whiteSpace=wrap;html=1;fillColor=#FFFFFF;fontColor=#ffffff;strokeColor=none;" vertex="1" parent="ocNy2B_SOmaEHGy6fEzw-425">
          <mxGeometry x="378" y="103" width="20" height="20" as="geometry" />
        </mxCell>
        <mxCell id="ocNy2B_SOmaEHGy6fEzw-251" value="" style="rounded=0;whiteSpace=wrap;html=1;fillColor=#FFFFFF;fontColor=#ffffff;strokeColor=none;" vertex="1" parent="ocNy2B_SOmaEHGy6fEzw-425">
          <mxGeometry x="398" y="103" width="20" height="20" as="geometry" />
        </mxCell>
        <mxCell id="ocNy2B_SOmaEHGy6fEzw-252" value="" style="rounded=0;whiteSpace=wrap;html=1;fillColor=#FFFFFF;fontColor=#ffffff;strokeColor=none;" vertex="1" parent="ocNy2B_SOmaEHGy6fEzw-425">
          <mxGeometry x="418" y="103" width="20" height="20" as="geometry" />
        </mxCell>
        <mxCell id="ocNy2B_SOmaEHGy6fEzw-253" value="" style="rounded=0;whiteSpace=wrap;html=1;fillColor=#FFFFFF;fontColor=#ffffff;strokeColor=none;" vertex="1" parent="ocNy2B_SOmaEHGy6fEzw-425">
          <mxGeometry x="438" y="103" width="20" height="20" as="geometry" />
        </mxCell>
        <mxCell id="ocNy2B_SOmaEHGy6fEzw-254" value="" style="rounded=0;whiteSpace=wrap;html=1;fillColor=#FFFFFF;fontColor=#ffffff;strokeColor=none;" vertex="1" parent="ocNy2B_SOmaEHGy6fEzw-425">
          <mxGeometry x="458" y="103" width="23" height="20" as="geometry" />
        </mxCell>
        <mxCell id="ocNy2B_SOmaEHGy6fEzw-255" value="" style="rounded=0;whiteSpace=wrap;html=1;fillColor=#e3c800;fontColor=#000000;strokeColor=none;" vertex="1" parent="ocNy2B_SOmaEHGy6fEzw-425">
          <mxGeometry x="80" y="104" width="20" height="20" as="geometry" />
        </mxCell>
        <mxCell id="ocNy2B_SOmaEHGy6fEzw-256" value="" style="rounded=0;whiteSpace=wrap;html=1;fillColor=#CCCC00;fontColor=#000000;strokeColor=none;" vertex="1" parent="ocNy2B_SOmaEHGy6fEzw-425">
          <mxGeometry x="100" y="104" width="20" height="20" as="geometry" />
        </mxCell>
        <mxCell id="ocNy2B_SOmaEHGy6fEzw-257" value="" style="rounded=0;whiteSpace=wrap;html=1;fillColor=#e3c800;fontColor=#000000;strokeColor=none;" vertex="1" parent="ocNy2B_SOmaEHGy6fEzw-425">
          <mxGeometry x="120" y="104" width="20" height="20" as="geometry" />
        </mxCell>
        <mxCell id="ocNy2B_SOmaEHGy6fEzw-258" value="" style="rounded=0;whiteSpace=wrap;html=1;fillColor=#FF8000;fontColor=#000000;strokeColor=none;" vertex="1" parent="ocNy2B_SOmaEHGy6fEzw-425">
          <mxGeometry x="140" y="104" width="20" height="20" as="geometry" />
        </mxCell>
        <mxCell id="ocNy2B_SOmaEHGy6fEzw-259" value="" style="rounded=0;whiteSpace=wrap;html=1;fillColor=#fa6800;fontColor=#000000;strokeColor=none;" vertex="1" parent="ocNy2B_SOmaEHGy6fEzw-425">
          <mxGeometry x="160" y="104" width="20" height="20" as="geometry" />
        </mxCell>
        <mxCell id="ocNy2B_SOmaEHGy6fEzw-260" value="" style="rounded=0;whiteSpace=wrap;html=1;fillColor=#331A00;fontColor=#000000;strokeColor=none;" vertex="1" parent="ocNy2B_SOmaEHGy6fEzw-425">
          <mxGeometry x="180" y="104" width="20" height="20" as="geometry" />
        </mxCell>
        <mxCell id="ocNy2B_SOmaEHGy6fEzw-261" value="" style="rounded=0;whiteSpace=wrap;html=1;fillColor=#FF9999;fontColor=#000000;strokeColor=none;" vertex="1" parent="ocNy2B_SOmaEHGy6fEzw-425">
          <mxGeometry x="200" y="104" width="20" height="20" as="geometry" />
        </mxCell>
        <mxCell id="ocNy2B_SOmaEHGy6fEzw-262" value="" style="rounded=0;whiteSpace=wrap;html=1;fillColor=#FF6666;fontColor=#000000;strokeColor=none;" vertex="1" parent="ocNy2B_SOmaEHGy6fEzw-425">
          <mxGeometry x="220" y="104" width="20" height="20" as="geometry" />
        </mxCell>
        <mxCell id="ocNy2B_SOmaEHGy6fEzw-263" value="" style="rounded=0;whiteSpace=wrap;html=1;fillColor=#e51400;fontColor=#ffffff;strokeColor=none;" vertex="1" parent="ocNy2B_SOmaEHGy6fEzw-425">
          <mxGeometry x="240" y="104" width="20" height="20" as="geometry" />
        </mxCell>
        <mxCell id="ocNy2B_SOmaEHGy6fEzw-264" value="" style="rounded=0;whiteSpace=wrap;html=1;fillColor=#FF6666;fontColor=#000000;strokeColor=none;" vertex="1" parent="ocNy2B_SOmaEHGy6fEzw-425">
          <mxGeometry x="259" y="104" width="20" height="20" as="geometry" />
        </mxCell>
        <mxCell id="ocNy2B_SOmaEHGy6fEzw-265" value="" style="rounded=0;whiteSpace=wrap;html=1;fillColor=#FF9999;fontColor=#000000;strokeColor=none;" vertex="1" parent="ocNy2B_SOmaEHGy6fEzw-425">
          <mxGeometry x="279" y="104" width="20" height="20" as="geometry" />
        </mxCell>
        <mxCell id="ocNy2B_SOmaEHGy6fEzw-266" value="" style="rounded=0;whiteSpace=wrap;html=1;fillColor=#e3c800;fontColor=#000000;strokeColor=none;" vertex="1" parent="ocNy2B_SOmaEHGy6fEzw-425">
          <mxGeometry x="299" y="104" width="20" height="20" as="geometry" />
        </mxCell>
        <mxCell id="ocNy2B_SOmaEHGy6fEzw-267" value="" style="rounded=0;whiteSpace=wrap;html=1;fillColor=#FFFFFF;fontColor=#ffffff;strokeColor=none;" vertex="1" parent="ocNy2B_SOmaEHGy6fEzw-425">
          <mxGeometry x="319" y="104" width="20" height="20" as="geometry" />
        </mxCell>
        <mxCell id="ocNy2B_SOmaEHGy6fEzw-268" value="" style="rounded=0;whiteSpace=wrap;html=1;fillColor=#FFFFFF;fontColor=#ffffff;strokeColor=none;" vertex="1" parent="ocNy2B_SOmaEHGy6fEzw-425">
          <mxGeometry x="339" y="104" width="20" height="20" as="geometry" />
        </mxCell>
        <mxCell id="ocNy2B_SOmaEHGy6fEzw-269" value="" style="rounded=0;whiteSpace=wrap;html=1;fillColor=#FFFFFF;fontColor=#ffffff;strokeColor=none;" vertex="1" parent="ocNy2B_SOmaEHGy6fEzw-425">
          <mxGeometry x="359" y="104" width="20" height="20" as="geometry" />
        </mxCell>
        <mxCell id="ocNy2B_SOmaEHGy6fEzw-270" value="" style="rounded=0;whiteSpace=wrap;html=1;fillColor=#FFFFFF;fontColor=#ffffff;strokeColor=none;" vertex="1" parent="ocNy2B_SOmaEHGy6fEzw-425">
          <mxGeometry x="379" y="104" width="20" height="20" as="geometry" />
        </mxCell>
        <mxCell id="ocNy2B_SOmaEHGy6fEzw-271" value="" style="rounded=0;whiteSpace=wrap;html=1;fillColor=#FFFFFF;fontColor=#ffffff;strokeColor=none;" vertex="1" parent="ocNy2B_SOmaEHGy6fEzw-425">
          <mxGeometry x="399" y="104" width="20" height="20" as="geometry" />
        </mxCell>
        <mxCell id="ocNy2B_SOmaEHGy6fEzw-272" value="" style="rounded=0;whiteSpace=wrap;html=1;fillColor=#FFFFFF;fontColor=#ffffff;strokeColor=none;" vertex="1" parent="ocNy2B_SOmaEHGy6fEzw-425">
          <mxGeometry x="419" y="104" width="20" height="20" as="geometry" />
        </mxCell>
        <mxCell id="ocNy2B_SOmaEHGy6fEzw-273" value="" style="rounded=0;whiteSpace=wrap;html=1;fillColor=#FFFFFF;fontColor=#ffffff;strokeColor=none;" vertex="1" parent="ocNy2B_SOmaEHGy6fEzw-425">
          <mxGeometry x="439" y="104" width="20" height="20" as="geometry" />
        </mxCell>
        <mxCell id="ocNy2B_SOmaEHGy6fEzw-274" value="" style="rounded=0;whiteSpace=wrap;html=1;fillColor=#FFFFFF;fontColor=#ffffff;strokeColor=none;" vertex="1" parent="ocNy2B_SOmaEHGy6fEzw-425">
          <mxGeometry x="459" y="104" width="23" height="20" as="geometry" />
        </mxCell>
        <mxCell id="ocNy2B_SOmaEHGy6fEzw-275" value="" style="rounded=0;whiteSpace=wrap;html=1;fillColor=#e3c800;fontColor=#000000;strokeColor=none;" vertex="1" parent="ocNy2B_SOmaEHGy6fEzw-425">
          <mxGeometry x="78" y="123" width="20" height="20" as="geometry" />
        </mxCell>
        <mxCell id="ocNy2B_SOmaEHGy6fEzw-276" value="" style="rounded=0;whiteSpace=wrap;html=1;fillColor=#CCCC00;fontColor=#000000;strokeColor=none;" vertex="1" parent="ocNy2B_SOmaEHGy6fEzw-425">
          <mxGeometry x="98" y="123" width="20" height="20" as="geometry" />
        </mxCell>
        <mxCell id="ocNy2B_SOmaEHGy6fEzw-277" value="" style="rounded=0;whiteSpace=wrap;html=1;fillColor=#e3c800;fontColor=#000000;strokeColor=none;" vertex="1" parent="ocNy2B_SOmaEHGy6fEzw-425">
          <mxGeometry x="118" y="123" width="20" height="20" as="geometry" />
        </mxCell>
        <mxCell id="ocNy2B_SOmaEHGy6fEzw-278" value="" style="rounded=0;whiteSpace=wrap;html=1;fillColor=#FF8000;fontColor=#000000;strokeColor=none;" vertex="1" parent="ocNy2B_SOmaEHGy6fEzw-425">
          <mxGeometry x="138" y="123" width="20" height="20" as="geometry" />
        </mxCell>
        <mxCell id="ocNy2B_SOmaEHGy6fEzw-279" value="" style="rounded=0;whiteSpace=wrap;html=1;fillColor=#fa6800;fontColor=#000000;strokeColor=none;" vertex="1" parent="ocNy2B_SOmaEHGy6fEzw-425">
          <mxGeometry x="158" y="123" width="20" height="20" as="geometry" />
        </mxCell>
        <mxCell id="ocNy2B_SOmaEHGy6fEzw-280" value="" style="rounded=0;whiteSpace=wrap;html=1;fillColor=#331A00;fontColor=#000000;strokeColor=none;" vertex="1" parent="ocNy2B_SOmaEHGy6fEzw-425">
          <mxGeometry x="178" y="123" width="20" height="20" as="geometry" />
        </mxCell>
        <mxCell id="ocNy2B_SOmaEHGy6fEzw-281" value="" style="rounded=0;whiteSpace=wrap;html=1;fillColor=#FF9999;fontColor=#000000;strokeColor=none;" vertex="1" parent="ocNy2B_SOmaEHGy6fEzw-425">
          <mxGeometry x="198" y="123" width="20" height="20" as="geometry" />
        </mxCell>
        <mxCell id="ocNy2B_SOmaEHGy6fEzw-282" value="" style="rounded=0;whiteSpace=wrap;html=1;fillColor=#FF6666;fontColor=#000000;strokeColor=none;" vertex="1" parent="ocNy2B_SOmaEHGy6fEzw-425">
          <mxGeometry x="218" y="123" width="20" height="20" as="geometry" />
        </mxCell>
        <mxCell id="ocNy2B_SOmaEHGy6fEzw-283" value="" style="rounded=0;whiteSpace=wrap;html=1;fillColor=#e51400;fontColor=#ffffff;strokeColor=none;" vertex="1" parent="ocNy2B_SOmaEHGy6fEzw-425">
          <mxGeometry x="238" y="123" width="20" height="20" as="geometry" />
        </mxCell>
        <mxCell id="ocNy2B_SOmaEHGy6fEzw-284" value="" style="rounded=0;whiteSpace=wrap;html=1;fillColor=#FF6666;fontColor=#000000;strokeColor=none;" vertex="1" parent="ocNy2B_SOmaEHGy6fEzw-425">
          <mxGeometry x="257" y="123" width="20" height="20" as="geometry" />
        </mxCell>
        <mxCell id="ocNy2B_SOmaEHGy6fEzw-285" value="" style="rounded=0;whiteSpace=wrap;html=1;fillColor=#FF9999;fontColor=#000000;strokeColor=none;" vertex="1" parent="ocNy2B_SOmaEHGy6fEzw-425">
          <mxGeometry x="277" y="123" width="20" height="20" as="geometry" />
        </mxCell>
        <mxCell id="ocNy2B_SOmaEHGy6fEzw-286" value="" style="rounded=0;whiteSpace=wrap;html=1;fillColor=#e3c800;fontColor=#000000;strokeColor=none;" vertex="1" parent="ocNy2B_SOmaEHGy6fEzw-425">
          <mxGeometry x="297" y="123" width="20" height="20" as="geometry" />
        </mxCell>
        <mxCell id="ocNy2B_SOmaEHGy6fEzw-287" value="" style="rounded=0;whiteSpace=wrap;html=1;fillColor=#FFFFFF;fontColor=#ffffff;strokeColor=none;" vertex="1" parent="ocNy2B_SOmaEHGy6fEzw-425">
          <mxGeometry x="317" y="123" width="20" height="20" as="geometry" />
        </mxCell>
        <mxCell id="ocNy2B_SOmaEHGy6fEzw-288" value="" style="rounded=0;whiteSpace=wrap;html=1;fillColor=#FFFFFF;fontColor=#ffffff;strokeColor=none;" vertex="1" parent="ocNy2B_SOmaEHGy6fEzw-425">
          <mxGeometry x="337" y="123" width="20" height="20" as="geometry" />
        </mxCell>
        <mxCell id="ocNy2B_SOmaEHGy6fEzw-289" value="" style="rounded=0;whiteSpace=wrap;html=1;fillColor=#FFFFFF;fontColor=#ffffff;strokeColor=none;" vertex="1" parent="ocNy2B_SOmaEHGy6fEzw-425">
          <mxGeometry x="357" y="123" width="20" height="20" as="geometry" />
        </mxCell>
        <mxCell id="ocNy2B_SOmaEHGy6fEzw-290" value="" style="rounded=0;whiteSpace=wrap;html=1;fillColor=#FFFFFF;fontColor=#ffffff;strokeColor=none;" vertex="1" parent="ocNy2B_SOmaEHGy6fEzw-425">
          <mxGeometry x="377" y="123" width="20" height="20" as="geometry" />
        </mxCell>
        <mxCell id="ocNy2B_SOmaEHGy6fEzw-291" value="" style="rounded=0;whiteSpace=wrap;html=1;fillColor=#FFFFFF;fontColor=#ffffff;strokeColor=none;" vertex="1" parent="ocNy2B_SOmaEHGy6fEzw-425">
          <mxGeometry x="397" y="123" width="20" height="20" as="geometry" />
        </mxCell>
        <mxCell id="ocNy2B_SOmaEHGy6fEzw-292" value="" style="rounded=0;whiteSpace=wrap;html=1;fillColor=#FFFFFF;fontColor=#ffffff;strokeColor=none;" vertex="1" parent="ocNy2B_SOmaEHGy6fEzw-425">
          <mxGeometry x="417" y="123" width="20" height="20" as="geometry" />
        </mxCell>
        <mxCell id="ocNy2B_SOmaEHGy6fEzw-293" value="" style="rounded=0;whiteSpace=wrap;html=1;fillColor=#FFFFFF;fontColor=#ffffff;strokeColor=none;" vertex="1" parent="ocNy2B_SOmaEHGy6fEzw-425">
          <mxGeometry x="437" y="123" width="20" height="20" as="geometry" />
        </mxCell>
        <mxCell id="ocNy2B_SOmaEHGy6fEzw-294" value="" style="rounded=0;whiteSpace=wrap;html=1;fillColor=#FFFFFF;fontColor=#ffffff;strokeColor=none;" vertex="1" parent="ocNy2B_SOmaEHGy6fEzw-425">
          <mxGeometry x="457" y="123" width="23" height="20" as="geometry" />
        </mxCell>
        <mxCell id="ocNy2B_SOmaEHGy6fEzw-295" value="" style="rounded=0;whiteSpace=wrap;html=1;fillColor=#e3c800;fontColor=#000000;strokeColor=none;" vertex="1" parent="ocNy2B_SOmaEHGy6fEzw-425">
          <mxGeometry x="79" y="124" width="20" height="20" as="geometry" />
        </mxCell>
        <mxCell id="ocNy2B_SOmaEHGy6fEzw-296" value="" style="rounded=0;whiteSpace=wrap;html=1;fillColor=#CCCC00;fontColor=#000000;strokeColor=none;" vertex="1" parent="ocNy2B_SOmaEHGy6fEzw-425">
          <mxGeometry x="99" y="124" width="20" height="20" as="geometry" />
        </mxCell>
        <mxCell id="ocNy2B_SOmaEHGy6fEzw-297" value="" style="rounded=0;whiteSpace=wrap;html=1;fillColor=#e3c800;fontColor=#000000;strokeColor=none;" vertex="1" parent="ocNy2B_SOmaEHGy6fEzw-425">
          <mxGeometry x="119" y="124" width="20" height="20" as="geometry" />
        </mxCell>
        <mxCell id="ocNy2B_SOmaEHGy6fEzw-298" value="" style="rounded=0;whiteSpace=wrap;html=1;fillColor=#FF8000;fontColor=#000000;strokeColor=none;" vertex="1" parent="ocNy2B_SOmaEHGy6fEzw-425">
          <mxGeometry x="139" y="124" width="20" height="20" as="geometry" />
        </mxCell>
        <mxCell id="ocNy2B_SOmaEHGy6fEzw-299" value="" style="rounded=0;whiteSpace=wrap;html=1;fillColor=#fa6800;fontColor=#000000;strokeColor=none;" vertex="1" parent="ocNy2B_SOmaEHGy6fEzw-425">
          <mxGeometry x="159" y="124" width="20" height="20" as="geometry" />
        </mxCell>
        <mxCell id="ocNy2B_SOmaEHGy6fEzw-300" value="" style="rounded=0;whiteSpace=wrap;html=1;fillColor=#331A00;fontColor=#000000;strokeColor=none;" vertex="1" parent="ocNy2B_SOmaEHGy6fEzw-425">
          <mxGeometry x="179" y="124" width="20" height="20" as="geometry" />
        </mxCell>
        <mxCell id="ocNy2B_SOmaEHGy6fEzw-301" value="" style="rounded=0;whiteSpace=wrap;html=1;fillColor=#FF9999;fontColor=#000000;strokeColor=none;" vertex="1" parent="ocNy2B_SOmaEHGy6fEzw-425">
          <mxGeometry x="199" y="124" width="20" height="20" as="geometry" />
        </mxCell>
        <mxCell id="ocNy2B_SOmaEHGy6fEzw-302" value="" style="rounded=0;whiteSpace=wrap;html=1;fillColor=#FF6666;fontColor=#000000;strokeColor=none;" vertex="1" parent="ocNy2B_SOmaEHGy6fEzw-425">
          <mxGeometry x="219" y="124" width="20" height="20" as="geometry" />
        </mxCell>
        <mxCell id="ocNy2B_SOmaEHGy6fEzw-303" value="" style="rounded=0;whiteSpace=wrap;html=1;fillColor=#e51400;fontColor=#ffffff;strokeColor=none;" vertex="1" parent="ocNy2B_SOmaEHGy6fEzw-425">
          <mxGeometry x="239" y="124" width="20" height="20" as="geometry" />
        </mxCell>
        <mxCell id="ocNy2B_SOmaEHGy6fEzw-304" value="" style="rounded=0;whiteSpace=wrap;html=1;fillColor=#FF6666;fontColor=#000000;strokeColor=none;" vertex="1" parent="ocNy2B_SOmaEHGy6fEzw-425">
          <mxGeometry x="258" y="124" width="20" height="20" as="geometry" />
        </mxCell>
        <mxCell id="ocNy2B_SOmaEHGy6fEzw-305" value="" style="rounded=0;whiteSpace=wrap;html=1;fillColor=#FF9999;fontColor=#000000;strokeColor=none;" vertex="1" parent="ocNy2B_SOmaEHGy6fEzw-425">
          <mxGeometry x="278" y="124" width="20" height="20" as="geometry" />
        </mxCell>
        <mxCell id="ocNy2B_SOmaEHGy6fEzw-306" value="" style="rounded=0;whiteSpace=wrap;html=1;fillColor=#e3c800;fontColor=#000000;strokeColor=none;" vertex="1" parent="ocNy2B_SOmaEHGy6fEzw-425">
          <mxGeometry x="298" y="124" width="20" height="20" as="geometry" />
        </mxCell>
        <mxCell id="ocNy2B_SOmaEHGy6fEzw-307" value="" style="rounded=0;whiteSpace=wrap;html=1;fillColor=#FFFFFF;fontColor=#ffffff;strokeColor=none;" vertex="1" parent="ocNy2B_SOmaEHGy6fEzw-425">
          <mxGeometry x="318" y="124" width="20" height="20" as="geometry" />
        </mxCell>
        <mxCell id="ocNy2B_SOmaEHGy6fEzw-308" value="" style="rounded=0;whiteSpace=wrap;html=1;fillColor=#FFFFFF;fontColor=#ffffff;strokeColor=none;" vertex="1" parent="ocNy2B_SOmaEHGy6fEzw-425">
          <mxGeometry x="338" y="124" width="20" height="20" as="geometry" />
        </mxCell>
        <mxCell id="ocNy2B_SOmaEHGy6fEzw-309" value="" style="rounded=0;whiteSpace=wrap;html=1;fillColor=#FFFFFF;fontColor=#ffffff;strokeColor=none;" vertex="1" parent="ocNy2B_SOmaEHGy6fEzw-425">
          <mxGeometry x="358" y="124" width="20" height="20" as="geometry" />
        </mxCell>
        <mxCell id="ocNy2B_SOmaEHGy6fEzw-310" value="" style="rounded=0;whiteSpace=wrap;html=1;fillColor=#FFFFFF;fontColor=#ffffff;strokeColor=none;" vertex="1" parent="ocNy2B_SOmaEHGy6fEzw-425">
          <mxGeometry x="378" y="124" width="20" height="20" as="geometry" />
        </mxCell>
        <mxCell id="ocNy2B_SOmaEHGy6fEzw-311" value="" style="rounded=0;whiteSpace=wrap;html=1;fillColor=#FFFFFF;fontColor=#ffffff;strokeColor=none;" vertex="1" parent="ocNy2B_SOmaEHGy6fEzw-425">
          <mxGeometry x="398" y="124" width="20" height="20" as="geometry" />
        </mxCell>
        <mxCell id="ocNy2B_SOmaEHGy6fEzw-312" value="" style="rounded=0;whiteSpace=wrap;html=1;fillColor=#FFFFFF;fontColor=#ffffff;strokeColor=none;" vertex="1" parent="ocNy2B_SOmaEHGy6fEzw-425">
          <mxGeometry x="418" y="124" width="20" height="20" as="geometry" />
        </mxCell>
        <mxCell id="ocNy2B_SOmaEHGy6fEzw-313" value="" style="rounded=0;whiteSpace=wrap;html=1;fillColor=#FFFFFF;fontColor=#ffffff;strokeColor=none;" vertex="1" parent="ocNy2B_SOmaEHGy6fEzw-425">
          <mxGeometry x="438" y="124" width="20" height="20" as="geometry" />
        </mxCell>
        <mxCell id="ocNy2B_SOmaEHGy6fEzw-314" value="" style="rounded=0;whiteSpace=wrap;html=1;fillColor=#FFFFFF;fontColor=#ffffff;strokeColor=none;" vertex="1" parent="ocNy2B_SOmaEHGy6fEzw-425">
          <mxGeometry x="458" y="124" width="23" height="20" as="geometry" />
        </mxCell>
        <mxCell id="ocNy2B_SOmaEHGy6fEzw-315" value="" style="rounded=0;whiteSpace=wrap;html=1;fillColor=#e3c800;fontColor=#000000;strokeColor=none;" vertex="1" parent="ocNy2B_SOmaEHGy6fEzw-425">
          <mxGeometry x="81" y="105" width="20" height="20" as="geometry" />
        </mxCell>
        <mxCell id="ocNy2B_SOmaEHGy6fEzw-316" value="" style="rounded=0;whiteSpace=wrap;html=1;fillColor=#CCCC00;fontColor=#000000;strokeColor=none;" vertex="1" parent="ocNy2B_SOmaEHGy6fEzw-425">
          <mxGeometry x="101" y="105" width="20" height="20" as="geometry" />
        </mxCell>
        <mxCell id="ocNy2B_SOmaEHGy6fEzw-317" value="" style="rounded=0;whiteSpace=wrap;html=1;fillColor=#e3c800;fontColor=#000000;strokeColor=none;" vertex="1" parent="ocNy2B_SOmaEHGy6fEzw-425">
          <mxGeometry x="121" y="105" width="20" height="20" as="geometry" />
        </mxCell>
        <mxCell id="ocNy2B_SOmaEHGy6fEzw-318" value="" style="rounded=0;whiteSpace=wrap;html=1;fillColor=#FF8000;fontColor=#000000;strokeColor=none;" vertex="1" parent="ocNy2B_SOmaEHGy6fEzw-425">
          <mxGeometry x="141" y="105" width="20" height="20" as="geometry" />
        </mxCell>
        <mxCell id="ocNy2B_SOmaEHGy6fEzw-319" value="" style="rounded=0;whiteSpace=wrap;html=1;fillColor=#fa6800;fontColor=#000000;strokeColor=none;" vertex="1" parent="ocNy2B_SOmaEHGy6fEzw-425">
          <mxGeometry x="161" y="105" width="20" height="20" as="geometry" />
        </mxCell>
        <mxCell id="ocNy2B_SOmaEHGy6fEzw-320" value="" style="rounded=0;whiteSpace=wrap;html=1;fillColor=#331A00;fontColor=#000000;strokeColor=none;" vertex="1" parent="ocNy2B_SOmaEHGy6fEzw-425">
          <mxGeometry x="181" y="105" width="20" height="20" as="geometry" />
        </mxCell>
        <mxCell id="ocNy2B_SOmaEHGy6fEzw-321" value="" style="rounded=0;whiteSpace=wrap;html=1;fillColor=#FF9999;fontColor=#000000;strokeColor=none;" vertex="1" parent="ocNy2B_SOmaEHGy6fEzw-425">
          <mxGeometry x="201" y="105" width="20" height="20" as="geometry" />
        </mxCell>
        <mxCell id="ocNy2B_SOmaEHGy6fEzw-322" value="" style="rounded=0;whiteSpace=wrap;html=1;fillColor=#FF6666;fontColor=#000000;strokeColor=none;" vertex="1" parent="ocNy2B_SOmaEHGy6fEzw-425">
          <mxGeometry x="221" y="105" width="20" height="20" as="geometry" />
        </mxCell>
        <mxCell id="ocNy2B_SOmaEHGy6fEzw-323" value="" style="rounded=0;whiteSpace=wrap;html=1;fillColor=#e51400;fontColor=#ffffff;strokeColor=none;" vertex="1" parent="ocNy2B_SOmaEHGy6fEzw-425">
          <mxGeometry x="241" y="105" width="20" height="20" as="geometry" />
        </mxCell>
        <mxCell id="ocNy2B_SOmaEHGy6fEzw-324" value="" style="rounded=0;whiteSpace=wrap;html=1;fillColor=#FF6666;fontColor=#000000;strokeColor=none;" vertex="1" parent="ocNy2B_SOmaEHGy6fEzw-425">
          <mxGeometry x="260" y="105" width="20" height="20" as="geometry" />
        </mxCell>
        <mxCell id="ocNy2B_SOmaEHGy6fEzw-325" value="" style="rounded=0;whiteSpace=wrap;html=1;fillColor=#FF9999;fontColor=#000000;strokeColor=none;" vertex="1" parent="ocNy2B_SOmaEHGy6fEzw-425">
          <mxGeometry x="280" y="105" width="20" height="20" as="geometry" />
        </mxCell>
        <mxCell id="ocNy2B_SOmaEHGy6fEzw-326" value="" style="rounded=0;whiteSpace=wrap;html=1;fillColor=#e3c800;fontColor=#000000;strokeColor=none;" vertex="1" parent="ocNy2B_SOmaEHGy6fEzw-425">
          <mxGeometry x="300" y="105" width="20" height="20" as="geometry" />
        </mxCell>
        <mxCell id="ocNy2B_SOmaEHGy6fEzw-327" value="" style="rounded=0;whiteSpace=wrap;html=1;fillColor=#FFFFFF;fontColor=#ffffff;strokeColor=none;" vertex="1" parent="ocNy2B_SOmaEHGy6fEzw-425">
          <mxGeometry x="320" y="105" width="20" height="20" as="geometry" />
        </mxCell>
        <mxCell id="ocNy2B_SOmaEHGy6fEzw-328" value="" style="rounded=0;whiteSpace=wrap;html=1;fillColor=#FFFFFF;fontColor=#ffffff;strokeColor=none;" vertex="1" parent="ocNy2B_SOmaEHGy6fEzw-425">
          <mxGeometry x="340" y="105" width="20" height="20" as="geometry" />
        </mxCell>
        <mxCell id="ocNy2B_SOmaEHGy6fEzw-329" value="" style="rounded=0;whiteSpace=wrap;html=1;fillColor=#FFFFFF;fontColor=#ffffff;strokeColor=none;" vertex="1" parent="ocNy2B_SOmaEHGy6fEzw-425">
          <mxGeometry x="360" y="105" width="20" height="20" as="geometry" />
        </mxCell>
        <mxCell id="ocNy2B_SOmaEHGy6fEzw-330" value="" style="rounded=0;whiteSpace=wrap;html=1;fillColor=#FFFFFF;fontColor=#ffffff;strokeColor=none;" vertex="1" parent="ocNy2B_SOmaEHGy6fEzw-425">
          <mxGeometry x="380" y="105" width="20" height="20" as="geometry" />
        </mxCell>
        <mxCell id="ocNy2B_SOmaEHGy6fEzw-331" value="" style="rounded=0;whiteSpace=wrap;html=1;fillColor=#FFFFFF;fontColor=#ffffff;strokeColor=none;" vertex="1" parent="ocNy2B_SOmaEHGy6fEzw-425">
          <mxGeometry x="400" y="105" width="20" height="20" as="geometry" />
        </mxCell>
        <mxCell id="ocNy2B_SOmaEHGy6fEzw-332" value="" style="rounded=0;whiteSpace=wrap;html=1;fillColor=#FFFFFF;fontColor=#ffffff;strokeColor=none;" vertex="1" parent="ocNy2B_SOmaEHGy6fEzw-425">
          <mxGeometry x="420" y="105" width="20" height="20" as="geometry" />
        </mxCell>
        <mxCell id="ocNy2B_SOmaEHGy6fEzw-333" value="" style="rounded=0;whiteSpace=wrap;html=1;fillColor=#FFFFFF;fontColor=#ffffff;strokeColor=none;" vertex="1" parent="ocNy2B_SOmaEHGy6fEzw-425">
          <mxGeometry x="440" y="105" width="20" height="20" as="geometry" />
        </mxCell>
        <mxCell id="ocNy2B_SOmaEHGy6fEzw-334" value="" style="rounded=0;whiteSpace=wrap;html=1;fillColor=#FFFFFF;fontColor=#ffffff;strokeColor=none;" vertex="1" parent="ocNy2B_SOmaEHGy6fEzw-425">
          <mxGeometry x="460" y="105" width="23" height="20" as="geometry" />
        </mxCell>
        <mxCell id="ocNy2B_SOmaEHGy6fEzw-335" value="" style="rounded=0;whiteSpace=wrap;html=1;fillColor=#e3c800;fontColor=#000000;strokeColor=none;" vertex="1" parent="ocNy2B_SOmaEHGy6fEzw-425">
          <mxGeometry x="82" y="106" width="20" height="20" as="geometry" />
        </mxCell>
        <mxCell id="ocNy2B_SOmaEHGy6fEzw-336" value="" style="rounded=0;whiteSpace=wrap;html=1;fillColor=#CCCC00;fontColor=#000000;strokeColor=none;" vertex="1" parent="ocNy2B_SOmaEHGy6fEzw-425">
          <mxGeometry x="101" y="106" width="21" height="20" as="geometry" />
        </mxCell>
        <mxCell id="ocNy2B_SOmaEHGy6fEzw-337" value="" style="rounded=0;whiteSpace=wrap;html=1;fillColor=#e3c800;fontColor=#000000;strokeColor=none;" vertex="1" parent="ocNy2B_SOmaEHGy6fEzw-425">
          <mxGeometry x="122" y="106" width="20" height="20" as="geometry" />
        </mxCell>
        <mxCell id="ocNy2B_SOmaEHGy6fEzw-338" value="" style="rounded=0;whiteSpace=wrap;html=1;fillColor=#FF8000;fontColor=#000000;strokeColor=none;" vertex="1" parent="ocNy2B_SOmaEHGy6fEzw-425">
          <mxGeometry x="142" y="106" width="20" height="20" as="geometry" />
        </mxCell>
        <mxCell id="ocNy2B_SOmaEHGy6fEzw-339" value="" style="rounded=0;whiteSpace=wrap;html=1;fillColor=#fa6800;fontColor=#000000;strokeColor=none;" vertex="1" parent="ocNy2B_SOmaEHGy6fEzw-425">
          <mxGeometry x="162" y="106" width="20" height="20" as="geometry" />
        </mxCell>
        <mxCell id="ocNy2B_SOmaEHGy6fEzw-340" value="" style="rounded=0;whiteSpace=wrap;html=1;fillColor=#331A00;fontColor=#000000;strokeColor=none;" vertex="1" parent="ocNy2B_SOmaEHGy6fEzw-425">
          <mxGeometry x="182" y="106" width="20" height="20" as="geometry" />
        </mxCell>
        <mxCell id="ocNy2B_SOmaEHGy6fEzw-341" value="" style="rounded=0;whiteSpace=wrap;html=1;fillColor=#FF9999;fontColor=#000000;strokeColor=none;" vertex="1" parent="ocNy2B_SOmaEHGy6fEzw-425">
          <mxGeometry x="202" y="106" width="20" height="20" as="geometry" />
        </mxCell>
        <mxCell id="ocNy2B_SOmaEHGy6fEzw-342" value="" style="rounded=0;whiteSpace=wrap;html=1;fillColor=#FF6666;fontColor=#000000;strokeColor=none;" vertex="1" parent="ocNy2B_SOmaEHGy6fEzw-425">
          <mxGeometry x="222" y="106" width="20" height="20" as="geometry" />
        </mxCell>
        <mxCell id="ocNy2B_SOmaEHGy6fEzw-343" value="" style="rounded=0;whiteSpace=wrap;html=1;fillColor=#e51400;fontColor=#ffffff;strokeColor=none;" vertex="1" parent="ocNy2B_SOmaEHGy6fEzw-425">
          <mxGeometry x="242" y="106" width="20" height="20" as="geometry" />
        </mxCell>
        <mxCell id="ocNy2B_SOmaEHGy6fEzw-344" value="" style="rounded=0;whiteSpace=wrap;html=1;fillColor=#FF6666;fontColor=#000000;strokeColor=none;" vertex="1" parent="ocNy2B_SOmaEHGy6fEzw-425">
          <mxGeometry x="261" y="106" width="20" height="20" as="geometry" />
        </mxCell>
        <mxCell id="ocNy2B_SOmaEHGy6fEzw-345" value="" style="rounded=0;whiteSpace=wrap;html=1;fillColor=#FF9999;fontColor=#000000;strokeColor=none;" vertex="1" parent="ocNy2B_SOmaEHGy6fEzw-425">
          <mxGeometry x="281" y="106" width="20" height="20" as="geometry" />
        </mxCell>
        <mxCell id="ocNy2B_SOmaEHGy6fEzw-346" value="" style="rounded=0;whiteSpace=wrap;html=1;fillColor=#e3c800;fontColor=#000000;strokeColor=none;" vertex="1" parent="ocNy2B_SOmaEHGy6fEzw-425">
          <mxGeometry x="301" y="106" width="20" height="20" as="geometry" />
        </mxCell>
        <mxCell id="ocNy2B_SOmaEHGy6fEzw-347" value="" style="rounded=0;whiteSpace=wrap;html=1;fillColor=#FFFFFF;fontColor=#ffffff;strokeColor=none;" vertex="1" parent="ocNy2B_SOmaEHGy6fEzw-425">
          <mxGeometry x="321" y="106" width="20" height="20" as="geometry" />
        </mxCell>
        <mxCell id="ocNy2B_SOmaEHGy6fEzw-348" value="" style="rounded=0;whiteSpace=wrap;html=1;fillColor=#FFFFFF;fontColor=#ffffff;strokeColor=none;" vertex="1" parent="ocNy2B_SOmaEHGy6fEzw-425">
          <mxGeometry x="341" y="106" width="20" height="20" as="geometry" />
        </mxCell>
        <mxCell id="ocNy2B_SOmaEHGy6fEzw-349" value="" style="rounded=0;whiteSpace=wrap;html=1;fillColor=#FFFFFF;fontColor=#ffffff;strokeColor=none;" vertex="1" parent="ocNy2B_SOmaEHGy6fEzw-425">
          <mxGeometry x="361" y="106" width="20" height="20" as="geometry" />
        </mxCell>
        <mxCell id="ocNy2B_SOmaEHGy6fEzw-350" value="" style="rounded=0;whiteSpace=wrap;html=1;fillColor=#FFFFFF;fontColor=#ffffff;strokeColor=none;" vertex="1" parent="ocNy2B_SOmaEHGy6fEzw-425">
          <mxGeometry x="381" y="106" width="20" height="20" as="geometry" />
        </mxCell>
        <mxCell id="ocNy2B_SOmaEHGy6fEzw-351" value="" style="rounded=0;whiteSpace=wrap;html=1;fillColor=#FFFFFF;fontColor=#ffffff;strokeColor=none;" vertex="1" parent="ocNy2B_SOmaEHGy6fEzw-425">
          <mxGeometry x="401" y="106" width="20" height="20" as="geometry" />
        </mxCell>
        <mxCell id="ocNy2B_SOmaEHGy6fEzw-352" value="" style="rounded=0;whiteSpace=wrap;html=1;fillColor=#FFFFFF;fontColor=#ffffff;strokeColor=none;" vertex="1" parent="ocNy2B_SOmaEHGy6fEzw-425">
          <mxGeometry x="421" y="106" width="20" height="20" as="geometry" />
        </mxCell>
        <mxCell id="ocNy2B_SOmaEHGy6fEzw-353" value="" style="rounded=0;whiteSpace=wrap;html=1;fillColor=#FFFFFF;fontColor=#ffffff;strokeColor=none;" vertex="1" parent="ocNy2B_SOmaEHGy6fEzw-425">
          <mxGeometry x="441" y="106" width="20" height="20" as="geometry" />
        </mxCell>
        <mxCell id="ocNy2B_SOmaEHGy6fEzw-354" value="" style="rounded=0;whiteSpace=wrap;html=1;fillColor=#FFFFFF;fontColor=#ffffff;strokeColor=none;" vertex="1" parent="ocNy2B_SOmaEHGy6fEzw-425">
          <mxGeometry x="461" y="106" width="23" height="20" as="geometry" />
        </mxCell>
        <mxCell id="ocNy2B_SOmaEHGy6fEzw-355" value="" style="rounded=0;whiteSpace=wrap;html=1;fillColor=#e3c800;fontColor=#000000;strokeColor=none;" vertex="1" parent="ocNy2B_SOmaEHGy6fEzw-425">
          <mxGeometry x="79" y="145" width="20" height="20" as="geometry" />
        </mxCell>
        <mxCell id="ocNy2B_SOmaEHGy6fEzw-356" value="" style="rounded=0;whiteSpace=wrap;html=1;fillColor=#CCCC00;fontColor=#000000;strokeColor=none;" vertex="1" parent="ocNy2B_SOmaEHGy6fEzw-425">
          <mxGeometry x="99" y="145" width="20" height="20" as="geometry" />
        </mxCell>
        <mxCell id="ocNy2B_SOmaEHGy6fEzw-357" value="" style="rounded=0;whiteSpace=wrap;html=1;fillColor=#e3c800;fontColor=#000000;strokeColor=none;" vertex="1" parent="ocNy2B_SOmaEHGy6fEzw-425">
          <mxGeometry x="119" y="145" width="20" height="20" as="geometry" />
        </mxCell>
        <mxCell id="ocNy2B_SOmaEHGy6fEzw-358" value="" style="rounded=0;whiteSpace=wrap;html=1;fillColor=#FF8000;fontColor=#000000;strokeColor=none;" vertex="1" parent="ocNy2B_SOmaEHGy6fEzw-425">
          <mxGeometry x="139" y="145" width="20" height="20" as="geometry" />
        </mxCell>
        <mxCell id="ocNy2B_SOmaEHGy6fEzw-359" value="" style="rounded=0;whiteSpace=wrap;html=1;fillColor=#fa6800;fontColor=#000000;strokeColor=none;" vertex="1" parent="ocNy2B_SOmaEHGy6fEzw-425">
          <mxGeometry x="159" y="145" width="20" height="20" as="geometry" />
        </mxCell>
        <mxCell id="ocNy2B_SOmaEHGy6fEzw-360" value="" style="rounded=0;whiteSpace=wrap;html=1;fillColor=#331A00;fontColor=#000000;strokeColor=none;" vertex="1" parent="ocNy2B_SOmaEHGy6fEzw-425">
          <mxGeometry x="179" y="145" width="20" height="20" as="geometry" />
        </mxCell>
        <mxCell id="ocNy2B_SOmaEHGy6fEzw-361" value="" style="rounded=0;whiteSpace=wrap;html=1;fillColor=#FF9999;fontColor=#000000;strokeColor=none;" vertex="1" parent="ocNy2B_SOmaEHGy6fEzw-425">
          <mxGeometry x="199" y="145" width="20" height="20" as="geometry" />
        </mxCell>
        <mxCell id="ocNy2B_SOmaEHGy6fEzw-362" value="" style="rounded=0;whiteSpace=wrap;html=1;fillColor=#FF6666;fontColor=#000000;strokeColor=none;" vertex="1" parent="ocNy2B_SOmaEHGy6fEzw-425">
          <mxGeometry x="219" y="145" width="20" height="20" as="geometry" />
        </mxCell>
        <mxCell id="ocNy2B_SOmaEHGy6fEzw-363" value="" style="rounded=0;whiteSpace=wrap;html=1;fillColor=#e51400;fontColor=#ffffff;strokeColor=none;" vertex="1" parent="ocNy2B_SOmaEHGy6fEzw-425">
          <mxGeometry x="239" y="145" width="20" height="20" as="geometry" />
        </mxCell>
        <mxCell id="ocNy2B_SOmaEHGy6fEzw-364" value="" style="rounded=0;whiteSpace=wrap;html=1;fillColor=#FF6666;fontColor=#000000;strokeColor=none;" vertex="1" parent="ocNy2B_SOmaEHGy6fEzw-425">
          <mxGeometry x="258" y="145" width="20" height="20" as="geometry" />
        </mxCell>
        <mxCell id="ocNy2B_SOmaEHGy6fEzw-365" value="" style="rounded=0;whiteSpace=wrap;html=1;fillColor=#FF9999;fontColor=#000000;strokeColor=none;" vertex="1" parent="ocNy2B_SOmaEHGy6fEzw-425">
          <mxGeometry x="278" y="145" width="20" height="20" as="geometry" />
        </mxCell>
        <mxCell id="ocNy2B_SOmaEHGy6fEzw-366" value="" style="rounded=0;whiteSpace=wrap;html=1;fillColor=#e3c800;fontColor=#000000;strokeColor=none;" vertex="1" parent="ocNy2B_SOmaEHGy6fEzw-425">
          <mxGeometry x="298" y="145" width="20" height="20" as="geometry" />
        </mxCell>
        <mxCell id="ocNy2B_SOmaEHGy6fEzw-367" value="" style="rounded=0;whiteSpace=wrap;html=1;fillColor=#FFFFFF;fontColor=#ffffff;strokeColor=none;" vertex="1" parent="ocNy2B_SOmaEHGy6fEzw-425">
          <mxGeometry x="318" y="145" width="20" height="20" as="geometry" />
        </mxCell>
        <mxCell id="ocNy2B_SOmaEHGy6fEzw-368" value="" style="rounded=0;whiteSpace=wrap;html=1;fillColor=#FFFFFF;fontColor=#ffffff;strokeColor=none;" vertex="1" parent="ocNy2B_SOmaEHGy6fEzw-425">
          <mxGeometry x="338" y="145" width="20" height="20" as="geometry" />
        </mxCell>
        <mxCell id="ocNy2B_SOmaEHGy6fEzw-369" value="" style="rounded=0;whiteSpace=wrap;html=1;fillColor=#FFFFFF;fontColor=#ffffff;strokeColor=none;" vertex="1" parent="ocNy2B_SOmaEHGy6fEzw-425">
          <mxGeometry x="358" y="145" width="20" height="20" as="geometry" />
        </mxCell>
        <mxCell id="ocNy2B_SOmaEHGy6fEzw-370" value="" style="rounded=0;whiteSpace=wrap;html=1;fillColor=#FFFFFF;fontColor=#ffffff;strokeColor=none;" vertex="1" parent="ocNy2B_SOmaEHGy6fEzw-425">
          <mxGeometry x="378" y="145" width="20" height="20" as="geometry" />
        </mxCell>
        <mxCell id="ocNy2B_SOmaEHGy6fEzw-371" value="" style="rounded=0;whiteSpace=wrap;html=1;fillColor=#FFFFFF;fontColor=#ffffff;strokeColor=none;" vertex="1" parent="ocNy2B_SOmaEHGy6fEzw-425">
          <mxGeometry x="398" y="145" width="20" height="20" as="geometry" />
        </mxCell>
        <mxCell id="ocNy2B_SOmaEHGy6fEzw-372" value="" style="rounded=0;whiteSpace=wrap;html=1;fillColor=#FFFFFF;fontColor=#ffffff;strokeColor=none;" vertex="1" parent="ocNy2B_SOmaEHGy6fEzw-425">
          <mxGeometry x="418" y="145" width="20" height="20" as="geometry" />
        </mxCell>
        <mxCell id="ocNy2B_SOmaEHGy6fEzw-373" value="" style="rounded=0;whiteSpace=wrap;html=1;fillColor=#FFFFFF;fontColor=#ffffff;strokeColor=none;" vertex="1" parent="ocNy2B_SOmaEHGy6fEzw-425">
          <mxGeometry x="438" y="145" width="20" height="20" as="geometry" />
        </mxCell>
        <mxCell id="ocNy2B_SOmaEHGy6fEzw-374" value="" style="rounded=0;whiteSpace=wrap;html=1;fillColor=#FFFFFF;fontColor=#ffffff;strokeColor=none;" vertex="1" parent="ocNy2B_SOmaEHGy6fEzw-425">
          <mxGeometry x="458" y="145" width="23" height="20" as="geometry" />
        </mxCell>
        <mxCell id="ocNy2B_SOmaEHGy6fEzw-375" value="" style="rounded=0;whiteSpace=wrap;html=1;fillColor=#e3c800;fontColor=#000000;strokeColor=none;" vertex="1" parent="ocNy2B_SOmaEHGy6fEzw-425">
          <mxGeometry x="80" y="146" width="20" height="20" as="geometry" />
        </mxCell>
        <mxCell id="ocNy2B_SOmaEHGy6fEzw-376" value="" style="rounded=0;whiteSpace=wrap;html=1;fillColor=#CCCC00;fontColor=#000000;strokeColor=none;" vertex="1" parent="ocNy2B_SOmaEHGy6fEzw-425">
          <mxGeometry x="99" y="146" width="21" height="20" as="geometry" />
        </mxCell>
        <mxCell id="ocNy2B_SOmaEHGy6fEzw-377" value="" style="rounded=0;whiteSpace=wrap;html=1;fillColor=#e3c800;fontColor=#000000;strokeColor=none;" vertex="1" parent="ocNy2B_SOmaEHGy6fEzw-425">
          <mxGeometry x="120" y="146" width="20" height="20" as="geometry" />
        </mxCell>
        <mxCell id="ocNy2B_SOmaEHGy6fEzw-378" value="" style="rounded=0;whiteSpace=wrap;html=1;fillColor=#FF8000;fontColor=#000000;strokeColor=none;" vertex="1" parent="ocNy2B_SOmaEHGy6fEzw-425">
          <mxGeometry x="140" y="146" width="20" height="20" as="geometry" />
        </mxCell>
        <mxCell id="ocNy2B_SOmaEHGy6fEzw-379" value="" style="rounded=0;whiteSpace=wrap;html=1;fillColor=#fa6800;fontColor=#000000;strokeColor=none;" vertex="1" parent="ocNy2B_SOmaEHGy6fEzw-425">
          <mxGeometry x="160" y="146" width="20" height="20" as="geometry" />
        </mxCell>
        <mxCell id="ocNy2B_SOmaEHGy6fEzw-380" value="" style="rounded=0;whiteSpace=wrap;html=1;fillColor=#331A00;fontColor=#000000;strokeColor=none;" vertex="1" parent="ocNy2B_SOmaEHGy6fEzw-425">
          <mxGeometry x="180" y="146" width="20" height="20" as="geometry" />
        </mxCell>
        <mxCell id="ocNy2B_SOmaEHGy6fEzw-381" value="" style="rounded=0;whiteSpace=wrap;html=1;fillColor=#FF9999;fontColor=#000000;strokeColor=none;" vertex="1" parent="ocNy2B_SOmaEHGy6fEzw-425">
          <mxGeometry x="200" y="146" width="20" height="20" as="geometry" />
        </mxCell>
        <mxCell id="ocNy2B_SOmaEHGy6fEzw-382" value="" style="rounded=0;whiteSpace=wrap;html=1;fillColor=#FF6666;fontColor=#000000;strokeColor=none;" vertex="1" parent="ocNy2B_SOmaEHGy6fEzw-425">
          <mxGeometry x="220" y="146" width="20" height="20" as="geometry" />
        </mxCell>
        <mxCell id="ocNy2B_SOmaEHGy6fEzw-383" value="" style="rounded=0;whiteSpace=wrap;html=1;fillColor=#e51400;fontColor=#ffffff;strokeColor=none;" vertex="1" parent="ocNy2B_SOmaEHGy6fEzw-425">
          <mxGeometry x="240" y="146" width="20" height="20" as="geometry" />
        </mxCell>
        <mxCell id="ocNy2B_SOmaEHGy6fEzw-384" value="" style="rounded=0;whiteSpace=wrap;html=1;fillColor=#FF6666;fontColor=#000000;strokeColor=none;" vertex="1" parent="ocNy2B_SOmaEHGy6fEzw-425">
          <mxGeometry x="259" y="146" width="20" height="20" as="geometry" />
        </mxCell>
        <mxCell id="ocNy2B_SOmaEHGy6fEzw-385" value="" style="rounded=0;whiteSpace=wrap;html=1;fillColor=#FF9999;fontColor=#000000;strokeColor=none;" vertex="1" parent="ocNy2B_SOmaEHGy6fEzw-425">
          <mxGeometry x="279" y="146" width="20" height="20" as="geometry" />
        </mxCell>
        <mxCell id="ocNy2B_SOmaEHGy6fEzw-386" value="" style="rounded=0;whiteSpace=wrap;html=1;fillColor=#e3c800;fontColor=#000000;strokeColor=none;" vertex="1" parent="ocNy2B_SOmaEHGy6fEzw-425">
          <mxGeometry x="299" y="146" width="20" height="20" as="geometry" />
        </mxCell>
        <mxCell id="ocNy2B_SOmaEHGy6fEzw-387" value="" style="rounded=0;whiteSpace=wrap;html=1;fillColor=#FFFFFF;fontColor=#ffffff;strokeColor=none;" vertex="1" parent="ocNy2B_SOmaEHGy6fEzw-425">
          <mxGeometry x="319" y="146" width="20" height="20" as="geometry" />
        </mxCell>
        <mxCell id="ocNy2B_SOmaEHGy6fEzw-388" value="" style="rounded=0;whiteSpace=wrap;html=1;fillColor=#FFFFFF;fontColor=#ffffff;strokeColor=none;" vertex="1" parent="ocNy2B_SOmaEHGy6fEzw-425">
          <mxGeometry x="339" y="146" width="20" height="20" as="geometry" />
        </mxCell>
        <mxCell id="ocNy2B_SOmaEHGy6fEzw-389" value="" style="rounded=0;whiteSpace=wrap;html=1;fillColor=#FFFFFF;fontColor=#ffffff;strokeColor=none;" vertex="1" parent="ocNy2B_SOmaEHGy6fEzw-425">
          <mxGeometry x="359" y="146" width="20" height="20" as="geometry" />
        </mxCell>
        <mxCell id="ocNy2B_SOmaEHGy6fEzw-390" value="" style="rounded=0;whiteSpace=wrap;html=1;fillColor=#FFFFFF;fontColor=#ffffff;strokeColor=none;" vertex="1" parent="ocNy2B_SOmaEHGy6fEzw-425">
          <mxGeometry x="379" y="146" width="20" height="20" as="geometry" />
        </mxCell>
        <mxCell id="ocNy2B_SOmaEHGy6fEzw-391" value="" style="rounded=0;whiteSpace=wrap;html=1;fillColor=#FFFFFF;fontColor=#ffffff;strokeColor=none;" vertex="1" parent="ocNy2B_SOmaEHGy6fEzw-425">
          <mxGeometry x="399" y="146" width="20" height="20" as="geometry" />
        </mxCell>
        <mxCell id="ocNy2B_SOmaEHGy6fEzw-392" value="" style="rounded=0;whiteSpace=wrap;html=1;fillColor=#FFFFFF;fontColor=#ffffff;strokeColor=none;" vertex="1" parent="ocNy2B_SOmaEHGy6fEzw-425">
          <mxGeometry x="419" y="146" width="20" height="20" as="geometry" />
        </mxCell>
        <mxCell id="ocNy2B_SOmaEHGy6fEzw-393" value="" style="rounded=0;whiteSpace=wrap;html=1;fillColor=#FFFFFF;fontColor=#ffffff;strokeColor=none;" vertex="1" parent="ocNy2B_SOmaEHGy6fEzw-425">
          <mxGeometry x="439" y="146" width="20" height="20" as="geometry" />
        </mxCell>
        <mxCell id="ocNy2B_SOmaEHGy6fEzw-394" value="" style="rounded=0;whiteSpace=wrap;html=1;fillColor=#FFFFFF;fontColor=#ffffff;strokeColor=none;" vertex="1" parent="ocNy2B_SOmaEHGy6fEzw-425">
          <mxGeometry x="459" y="146" width="23" height="20" as="geometry" />
        </mxCell>
        <mxCell id="ocNy2B_SOmaEHGy6fEzw-426" value="" style="group" vertex="1" connectable="0" parent="1">
          <mxGeometry x="41" y="370" width="480" height="230" as="geometry" />
        </mxCell>
        <mxCell id="ocNy2B_SOmaEHGy6fEzw-28" value="&lt;b&gt;/top/DUT Port Heat Map&lt;/b&gt;" style="text;html=1;strokeColor=none;fillColor=none;align=center;verticalAlign=middle;whiteSpace=wrap;rounded=0;" vertex="1" parent="ocNy2B_SOmaEHGy6fEzw-426">
          <mxGeometry x="150" width="150" height="17.77777777777778" as="geometry" />
        </mxCell>
        <mxCell id="ocNy2B_SOmaEHGy6fEzw-51" value="Top Ports" style="rounded=0;whiteSpace=wrap;html=1;align=center;" vertex="1" parent="ocNy2B_SOmaEHGy6fEzw-426">
          <mxGeometry y="30" width="80" height="20" as="geometry" />
        </mxCell>
        <mxCell id="ocNy2B_SOmaEHGy6fEzw-52" value="clk_i" style="rounded=0;whiteSpace=wrap;html=1;align=center;" vertex="1" parent="ocNy2B_SOmaEHGy6fEzw-426">
          <mxGeometry x="80" y="30" width="80" height="20" as="geometry" />
        </mxCell>
        <mxCell id="ocNy2B_SOmaEHGy6fEzw-53" value="rst_n_i" style="rounded=0;whiteSpace=wrap;html=1;align=center;" vertex="1" parent="ocNy2B_SOmaEHGy6fEzw-426">
          <mxGeometry x="160" y="30" width="80" height="20" as="geometry" />
        </mxCell>
        <mxCell id="ocNy2B_SOmaEHGy6fEzw-54" value="input_1_i" style="rounded=0;whiteSpace=wrap;html=1;align=center;" vertex="1" parent="ocNy2B_SOmaEHGy6fEzw-426">
          <mxGeometry x="240" y="30" width="80" height="20" as="geometry" />
        </mxCell>
        <mxCell id="ocNy2B_SOmaEHGy6fEzw-55" value="input_2_i" style="rounded=0;whiteSpace=wrap;html=1;align=center;" vertex="1" parent="ocNy2B_SOmaEHGy6fEzw-426">
          <mxGeometry x="320" y="30" width="80" height="20" as="geometry" />
        </mxCell>
        <mxCell id="ocNy2B_SOmaEHGy6fEzw-56" value="input_3_i" style="rounded=0;whiteSpace=wrap;html=1;align=center;" vertex="1" parent="ocNy2B_SOmaEHGy6fEzw-426">
          <mxGeometry x="400" y="30" width="80" height="20" as="geometry" />
        </mxCell>
        <mxCell id="ocNy2B_SOmaEHGy6fEzw-62" value="" style="rounded=0;whiteSpace=wrap;html=1;" vertex="1" parent="ocNy2B_SOmaEHGy6fEzw-426">
          <mxGeometry x="85" y="50" width="395" height="30" as="geometry" />
        </mxCell>
        <mxCell id="ocNy2B_SOmaEHGy6fEzw-58" value="" style="rounded=0;whiteSpace=wrap;html=1;fillColor=#f0a30a;fontColor=#000000;strokeColor=#BD7000;" vertex="1" parent="ocNy2B_SOmaEHGy6fEzw-426">
          <mxGeometry x="160" y="50" width="80" height="30" as="geometry" />
        </mxCell>
        <mxCell id="ocNy2B_SOmaEHGy6fEzw-57" value="" style="rounded=0;whiteSpace=wrap;html=1;fillColor=#fff2cc;strokeColor=#d6b656;" vertex="1" parent="ocNy2B_SOmaEHGy6fEzw-426">
          <mxGeometry x="80" y="50" width="80" height="30" as="geometry" />
        </mxCell>
        <mxCell id="ocNy2B_SOmaEHGy6fEzw-59" value="" style="rounded=0;whiteSpace=wrap;html=1;fillColor=#e51400;fontColor=#ffffff;strokeColor=#B20000;" vertex="1" parent="ocNy2B_SOmaEHGy6fEzw-426">
          <mxGeometry x="240" y="50" width="80" height="30" as="geometry" />
        </mxCell>
        <mxCell id="ocNy2B_SOmaEHGy6fEzw-61" value="" style="rounded=0;whiteSpace=wrap;html=1;fillColor=#fad9d5;strokeColor=#ae4132;" vertex="1" parent="ocNy2B_SOmaEHGy6fEzw-426">
          <mxGeometry x="400" y="50" width="80" height="30" as="geometry" />
        </mxCell>
        <mxCell id="ocNy2B_SOmaEHGy6fEzw-63" value="Module A" style="rounded=0;whiteSpace=wrap;html=1;align=center;" vertex="1" parent="ocNy2B_SOmaEHGy6fEzw-426">
          <mxGeometry y="80" width="80" height="20" as="geometry" />
        </mxCell>
        <mxCell id="ocNy2B_SOmaEHGy6fEzw-64" value="clk_i" style="rounded=0;whiteSpace=wrap;html=1;align=center;" vertex="1" parent="ocNy2B_SOmaEHGy6fEzw-426">
          <mxGeometry x="80" y="80" width="80" height="20" as="geometry" />
        </mxCell>
        <mxCell id="ocNy2B_SOmaEHGy6fEzw-65" value="rst_n_i" style="rounded=0;whiteSpace=wrap;html=1;align=center;" vertex="1" parent="ocNy2B_SOmaEHGy6fEzw-426">
          <mxGeometry x="160" y="80" width="80" height="20" as="geometry" />
        </mxCell>
        <mxCell id="ocNy2B_SOmaEHGy6fEzw-66" value="input_1_i" style="rounded=0;whiteSpace=wrap;html=1;align=center;" vertex="1" parent="ocNy2B_SOmaEHGy6fEzw-426">
          <mxGeometry x="240" y="80" width="80" height="20" as="geometry" />
        </mxCell>
        <mxCell id="ocNy2B_SOmaEHGy6fEzw-69" value="" style="rounded=0;whiteSpace=wrap;html=1;" vertex="1" parent="ocNy2B_SOmaEHGy6fEzw-426">
          <mxGeometry x="85" y="100" width="235" height="30" as="geometry" />
        </mxCell>
        <mxCell id="ocNy2B_SOmaEHGy6fEzw-70" value="" style="rounded=0;whiteSpace=wrap;html=1;fillColor=#f0a30a;fontColor=#000000;strokeColor=#BD7000;" vertex="1" parent="ocNy2B_SOmaEHGy6fEzw-426">
          <mxGeometry x="160" y="100" width="80" height="30" as="geometry" />
        </mxCell>
        <mxCell id="ocNy2B_SOmaEHGy6fEzw-71" value="" style="rounded=0;whiteSpace=wrap;html=1;fillColor=#fff2cc;strokeColor=#d6b656;" vertex="1" parent="ocNy2B_SOmaEHGy6fEzw-426">
          <mxGeometry x="80" y="100" width="80" height="30" as="geometry" />
        </mxCell>
        <mxCell id="ocNy2B_SOmaEHGy6fEzw-72" value="" style="rounded=0;whiteSpace=wrap;html=1;fillColor=#e51400;fontColor=#ffffff;strokeColor=#B20000;" vertex="1" parent="ocNy2B_SOmaEHGy6fEzw-426">
          <mxGeometry x="240" y="100" width="80" height="30" as="geometry" />
        </mxCell>
        <mxCell id="ocNy2B_SOmaEHGy6fEzw-74" value="Module B" style="rounded=0;whiteSpace=wrap;html=1;align=center;" vertex="1" parent="ocNy2B_SOmaEHGy6fEzw-426">
          <mxGeometry y="130" width="80" height="20" as="geometry" />
        </mxCell>
        <mxCell id="ocNy2B_SOmaEHGy6fEzw-75" value="clk_i" style="rounded=0;whiteSpace=wrap;html=1;align=center;" vertex="1" parent="ocNy2B_SOmaEHGy6fEzw-426">
          <mxGeometry x="80" y="130" width="80" height="20" as="geometry" />
        </mxCell>
        <mxCell id="ocNy2B_SOmaEHGy6fEzw-76" value="rst_n_i" style="rounded=0;whiteSpace=wrap;html=1;align=center;" vertex="1" parent="ocNy2B_SOmaEHGy6fEzw-426">
          <mxGeometry x="160" y="130" width="80" height="20" as="geometry" />
        </mxCell>
        <mxCell id="ocNy2B_SOmaEHGy6fEzw-77" value="input_1_i" style="rounded=0;whiteSpace=wrap;html=1;align=center;" vertex="1" parent="ocNy2B_SOmaEHGy6fEzw-426">
          <mxGeometry x="240" y="130" width="80" height="20" as="geometry" />
        </mxCell>
        <mxCell id="ocNy2B_SOmaEHGy6fEzw-78" value="" style="rounded=0;whiteSpace=wrap;html=1;" vertex="1" parent="ocNy2B_SOmaEHGy6fEzw-426">
          <mxGeometry x="85" y="150" width="235" height="30" as="geometry" />
        </mxCell>
        <mxCell id="ocNy2B_SOmaEHGy6fEzw-79" value="" style="rounded=0;whiteSpace=wrap;html=1;fillColor=#f0a30a;fontColor=#000000;strokeColor=#BD7000;" vertex="1" parent="ocNy2B_SOmaEHGy6fEzw-426">
          <mxGeometry x="160" y="150" width="80" height="30" as="geometry" />
        </mxCell>
        <mxCell id="ocNy2B_SOmaEHGy6fEzw-80" value="" style="rounded=0;whiteSpace=wrap;html=1;fillColor=#fff2cc;strokeColor=#d6b656;" vertex="1" parent="ocNy2B_SOmaEHGy6fEzw-426">
          <mxGeometry x="80" y="150" width="80" height="30" as="geometry" />
        </mxCell>
        <mxCell id="ocNy2B_SOmaEHGy6fEzw-81" value="" style="rounded=0;whiteSpace=wrap;html=1;fillColor=#e51400;fontColor=#ffffff;strokeColor=#B20000;" vertex="1" parent="ocNy2B_SOmaEHGy6fEzw-426">
          <mxGeometry x="240" y="150" width="80" height="30" as="geometry" />
        </mxCell>
        <mxCell id="ocNy2B_SOmaEHGy6fEzw-84" value="" style="rounded=0;whiteSpace=wrap;html=1;" vertex="1" parent="ocNy2B_SOmaEHGy6fEzw-426">
          <mxGeometry x="155" y="210" width="150" height="20" as="geometry" />
        </mxCell>
        <mxCell id="ocNy2B_SOmaEHGy6fEzw-85" value="Time" style="rounded=0;whiteSpace=wrap;html=1;align=left;" vertex="1" parent="ocNy2B_SOmaEHGy6fEzw-426">
          <mxGeometry x="215" y="210" width="40" height="20" as="geometry" />
        </mxCell>
        <mxCell id="ocNy2B_SOmaEHGy6fEzw-88" value="Play" style="rounded=0;whiteSpace=wrap;html=1;" vertex="1" parent="ocNy2B_SOmaEHGy6fEzw-426">
          <mxGeometry x="155" y="210" width="60" height="20" as="geometry" />
        </mxCell>
        <mxCell id="ocNy2B_SOmaEHGy6fEzw-90" value="100ps" style="rounded=0;whiteSpace=wrap;html=1;" vertex="1" parent="ocNy2B_SOmaEHGy6fEzw-426">
          <mxGeometry x="255" y="210" width="50" height="20" as="geometry" />
        </mxCell>
        <mxCell id="ocNy2B_SOmaEHGy6fEzw-91" value="" style="rounded=0;whiteSpace=wrap;html=1;" vertex="1" parent="ocNy2B_SOmaEHGy6fEzw-426">
          <mxGeometry y="190" width="480" height="10" as="geometry" />
        </mxCell>
        <mxCell id="ocNy2B_SOmaEHGy6fEzw-94" value="" style="rounded=0;whiteSpace=wrap;html=1;fillColor=#6d8764;fontColor=#ffffff;strokeColor=#3A5431;" vertex="1" parent="ocNy2B_SOmaEHGy6fEzw-426">
          <mxGeometry x="40" y="190" width="10" height="10" as="geometry" />
        </mxCell>
      </root>
    </mxGraphModel>
  </diagram>
  <diagram name="Coverage Map" id="59GI0FrFRoX82MUo-Zey">
    <mxGraphModel dx="952" dy="649" grid="1" gridSize="1" guides="1" tooltips="1" connect="1" arrows="1" fold="1" page="1" pageScale="1" pageWidth="850" pageHeight="1100" math="0" shadow="0">
      <root>
        <mxCell id="JjWKAUgTpPJknrSIF9CD-0" />
        <mxCell id="JjWKAUgTpPJknrSIF9CD-1" parent="JjWKAUgTpPJknrSIF9CD-0" />
        <mxCell id="JjWKAUgTpPJknrSIF9CD-314" value="&lt;b&gt;/top/DUT Port Coverage Progression&lt;/b&gt;" style="text;html=1;strokeColor=none;fillColor=none;align=center;verticalAlign=middle;whiteSpace=wrap;rounded=0;container=0;" vertex="1" parent="JjWKAUgTpPJknrSIF9CD-1">
          <mxGeometry x="191" y="370" width="222" height="17.78" as="geometry" />
        </mxCell>
        <mxCell id="JjWKAUgTpPJknrSIF9CD-315" value="Top Ports" style="rounded=0;whiteSpace=wrap;html=1;align=center;container=0;" vertex="1" parent="JjWKAUgTpPJknrSIF9CD-1">
          <mxGeometry x="41" y="400" width="80" height="20" as="geometry" />
        </mxCell>
        <mxCell id="JjWKAUgTpPJknrSIF9CD-316" value="clk_i" style="rounded=0;whiteSpace=wrap;html=1;align=center;container=0;" vertex="1" parent="JjWKAUgTpPJknrSIF9CD-1">
          <mxGeometry x="121" y="400" width="80" height="20" as="geometry" />
        </mxCell>
        <mxCell id="JjWKAUgTpPJknrSIF9CD-317" value="rst_n_i" style="rounded=0;whiteSpace=wrap;html=1;align=center;container=0;" vertex="1" parent="JjWKAUgTpPJknrSIF9CD-1">
          <mxGeometry x="201" y="400" width="80" height="20" as="geometry" />
        </mxCell>
        <mxCell id="JjWKAUgTpPJknrSIF9CD-318" value="input_1_i" style="rounded=0;whiteSpace=wrap;html=1;align=center;container=0;" vertex="1" parent="JjWKAUgTpPJknrSIF9CD-1">
          <mxGeometry x="281" y="400" width="80" height="20" as="geometry" />
        </mxCell>
        <mxCell id="JjWKAUgTpPJknrSIF9CD-319" value="input_2_i" style="rounded=0;whiteSpace=wrap;html=1;align=center;container=0;" vertex="1" parent="JjWKAUgTpPJknrSIF9CD-1">
          <mxGeometry x="361" y="400" width="80" height="20" as="geometry" />
        </mxCell>
        <mxCell id="JjWKAUgTpPJknrSIF9CD-320" value="input_3_i" style="rounded=0;whiteSpace=wrap;html=1;align=center;container=0;" vertex="1" parent="JjWKAUgTpPJknrSIF9CD-1">
          <mxGeometry x="441" y="400" width="80" height="20" as="geometry" />
        </mxCell>
        <mxCell id="JjWKAUgTpPJknrSIF9CD-326" value="Module A" style="rounded=0;whiteSpace=wrap;html=1;align=center;container=0;" vertex="1" parent="JjWKAUgTpPJknrSIF9CD-1">
          <mxGeometry x="41" y="450" width="80" height="20" as="geometry" />
        </mxCell>
        <mxCell id="JjWKAUgTpPJknrSIF9CD-327" value="clk_i" style="rounded=0;whiteSpace=wrap;html=1;align=center;container=0;" vertex="1" parent="JjWKAUgTpPJknrSIF9CD-1">
          <mxGeometry x="121" y="450" width="80" height="20" as="geometry" />
        </mxCell>
        <mxCell id="JjWKAUgTpPJknrSIF9CD-328" value="rst_n_i" style="rounded=0;whiteSpace=wrap;html=1;align=center;container=0;" vertex="1" parent="JjWKAUgTpPJknrSIF9CD-1">
          <mxGeometry x="201" y="450" width="80" height="20" as="geometry" />
        </mxCell>
        <mxCell id="JjWKAUgTpPJknrSIF9CD-329" value="input_1_i" style="rounded=0;whiteSpace=wrap;html=1;align=center;container=0;" vertex="1" parent="JjWKAUgTpPJknrSIF9CD-1">
          <mxGeometry x="281" y="450" width="80" height="20" as="geometry" />
        </mxCell>
        <mxCell id="JjWKAUgTpPJknrSIF9CD-330" value="" style="rounded=0;whiteSpace=wrap;html=1;container=0;" vertex="1" parent="JjWKAUgTpPJknrSIF9CD-1">
          <mxGeometry x="121" y="470" width="240" height="30" as="geometry" />
        </mxCell>
        <mxCell id="JjWKAUgTpPJknrSIF9CD-334" value="Module B" style="rounded=0;whiteSpace=wrap;html=1;align=center;container=0;" vertex="1" parent="JjWKAUgTpPJknrSIF9CD-1">
          <mxGeometry x="41" y="500" width="80" height="20" as="geometry" />
        </mxCell>
        <mxCell id="JjWKAUgTpPJknrSIF9CD-335" value="clk_i" style="rounded=0;whiteSpace=wrap;html=1;align=center;container=0;" vertex="1" parent="JjWKAUgTpPJknrSIF9CD-1">
          <mxGeometry x="121" y="500" width="80" height="20" as="geometry" />
        </mxCell>
        <mxCell id="JjWKAUgTpPJknrSIF9CD-336" value="rst_n_i" style="rounded=0;whiteSpace=wrap;html=1;align=center;container=0;" vertex="1" parent="JjWKAUgTpPJknrSIF9CD-1">
          <mxGeometry x="201" y="500" width="80" height="20" as="geometry" />
        </mxCell>
        <mxCell id="JjWKAUgTpPJknrSIF9CD-337" value="input_1_i" style="rounded=0;whiteSpace=wrap;html=1;align=center;container=0;" vertex="1" parent="JjWKAUgTpPJknrSIF9CD-1">
          <mxGeometry x="281" y="500" width="80" height="20" as="geometry" />
        </mxCell>
        <mxCell id="JjWKAUgTpPJknrSIF9CD-338" value="" style="rounded=0;whiteSpace=wrap;html=1;container=0;" vertex="1" parent="JjWKAUgTpPJknrSIF9CD-1">
          <mxGeometry x="120" y="520" width="241" height="30" as="geometry" />
        </mxCell>
        <mxCell id="JjWKAUgTpPJknrSIF9CD-339" value="" style="rounded=0;whiteSpace=wrap;html=1;fillColor=none;fontColor=#000000;strokeColor=#F0F0F0;container=0;" vertex="1" parent="JjWKAUgTpPJknrSIF9CD-1">
          <mxGeometry x="201" y="520" width="80" height="30" as="geometry" />
        </mxCell>
        <mxCell id="JjWKAUgTpPJknrSIF9CD-342" value="" style="rounded=0;whiteSpace=wrap;html=1;container=0;" vertex="1" parent="JjWKAUgTpPJknrSIF9CD-1">
          <mxGeometry x="196" y="580" width="150" height="20" as="geometry" />
        </mxCell>
        <mxCell id="JjWKAUgTpPJknrSIF9CD-343" value="Time" style="rounded=0;whiteSpace=wrap;html=1;align=left;container=0;" vertex="1" parent="JjWKAUgTpPJknrSIF9CD-1">
          <mxGeometry x="256" y="580" width="40" height="20" as="geometry" />
        </mxCell>
        <mxCell id="JjWKAUgTpPJknrSIF9CD-344" value="Play" style="rounded=0;whiteSpace=wrap;html=1;container=0;" vertex="1" parent="JjWKAUgTpPJknrSIF9CD-1">
          <mxGeometry x="196" y="580" width="60" height="20" as="geometry" />
        </mxCell>
        <mxCell id="JjWKAUgTpPJknrSIF9CD-345" value="100ps" style="rounded=0;whiteSpace=wrap;html=1;container=0;" vertex="1" parent="JjWKAUgTpPJknrSIF9CD-1">
          <mxGeometry x="296" y="580" width="50" height="20" as="geometry" />
        </mxCell>
        <mxCell id="JjWKAUgTpPJknrSIF9CD-346" value="" style="rounded=0;whiteSpace=wrap;html=1;container=0;" vertex="1" parent="JjWKAUgTpPJknrSIF9CD-1">
          <mxGeometry x="41" y="560" width="480" height="10" as="geometry" />
        </mxCell>
        <mxCell id="JjWKAUgTpPJknrSIF9CD-347" value="" style="rounded=0;whiteSpace=wrap;html=1;fillColor=#6d8764;fontColor=#ffffff;strokeColor=#3A5431;container=0;" vertex="1" parent="JjWKAUgTpPJknrSIF9CD-1">
          <mxGeometry x="81" y="560" width="10" height="10" as="geometry" />
        </mxCell>
        <mxCell id="JjWKAUgTpPJknrSIF9CD-35" value="Test %" style="rounded=0;whiteSpace=wrap;html=1;container=0;" vertex="1" parent="JjWKAUgTpPJknrSIF9CD-1">
          <mxGeometry x="119" y="639" width="404" height="20" as="geometry" />
        </mxCell>
        <mxCell id="JjWKAUgTpPJknrSIF9CD-36" value="module" style="rounded=0;whiteSpace=wrap;html=1;container=0;" vertex="1" parent="JjWKAUgTpPJknrSIF9CD-1">
          <mxGeometry x="40" y="639" width="79" height="40" as="geometry" />
        </mxCell>
        <mxCell id="JjWKAUgTpPJknrSIF9CD-37" value="&lt;div style=&quot;text-align: justify;&quot;&gt;&lt;span style=&quot;background-color: initial;&quot;&gt;Top Ports&lt;/span&gt;&lt;/div&gt;" style="rounded=0;whiteSpace=wrap;html=1;align=center;rotation=-90;container=0;" vertex="1" parent="JjWKAUgTpPJknrSIF9CD-1">
          <mxGeometry x="-1" y="721" width="104.19" height="22" as="geometry" />
        </mxCell>
        <mxCell id="JjWKAUgTpPJknrSIF9CD-38" value="/top/DUT Port Coverage Progression Snapshot" style="rounded=0;whiteSpace=wrap;html=1;container=0;" vertex="1" parent="JjWKAUgTpPJknrSIF9CD-1">
          <mxGeometry x="40" y="619" width="483" height="20" as="geometry" />
        </mxCell>
        <mxCell id="JjWKAUgTpPJknrSIF9CD-68" value="clk_i" style="rounded=0;whiteSpace=wrap;html=1;container=0;" vertex="1" parent="JjWKAUgTpPJknrSIF9CD-1">
          <mxGeometry x="62" y="679" width="57" height="21" as="geometry" />
        </mxCell>
        <mxCell id="JjWKAUgTpPJknrSIF9CD-69" value="rst_n_i" style="rounded=0;whiteSpace=wrap;html=1;container=0;" vertex="1" parent="JjWKAUgTpPJknrSIF9CD-1">
          <mxGeometry x="63" y="700" width="56" height="19" as="geometry" />
        </mxCell>
        <mxCell id="JjWKAUgTpPJknrSIF9CD-70" value="input_1_i" style="rounded=0;whiteSpace=wrap;html=1;container=0;" vertex="1" parent="JjWKAUgTpPJknrSIF9CD-1">
          <mxGeometry x="62" y="720" width="57" height="23" as="geometry" />
        </mxCell>
        <mxCell id="JjWKAUgTpPJknrSIF9CD-71" value="input_2_i" style="rounded=0;whiteSpace=wrap;html=1;container=0;" vertex="1" parent="JjWKAUgTpPJknrSIF9CD-1">
          <mxGeometry x="62" y="744" width="57" height="20" as="geometry" />
        </mxCell>
        <mxCell id="JjWKAUgTpPJknrSIF9CD-72" value="input_3_i" style="rounded=0;whiteSpace=wrap;html=1;container=0;" vertex="1" parent="JjWKAUgTpPJknrSIF9CD-1">
          <mxGeometry x="62" y="765" width="57" height="19" as="geometry" />
        </mxCell>
        <mxCell id="lGr5Bgv616YndTuxlMh_-106" value="" style="shape=table;startSize=0;container=1;collapsible=0;childLayout=tableLayout;" vertex="1" parent="JjWKAUgTpPJknrSIF9CD-1">
          <mxGeometry x="120" y="661" width="404" height="122" as="geometry" />
        </mxCell>
        <mxCell id="lGr5Bgv616YndTuxlMh_-107" value="" style="shape=tableRow;horizontal=0;startSize=0;swimlaneHead=0;swimlaneBody=0;strokeColor=inherit;top=0;left=0;bottom=0;right=0;collapsible=0;dropTarget=0;fillColor=none;points=[[0,0.5],[1,0.5]];portConstraint=eastwest;" vertex="1" parent="lGr5Bgv616YndTuxlMh_-106">
          <mxGeometry width="404" height="20" as="geometry" />
        </mxCell>
        <mxCell id="lGr5Bgv616YndTuxlMh_-108" value="5" style="shape=partialRectangle;html=1;whiteSpace=wrap;connectable=0;strokeColor=inherit;overflow=hidden;fillColor=none;top=0;left=0;bottom=0;right=0;pointerEvents=1;" vertex="1" parent="lGr5Bgv616YndTuxlMh_-107">
          <mxGeometry width="20" height="20" as="geometry">
            <mxRectangle width="20" height="20" as="alternateBounds" />
          </mxGeometry>
        </mxCell>
        <mxCell id="lGr5Bgv616YndTuxlMh_-109" value="10" style="shape=partialRectangle;html=1;whiteSpace=wrap;connectable=0;strokeColor=inherit;overflow=hidden;fillColor=none;top=0;left=0;bottom=0;right=0;pointerEvents=1;" vertex="1" parent="lGr5Bgv616YndTuxlMh_-107">
          <mxGeometry x="20" width="20" height="20" as="geometry">
            <mxRectangle width="20" height="20" as="alternateBounds" />
          </mxGeometry>
        </mxCell>
        <mxCell id="lGr5Bgv616YndTuxlMh_-110" value="15" style="shape=partialRectangle;html=1;whiteSpace=wrap;connectable=0;strokeColor=inherit;overflow=hidden;fillColor=none;top=0;left=0;bottom=0;right=0;pointerEvents=1;" vertex="1" parent="lGr5Bgv616YndTuxlMh_-107">
          <mxGeometry x="40" width="20" height="20" as="geometry">
            <mxRectangle width="20" height="20" as="alternateBounds" />
          </mxGeometry>
        </mxCell>
        <mxCell id="lGr5Bgv616YndTuxlMh_-111" value="20" style="shape=partialRectangle;html=1;whiteSpace=wrap;connectable=0;strokeColor=inherit;overflow=hidden;fillColor=none;top=0;left=0;bottom=0;right=0;pointerEvents=1;" vertex="1" parent="lGr5Bgv616YndTuxlMh_-107">
          <mxGeometry x="60" width="21" height="20" as="geometry">
            <mxRectangle width="21" height="20" as="alternateBounds" />
          </mxGeometry>
        </mxCell>
        <mxCell id="lGr5Bgv616YndTuxlMh_-112" value="25" style="shape=partialRectangle;html=1;whiteSpace=wrap;connectable=0;strokeColor=inherit;overflow=hidden;fillColor=none;top=0;left=0;bottom=0;right=0;pointerEvents=1;" vertex="1" parent="lGr5Bgv616YndTuxlMh_-107">
          <mxGeometry x="81" width="20" height="20" as="geometry">
            <mxRectangle width="20" height="20" as="alternateBounds" />
          </mxGeometry>
        </mxCell>
        <mxCell id="lGr5Bgv616YndTuxlMh_-113" value="30" style="shape=partialRectangle;html=1;whiteSpace=wrap;connectable=0;strokeColor=inherit;overflow=hidden;fillColor=none;top=0;left=0;bottom=0;right=0;pointerEvents=1;" vertex="1" parent="lGr5Bgv616YndTuxlMh_-107">
          <mxGeometry x="101" width="20" height="20" as="geometry">
            <mxRectangle width="20" height="20" as="alternateBounds" />
          </mxGeometry>
        </mxCell>
        <mxCell id="lGr5Bgv616YndTuxlMh_-114" value="35" style="shape=partialRectangle;html=1;whiteSpace=wrap;connectable=0;strokeColor=inherit;overflow=hidden;fillColor=none;top=0;left=0;bottom=0;right=0;pointerEvents=1;" vertex="1" parent="lGr5Bgv616YndTuxlMh_-107">
          <mxGeometry x="121" width="21" height="20" as="geometry">
            <mxRectangle width="21" height="20" as="alternateBounds" />
          </mxGeometry>
        </mxCell>
        <mxCell id="lGr5Bgv616YndTuxlMh_-115" value="40" style="shape=partialRectangle;html=1;whiteSpace=wrap;connectable=0;strokeColor=inherit;overflow=hidden;fillColor=none;top=0;left=0;bottom=0;right=0;pointerEvents=1;" vertex="1" parent="lGr5Bgv616YndTuxlMh_-107">
          <mxGeometry x="142" width="19" height="20" as="geometry">
            <mxRectangle width="19" height="20" as="alternateBounds" />
          </mxGeometry>
        </mxCell>
        <mxCell id="lGr5Bgv616YndTuxlMh_-116" value="45" style="shape=partialRectangle;html=1;whiteSpace=wrap;connectable=0;strokeColor=inherit;overflow=hidden;fillColor=none;top=0;left=0;bottom=0;right=0;pointerEvents=1;" vertex="1" parent="lGr5Bgv616YndTuxlMh_-107">
          <mxGeometry x="161" width="21" height="20" as="geometry">
            <mxRectangle width="21" height="20" as="alternateBounds" />
          </mxGeometry>
        </mxCell>
        <mxCell id="lGr5Bgv616YndTuxlMh_-117" value="50" style="shape=partialRectangle;html=1;whiteSpace=wrap;connectable=0;strokeColor=inherit;overflow=hidden;fillColor=none;top=0;left=0;bottom=0;right=0;pointerEvents=1;" vertex="1" parent="lGr5Bgv616YndTuxlMh_-107">
          <mxGeometry x="182" width="20" height="20" as="geometry">
            <mxRectangle width="20" height="20" as="alternateBounds" />
          </mxGeometry>
        </mxCell>
        <mxCell id="lGr5Bgv616YndTuxlMh_-118" value="55" style="shape=partialRectangle;html=1;whiteSpace=wrap;connectable=0;strokeColor=inherit;overflow=hidden;fillColor=none;top=0;left=0;bottom=0;right=0;pointerEvents=1;" vertex="1" parent="lGr5Bgv616YndTuxlMh_-107">
          <mxGeometry x="202" width="20" height="20" as="geometry">
            <mxRectangle width="20" height="20" as="alternateBounds" />
          </mxGeometry>
        </mxCell>
        <mxCell id="lGr5Bgv616YndTuxlMh_-119" value="60" style="shape=partialRectangle;html=1;whiteSpace=wrap;connectable=0;strokeColor=inherit;overflow=hidden;fillColor=none;top=0;left=0;bottom=0;right=0;pointerEvents=1;" vertex="1" parent="lGr5Bgv616YndTuxlMh_-107">
          <mxGeometry x="222" width="21" height="20" as="geometry">
            <mxRectangle width="21" height="20" as="alternateBounds" />
          </mxGeometry>
        </mxCell>
        <mxCell id="lGr5Bgv616YndTuxlMh_-120" value="65" style="shape=partialRectangle;html=1;whiteSpace=wrap;connectable=0;strokeColor=inherit;overflow=hidden;fillColor=none;top=0;left=0;bottom=0;right=0;pointerEvents=1;" vertex="1" parent="lGr5Bgv616YndTuxlMh_-107">
          <mxGeometry x="243" width="19" height="20" as="geometry">
            <mxRectangle width="19" height="20" as="alternateBounds" />
          </mxGeometry>
        </mxCell>
        <mxCell id="lGr5Bgv616YndTuxlMh_-121" value="70" style="shape=partialRectangle;html=1;whiteSpace=wrap;connectable=0;strokeColor=inherit;overflow=hidden;fillColor=none;top=0;left=0;bottom=0;right=0;pointerEvents=1;" vertex="1" parent="lGr5Bgv616YndTuxlMh_-107">
          <mxGeometry x="262" width="21" height="20" as="geometry">
            <mxRectangle width="21" height="20" as="alternateBounds" />
          </mxGeometry>
        </mxCell>
        <mxCell id="lGr5Bgv616YndTuxlMh_-122" value="75" style="shape=partialRectangle;html=1;whiteSpace=wrap;connectable=0;strokeColor=inherit;overflow=hidden;fillColor=none;top=0;left=0;bottom=0;right=0;pointerEvents=1;" vertex="1" parent="lGr5Bgv616YndTuxlMh_-107">
          <mxGeometry x="283" width="20" height="20" as="geometry">
            <mxRectangle width="20" height="20" as="alternateBounds" />
          </mxGeometry>
        </mxCell>
        <mxCell id="lGr5Bgv616YndTuxlMh_-123" value="80" style="shape=partialRectangle;html=1;whiteSpace=wrap;connectable=0;strokeColor=inherit;overflow=hidden;fillColor=none;top=0;left=0;bottom=0;right=0;pointerEvents=1;" vertex="1" parent="lGr5Bgv616YndTuxlMh_-107">
          <mxGeometry x="303" width="20" height="20" as="geometry">
            <mxRectangle width="20" height="20" as="alternateBounds" />
          </mxGeometry>
        </mxCell>
        <mxCell id="lGr5Bgv616YndTuxlMh_-124" value="85" style="shape=partialRectangle;html=1;whiteSpace=wrap;connectable=0;strokeColor=inherit;overflow=hidden;fillColor=none;top=0;left=0;bottom=0;right=0;pointerEvents=1;" vertex="1" parent="lGr5Bgv616YndTuxlMh_-107">
          <mxGeometry x="323" width="21" height="20" as="geometry">
            <mxRectangle width="21" height="20" as="alternateBounds" />
          </mxGeometry>
        </mxCell>
        <mxCell id="lGr5Bgv616YndTuxlMh_-125" value="90" style="shape=partialRectangle;html=1;whiteSpace=wrap;connectable=0;strokeColor=inherit;overflow=hidden;fillColor=none;top=0;left=0;bottom=0;right=0;pointerEvents=1;" vertex="1" parent="lGr5Bgv616YndTuxlMh_-107">
          <mxGeometry x="344" width="20" height="20" as="geometry">
            <mxRectangle width="20" height="20" as="alternateBounds" />
          </mxGeometry>
        </mxCell>
        <mxCell id="lGr5Bgv616YndTuxlMh_-126" value="95" style="shape=partialRectangle;html=1;whiteSpace=wrap;connectable=0;strokeColor=inherit;overflow=hidden;fillColor=none;top=0;left=0;bottom=0;right=0;pointerEvents=1;" vertex="1" parent="lGr5Bgv616YndTuxlMh_-107">
          <mxGeometry x="364" width="20" height="20" as="geometry">
            <mxRectangle width="20" height="20" as="alternateBounds" />
          </mxGeometry>
        </mxCell>
        <mxCell id="lGr5Bgv616YndTuxlMh_-127" value="100" style="shape=partialRectangle;html=1;whiteSpace=wrap;connectable=0;strokeColor=inherit;overflow=hidden;fillColor=none;top=0;left=0;bottom=0;right=0;pointerEvents=1;" vertex="1" parent="lGr5Bgv616YndTuxlMh_-107">
          <mxGeometry x="384" width="20" height="20" as="geometry">
            <mxRectangle width="20" height="20" as="alternateBounds" />
          </mxGeometry>
        </mxCell>
        <mxCell id="lGr5Bgv616YndTuxlMh_-128" value="" style="shape=tableRow;horizontal=0;startSize=0;swimlaneHead=0;swimlaneBody=0;strokeColor=inherit;top=0;left=0;bottom=0;right=0;collapsible=0;dropTarget=0;fillColor=none;points=[[0,0.5],[1,0.5]];portConstraint=eastwest;" vertex="1" parent="lGr5Bgv616YndTuxlMh_-106">
          <mxGeometry y="20" width="404" height="21" as="geometry" />
        </mxCell>
        <mxCell id="lGr5Bgv616YndTuxlMh_-129" value="" style="shape=partialRectangle;html=1;whiteSpace=wrap;connectable=0;strokeColor=inherit;overflow=hidden;fillColor=none;top=0;left=0;bottom=0;right=0;pointerEvents=1;" vertex="1" parent="lGr5Bgv616YndTuxlMh_-128">
          <mxGeometry width="20" height="21" as="geometry">
            <mxRectangle width="20" height="21" as="alternateBounds" />
          </mxGeometry>
        </mxCell>
        <mxCell id="lGr5Bgv616YndTuxlMh_-130" value="" style="shape=partialRectangle;html=1;whiteSpace=wrap;connectable=0;strokeColor=inherit;overflow=hidden;fillColor=none;top=0;left=0;bottom=0;right=0;pointerEvents=1;" vertex="1" parent="lGr5Bgv616YndTuxlMh_-128">
          <mxGeometry x="20" width="20" height="21" as="geometry">
            <mxRectangle width="20" height="21" as="alternateBounds" />
          </mxGeometry>
        </mxCell>
        <mxCell id="lGr5Bgv616YndTuxlMh_-131" value="" style="shape=partialRectangle;html=1;whiteSpace=wrap;connectable=0;strokeColor=inherit;overflow=hidden;fillColor=none;top=0;left=0;bottom=0;right=0;pointerEvents=1;" vertex="1" parent="lGr5Bgv616YndTuxlMh_-128">
          <mxGeometry x="40" width="20" height="21" as="geometry">
            <mxRectangle width="20" height="21" as="alternateBounds" />
          </mxGeometry>
        </mxCell>
        <mxCell id="lGr5Bgv616YndTuxlMh_-132" value="" style="shape=partialRectangle;html=1;whiteSpace=wrap;connectable=0;strokeColor=inherit;overflow=hidden;fillColor=none;top=0;left=0;bottom=0;right=0;pointerEvents=1;" vertex="1" parent="lGr5Bgv616YndTuxlMh_-128">
          <mxGeometry x="60" width="21" height="21" as="geometry">
            <mxRectangle width="21" height="21" as="alternateBounds" />
          </mxGeometry>
        </mxCell>
        <mxCell id="lGr5Bgv616YndTuxlMh_-133" value="" style="shape=partialRectangle;html=1;whiteSpace=wrap;connectable=0;strokeColor=inherit;overflow=hidden;fillColor=none;top=0;left=0;bottom=0;right=0;pointerEvents=1;" vertex="1" parent="lGr5Bgv616YndTuxlMh_-128">
          <mxGeometry x="81" width="20" height="21" as="geometry">
            <mxRectangle width="20" height="21" as="alternateBounds" />
          </mxGeometry>
        </mxCell>
        <mxCell id="lGr5Bgv616YndTuxlMh_-134" value="" style="shape=partialRectangle;html=1;whiteSpace=wrap;connectable=0;strokeColor=inherit;overflow=hidden;fillColor=none;top=0;left=0;bottom=0;right=0;pointerEvents=1;" vertex="1" parent="lGr5Bgv616YndTuxlMh_-128">
          <mxGeometry x="101" width="20" height="21" as="geometry">
            <mxRectangle width="20" height="21" as="alternateBounds" />
          </mxGeometry>
        </mxCell>
        <mxCell id="lGr5Bgv616YndTuxlMh_-135" value="" style="shape=partialRectangle;html=1;whiteSpace=wrap;connectable=0;strokeColor=inherit;overflow=hidden;fillColor=none;top=0;left=0;bottom=0;right=0;pointerEvents=1;" vertex="1" parent="lGr5Bgv616YndTuxlMh_-128">
          <mxGeometry x="121" width="21" height="21" as="geometry">
            <mxRectangle width="21" height="21" as="alternateBounds" />
          </mxGeometry>
        </mxCell>
        <mxCell id="lGr5Bgv616YndTuxlMh_-136" value="" style="shape=partialRectangle;html=1;whiteSpace=wrap;connectable=0;strokeColor=inherit;overflow=hidden;fillColor=none;top=0;left=0;bottom=0;right=0;pointerEvents=1;" vertex="1" parent="lGr5Bgv616YndTuxlMh_-128">
          <mxGeometry x="142" width="19" height="21" as="geometry">
            <mxRectangle width="19" height="21" as="alternateBounds" />
          </mxGeometry>
        </mxCell>
        <mxCell id="lGr5Bgv616YndTuxlMh_-137" value="" style="shape=partialRectangle;html=1;whiteSpace=wrap;connectable=0;strokeColor=inherit;overflow=hidden;fillColor=none;top=0;left=0;bottom=0;right=0;pointerEvents=1;" vertex="1" parent="lGr5Bgv616YndTuxlMh_-128">
          <mxGeometry x="161" width="21" height="21" as="geometry">
            <mxRectangle width="21" height="21" as="alternateBounds" />
          </mxGeometry>
        </mxCell>
        <mxCell id="lGr5Bgv616YndTuxlMh_-138" value="" style="shape=partialRectangle;html=1;whiteSpace=wrap;connectable=0;strokeColor=inherit;overflow=hidden;fillColor=none;top=0;left=0;bottom=0;right=0;pointerEvents=1;" vertex="1" parent="lGr5Bgv616YndTuxlMh_-128">
          <mxGeometry x="182" width="20" height="21" as="geometry">
            <mxRectangle width="20" height="21" as="alternateBounds" />
          </mxGeometry>
        </mxCell>
        <mxCell id="lGr5Bgv616YndTuxlMh_-139" value="" style="shape=partialRectangle;html=1;whiteSpace=wrap;connectable=0;strokeColor=inherit;overflow=hidden;fillColor=none;top=0;left=0;bottom=0;right=0;pointerEvents=1;" vertex="1" parent="lGr5Bgv616YndTuxlMh_-128">
          <mxGeometry x="202" width="20" height="21" as="geometry">
            <mxRectangle width="20" height="21" as="alternateBounds" />
          </mxGeometry>
        </mxCell>
        <mxCell id="lGr5Bgv616YndTuxlMh_-140" value="" style="shape=partialRectangle;html=1;whiteSpace=wrap;connectable=0;strokeColor=inherit;overflow=hidden;fillColor=none;top=0;left=0;bottom=0;right=0;pointerEvents=1;" vertex="1" parent="lGr5Bgv616YndTuxlMh_-128">
          <mxGeometry x="222" width="21" height="21" as="geometry">
            <mxRectangle width="21" height="21" as="alternateBounds" />
          </mxGeometry>
        </mxCell>
        <mxCell id="lGr5Bgv616YndTuxlMh_-141" value="" style="shape=partialRectangle;html=1;whiteSpace=wrap;connectable=0;strokeColor=inherit;overflow=hidden;fillColor=none;top=0;left=0;bottom=0;right=0;pointerEvents=1;" vertex="1" parent="lGr5Bgv616YndTuxlMh_-128">
          <mxGeometry x="243" width="19" height="21" as="geometry">
            <mxRectangle width="19" height="21" as="alternateBounds" />
          </mxGeometry>
        </mxCell>
        <mxCell id="lGr5Bgv616YndTuxlMh_-142" value="" style="shape=partialRectangle;html=1;whiteSpace=wrap;connectable=0;strokeColor=inherit;overflow=hidden;fillColor=none;top=0;left=0;bottom=0;right=0;pointerEvents=1;" vertex="1" parent="lGr5Bgv616YndTuxlMh_-128">
          <mxGeometry x="262" width="21" height="21" as="geometry">
            <mxRectangle width="21" height="21" as="alternateBounds" />
          </mxGeometry>
        </mxCell>
        <mxCell id="lGr5Bgv616YndTuxlMh_-143" value="" style="shape=partialRectangle;html=1;whiteSpace=wrap;connectable=0;strokeColor=inherit;overflow=hidden;fillColor=none;top=0;left=0;bottom=0;right=0;pointerEvents=1;" vertex="1" parent="lGr5Bgv616YndTuxlMh_-128">
          <mxGeometry x="283" width="20" height="21" as="geometry">
            <mxRectangle width="20" height="21" as="alternateBounds" />
          </mxGeometry>
        </mxCell>
        <mxCell id="lGr5Bgv616YndTuxlMh_-144" value="" style="shape=partialRectangle;html=1;whiteSpace=wrap;connectable=0;strokeColor=inherit;overflow=hidden;fillColor=none;top=0;left=0;bottom=0;right=0;pointerEvents=1;" vertex="1" parent="lGr5Bgv616YndTuxlMh_-128">
          <mxGeometry x="303" width="20" height="21" as="geometry">
            <mxRectangle width="20" height="21" as="alternateBounds" />
          </mxGeometry>
        </mxCell>
        <mxCell id="lGr5Bgv616YndTuxlMh_-145" value="" style="shape=partialRectangle;html=1;whiteSpace=wrap;connectable=0;strokeColor=inherit;overflow=hidden;fillColor=none;top=0;left=0;bottom=0;right=0;pointerEvents=1;" vertex="1" parent="lGr5Bgv616YndTuxlMh_-128">
          <mxGeometry x="323" width="21" height="21" as="geometry">
            <mxRectangle width="21" height="21" as="alternateBounds" />
          </mxGeometry>
        </mxCell>
        <mxCell id="lGr5Bgv616YndTuxlMh_-146" value="" style="shape=partialRectangle;html=1;whiteSpace=wrap;connectable=0;strokeColor=inherit;overflow=hidden;fillColor=none;top=0;left=0;bottom=0;right=0;pointerEvents=1;" vertex="1" parent="lGr5Bgv616YndTuxlMh_-128">
          <mxGeometry x="344" width="20" height="21" as="geometry">
            <mxRectangle width="20" height="21" as="alternateBounds" />
          </mxGeometry>
        </mxCell>
        <mxCell id="lGr5Bgv616YndTuxlMh_-147" value="" style="shape=partialRectangle;html=1;whiteSpace=wrap;connectable=0;strokeColor=inherit;overflow=hidden;fillColor=none;top=0;left=0;bottom=0;right=0;pointerEvents=1;" vertex="1" parent="lGr5Bgv616YndTuxlMh_-128">
          <mxGeometry x="364" width="20" height="21" as="geometry">
            <mxRectangle width="20" height="21" as="alternateBounds" />
          </mxGeometry>
        </mxCell>
        <mxCell id="lGr5Bgv616YndTuxlMh_-148" value="" style="shape=partialRectangle;html=1;whiteSpace=wrap;connectable=0;strokeColor=inherit;overflow=hidden;fillColor=none;top=0;left=0;bottom=0;right=0;pointerEvents=1;" vertex="1" parent="lGr5Bgv616YndTuxlMh_-128">
          <mxGeometry x="384" width="20" height="21" as="geometry">
            <mxRectangle width="20" height="21" as="alternateBounds" />
          </mxGeometry>
        </mxCell>
        <mxCell id="lGr5Bgv616YndTuxlMh_-149" value="" style="shape=tableRow;horizontal=0;startSize=0;swimlaneHead=0;swimlaneBody=0;strokeColor=inherit;top=0;left=0;bottom=0;right=0;collapsible=0;dropTarget=0;fillColor=none;points=[[0,0.5],[1,0.5]];portConstraint=eastwest;" vertex="1" parent="lGr5Bgv616YndTuxlMh_-106">
          <mxGeometry y="41" width="404" height="20" as="geometry" />
        </mxCell>
        <mxCell id="lGr5Bgv616YndTuxlMh_-150" value="" style="shape=partialRectangle;html=1;whiteSpace=wrap;connectable=0;strokeColor=inherit;overflow=hidden;fillColor=none;top=0;left=0;bottom=0;right=0;pointerEvents=1;" vertex="1" parent="lGr5Bgv616YndTuxlMh_-149">
          <mxGeometry width="20" height="20" as="geometry">
            <mxRectangle width="20" height="20" as="alternateBounds" />
          </mxGeometry>
        </mxCell>
        <mxCell id="lGr5Bgv616YndTuxlMh_-151" value="" style="shape=partialRectangle;html=1;whiteSpace=wrap;connectable=0;strokeColor=inherit;overflow=hidden;fillColor=none;top=0;left=0;bottom=0;right=0;pointerEvents=1;" vertex="1" parent="lGr5Bgv616YndTuxlMh_-149">
          <mxGeometry x="20" width="20" height="20" as="geometry">
            <mxRectangle width="20" height="20" as="alternateBounds" />
          </mxGeometry>
        </mxCell>
        <mxCell id="lGr5Bgv616YndTuxlMh_-152" value="" style="shape=partialRectangle;html=1;whiteSpace=wrap;connectable=0;strokeColor=inherit;overflow=hidden;fillColor=none;top=0;left=0;bottom=0;right=0;pointerEvents=1;" vertex="1" parent="lGr5Bgv616YndTuxlMh_-149">
          <mxGeometry x="40" width="20" height="20" as="geometry">
            <mxRectangle width="20" height="20" as="alternateBounds" />
          </mxGeometry>
        </mxCell>
        <mxCell id="lGr5Bgv616YndTuxlMh_-153" value="" style="shape=partialRectangle;html=1;whiteSpace=wrap;connectable=0;strokeColor=inherit;overflow=hidden;fillColor=none;top=0;left=0;bottom=0;right=0;pointerEvents=1;" vertex="1" parent="lGr5Bgv616YndTuxlMh_-149">
          <mxGeometry x="60" width="21" height="20" as="geometry">
            <mxRectangle width="21" height="20" as="alternateBounds" />
          </mxGeometry>
        </mxCell>
        <mxCell id="lGr5Bgv616YndTuxlMh_-154" value="" style="shape=partialRectangle;html=1;whiteSpace=wrap;connectable=0;strokeColor=inherit;overflow=hidden;fillColor=none;top=0;left=0;bottom=0;right=0;pointerEvents=1;" vertex="1" parent="lGr5Bgv616YndTuxlMh_-149">
          <mxGeometry x="81" width="20" height="20" as="geometry">
            <mxRectangle width="20" height="20" as="alternateBounds" />
          </mxGeometry>
        </mxCell>
        <mxCell id="lGr5Bgv616YndTuxlMh_-155" value="" style="shape=partialRectangle;html=1;whiteSpace=wrap;connectable=0;strokeColor=inherit;overflow=hidden;fillColor=none;top=0;left=0;bottom=0;right=0;pointerEvents=1;" vertex="1" parent="lGr5Bgv616YndTuxlMh_-149">
          <mxGeometry x="101" width="20" height="20" as="geometry">
            <mxRectangle width="20" height="20" as="alternateBounds" />
          </mxGeometry>
        </mxCell>
        <mxCell id="lGr5Bgv616YndTuxlMh_-156" value="" style="shape=partialRectangle;html=1;whiteSpace=wrap;connectable=0;strokeColor=inherit;overflow=hidden;fillColor=none;top=0;left=0;bottom=0;right=0;pointerEvents=1;" vertex="1" parent="lGr5Bgv616YndTuxlMh_-149">
          <mxGeometry x="121" width="21" height="20" as="geometry">
            <mxRectangle width="21" height="20" as="alternateBounds" />
          </mxGeometry>
        </mxCell>
        <mxCell id="lGr5Bgv616YndTuxlMh_-157" value="" style="shape=partialRectangle;html=1;whiteSpace=wrap;connectable=0;strokeColor=inherit;overflow=hidden;fillColor=none;top=0;left=0;bottom=0;right=0;pointerEvents=1;" vertex="1" parent="lGr5Bgv616YndTuxlMh_-149">
          <mxGeometry x="142" width="19" height="20" as="geometry">
            <mxRectangle width="19" height="20" as="alternateBounds" />
          </mxGeometry>
        </mxCell>
        <mxCell id="lGr5Bgv616YndTuxlMh_-158" value="" style="shape=partialRectangle;html=1;whiteSpace=wrap;connectable=0;strokeColor=inherit;overflow=hidden;fillColor=none;top=0;left=0;bottom=0;right=0;pointerEvents=1;" vertex="1" parent="lGr5Bgv616YndTuxlMh_-149">
          <mxGeometry x="161" width="21" height="20" as="geometry">
            <mxRectangle width="21" height="20" as="alternateBounds" />
          </mxGeometry>
        </mxCell>
        <mxCell id="lGr5Bgv616YndTuxlMh_-159" value="" style="shape=partialRectangle;html=1;whiteSpace=wrap;connectable=0;strokeColor=inherit;overflow=hidden;fillColor=none;top=0;left=0;bottom=0;right=0;pointerEvents=1;" vertex="1" parent="lGr5Bgv616YndTuxlMh_-149">
          <mxGeometry x="182" width="20" height="20" as="geometry">
            <mxRectangle width="20" height="20" as="alternateBounds" />
          </mxGeometry>
        </mxCell>
        <mxCell id="lGr5Bgv616YndTuxlMh_-160" value="" style="shape=partialRectangle;html=1;whiteSpace=wrap;connectable=0;strokeColor=inherit;overflow=hidden;fillColor=none;top=0;left=0;bottom=0;right=0;pointerEvents=1;" vertex="1" parent="lGr5Bgv616YndTuxlMh_-149">
          <mxGeometry x="202" width="20" height="20" as="geometry">
            <mxRectangle width="20" height="20" as="alternateBounds" />
          </mxGeometry>
        </mxCell>
        <mxCell id="lGr5Bgv616YndTuxlMh_-161" value="" style="shape=partialRectangle;html=1;whiteSpace=wrap;connectable=0;strokeColor=inherit;overflow=hidden;fillColor=none;top=0;left=0;bottom=0;right=0;pointerEvents=1;" vertex="1" parent="lGr5Bgv616YndTuxlMh_-149">
          <mxGeometry x="222" width="21" height="20" as="geometry">
            <mxRectangle width="21" height="20" as="alternateBounds" />
          </mxGeometry>
        </mxCell>
        <mxCell id="lGr5Bgv616YndTuxlMh_-162" value="" style="shape=partialRectangle;html=1;whiteSpace=wrap;connectable=0;strokeColor=inherit;overflow=hidden;fillColor=none;top=0;left=0;bottom=0;right=0;pointerEvents=1;" vertex="1" parent="lGr5Bgv616YndTuxlMh_-149">
          <mxGeometry x="243" width="19" height="20" as="geometry">
            <mxRectangle width="19" height="20" as="alternateBounds" />
          </mxGeometry>
        </mxCell>
        <mxCell id="lGr5Bgv616YndTuxlMh_-163" value="" style="shape=partialRectangle;html=1;whiteSpace=wrap;connectable=0;strokeColor=inherit;overflow=hidden;fillColor=none;top=0;left=0;bottom=0;right=0;pointerEvents=1;" vertex="1" parent="lGr5Bgv616YndTuxlMh_-149">
          <mxGeometry x="262" width="21" height="20" as="geometry">
            <mxRectangle width="21" height="20" as="alternateBounds" />
          </mxGeometry>
        </mxCell>
        <mxCell id="lGr5Bgv616YndTuxlMh_-164" value="" style="shape=partialRectangle;html=1;whiteSpace=wrap;connectable=0;strokeColor=inherit;overflow=hidden;fillColor=none;top=0;left=0;bottom=0;right=0;pointerEvents=1;" vertex="1" parent="lGr5Bgv616YndTuxlMh_-149">
          <mxGeometry x="283" width="20" height="20" as="geometry">
            <mxRectangle width="20" height="20" as="alternateBounds" />
          </mxGeometry>
        </mxCell>
        <mxCell id="lGr5Bgv616YndTuxlMh_-165" value="" style="shape=partialRectangle;html=1;whiteSpace=wrap;connectable=0;strokeColor=inherit;overflow=hidden;fillColor=none;top=0;left=0;bottom=0;right=0;pointerEvents=1;" vertex="1" parent="lGr5Bgv616YndTuxlMh_-149">
          <mxGeometry x="303" width="20" height="20" as="geometry">
            <mxRectangle width="20" height="20" as="alternateBounds" />
          </mxGeometry>
        </mxCell>
        <mxCell id="lGr5Bgv616YndTuxlMh_-166" value="" style="shape=partialRectangle;html=1;whiteSpace=wrap;connectable=0;strokeColor=inherit;overflow=hidden;fillColor=none;top=0;left=0;bottom=0;right=0;pointerEvents=1;" vertex="1" parent="lGr5Bgv616YndTuxlMh_-149">
          <mxGeometry x="323" width="21" height="20" as="geometry">
            <mxRectangle width="21" height="20" as="alternateBounds" />
          </mxGeometry>
        </mxCell>
        <mxCell id="lGr5Bgv616YndTuxlMh_-167" value="" style="shape=partialRectangle;html=1;whiteSpace=wrap;connectable=0;strokeColor=inherit;overflow=hidden;fillColor=none;top=0;left=0;bottom=0;right=0;pointerEvents=1;" vertex="1" parent="lGr5Bgv616YndTuxlMh_-149">
          <mxGeometry x="344" width="20" height="20" as="geometry">
            <mxRectangle width="20" height="20" as="alternateBounds" />
          </mxGeometry>
        </mxCell>
        <mxCell id="lGr5Bgv616YndTuxlMh_-168" value="" style="shape=partialRectangle;html=1;whiteSpace=wrap;connectable=0;strokeColor=inherit;overflow=hidden;fillColor=none;top=0;left=0;bottom=0;right=0;pointerEvents=1;" vertex="1" parent="lGr5Bgv616YndTuxlMh_-149">
          <mxGeometry x="364" width="20" height="20" as="geometry">
            <mxRectangle width="20" height="20" as="alternateBounds" />
          </mxGeometry>
        </mxCell>
        <mxCell id="lGr5Bgv616YndTuxlMh_-169" value="" style="shape=partialRectangle;html=1;whiteSpace=wrap;connectable=0;strokeColor=inherit;overflow=hidden;fillColor=none;top=0;left=0;bottom=0;right=0;pointerEvents=1;" vertex="1" parent="lGr5Bgv616YndTuxlMh_-149">
          <mxGeometry x="384" width="20" height="20" as="geometry">
            <mxRectangle width="20" height="20" as="alternateBounds" />
          </mxGeometry>
        </mxCell>
        <mxCell id="lGr5Bgv616YndTuxlMh_-170" value="" style="shape=tableRow;horizontal=0;startSize=0;swimlaneHead=0;swimlaneBody=0;strokeColor=inherit;top=0;left=0;bottom=0;right=0;collapsible=0;dropTarget=0;fillColor=none;points=[[0,0.5],[1,0.5]];portConstraint=eastwest;" vertex="1" parent="lGr5Bgv616YndTuxlMh_-106">
          <mxGeometry y="61" width="404" height="20" as="geometry" />
        </mxCell>
        <mxCell id="lGr5Bgv616YndTuxlMh_-171" value="" style="shape=partialRectangle;html=1;whiteSpace=wrap;connectable=0;strokeColor=inherit;overflow=hidden;fillColor=none;top=0;left=0;bottom=0;right=0;pointerEvents=1;" vertex="1" parent="lGr5Bgv616YndTuxlMh_-170">
          <mxGeometry width="20" height="20" as="geometry">
            <mxRectangle width="20" height="20" as="alternateBounds" />
          </mxGeometry>
        </mxCell>
        <mxCell id="lGr5Bgv616YndTuxlMh_-172" value="" style="shape=partialRectangle;html=1;whiteSpace=wrap;connectable=0;strokeColor=inherit;overflow=hidden;fillColor=none;top=0;left=0;bottom=0;right=0;pointerEvents=1;" vertex="1" parent="lGr5Bgv616YndTuxlMh_-170">
          <mxGeometry x="20" width="20" height="20" as="geometry">
            <mxRectangle width="20" height="20" as="alternateBounds" />
          </mxGeometry>
        </mxCell>
        <mxCell id="lGr5Bgv616YndTuxlMh_-173" value="" style="shape=partialRectangle;html=1;whiteSpace=wrap;connectable=0;strokeColor=inherit;overflow=hidden;fillColor=none;top=0;left=0;bottom=0;right=0;pointerEvents=1;" vertex="1" parent="lGr5Bgv616YndTuxlMh_-170">
          <mxGeometry x="40" width="20" height="20" as="geometry">
            <mxRectangle width="20" height="20" as="alternateBounds" />
          </mxGeometry>
        </mxCell>
        <mxCell id="lGr5Bgv616YndTuxlMh_-174" value="" style="shape=partialRectangle;html=1;whiteSpace=wrap;connectable=0;strokeColor=inherit;overflow=hidden;fillColor=none;top=0;left=0;bottom=0;right=0;pointerEvents=1;" vertex="1" parent="lGr5Bgv616YndTuxlMh_-170">
          <mxGeometry x="60" width="21" height="20" as="geometry">
            <mxRectangle width="21" height="20" as="alternateBounds" />
          </mxGeometry>
        </mxCell>
        <mxCell id="lGr5Bgv616YndTuxlMh_-175" value="" style="shape=partialRectangle;html=1;whiteSpace=wrap;connectable=0;strokeColor=inherit;overflow=hidden;fillColor=none;top=0;left=0;bottom=0;right=0;pointerEvents=1;" vertex="1" parent="lGr5Bgv616YndTuxlMh_-170">
          <mxGeometry x="81" width="20" height="20" as="geometry">
            <mxRectangle width="20" height="20" as="alternateBounds" />
          </mxGeometry>
        </mxCell>
        <mxCell id="lGr5Bgv616YndTuxlMh_-176" value="" style="shape=partialRectangle;html=1;whiteSpace=wrap;connectable=0;strokeColor=inherit;overflow=hidden;fillColor=none;top=0;left=0;bottom=0;right=0;pointerEvents=1;" vertex="1" parent="lGr5Bgv616YndTuxlMh_-170">
          <mxGeometry x="101" width="20" height="20" as="geometry">
            <mxRectangle width="20" height="20" as="alternateBounds" />
          </mxGeometry>
        </mxCell>
        <mxCell id="lGr5Bgv616YndTuxlMh_-177" value="" style="shape=partialRectangle;html=1;whiteSpace=wrap;connectable=0;strokeColor=inherit;overflow=hidden;fillColor=none;top=0;left=0;bottom=0;right=0;pointerEvents=1;" vertex="1" parent="lGr5Bgv616YndTuxlMh_-170">
          <mxGeometry x="121" width="21" height="20" as="geometry">
            <mxRectangle width="21" height="20" as="alternateBounds" />
          </mxGeometry>
        </mxCell>
        <mxCell id="lGr5Bgv616YndTuxlMh_-178" value="" style="shape=partialRectangle;html=1;whiteSpace=wrap;connectable=0;strokeColor=inherit;overflow=hidden;fillColor=none;top=0;left=0;bottom=0;right=0;pointerEvents=1;" vertex="1" parent="lGr5Bgv616YndTuxlMh_-170">
          <mxGeometry x="142" width="19" height="20" as="geometry">
            <mxRectangle width="19" height="20" as="alternateBounds" />
          </mxGeometry>
        </mxCell>
        <mxCell id="lGr5Bgv616YndTuxlMh_-179" value="" style="shape=partialRectangle;html=1;whiteSpace=wrap;connectable=0;strokeColor=inherit;overflow=hidden;fillColor=none;top=0;left=0;bottom=0;right=0;pointerEvents=1;" vertex="1" parent="lGr5Bgv616YndTuxlMh_-170">
          <mxGeometry x="161" width="21" height="20" as="geometry">
            <mxRectangle width="21" height="20" as="alternateBounds" />
          </mxGeometry>
        </mxCell>
        <mxCell id="lGr5Bgv616YndTuxlMh_-180" value="" style="shape=partialRectangle;html=1;whiteSpace=wrap;connectable=0;strokeColor=inherit;overflow=hidden;fillColor=none;top=0;left=0;bottom=0;right=0;pointerEvents=1;" vertex="1" parent="lGr5Bgv616YndTuxlMh_-170">
          <mxGeometry x="182" width="20" height="20" as="geometry">
            <mxRectangle width="20" height="20" as="alternateBounds" />
          </mxGeometry>
        </mxCell>
        <mxCell id="lGr5Bgv616YndTuxlMh_-181" value="" style="shape=partialRectangle;html=1;whiteSpace=wrap;connectable=0;strokeColor=inherit;overflow=hidden;fillColor=none;top=0;left=0;bottom=0;right=0;pointerEvents=1;" vertex="1" parent="lGr5Bgv616YndTuxlMh_-170">
          <mxGeometry x="202" width="20" height="20" as="geometry">
            <mxRectangle width="20" height="20" as="alternateBounds" />
          </mxGeometry>
        </mxCell>
        <mxCell id="lGr5Bgv616YndTuxlMh_-182" value="" style="shape=partialRectangle;html=1;whiteSpace=wrap;connectable=0;strokeColor=inherit;overflow=hidden;fillColor=none;top=0;left=0;bottom=0;right=0;pointerEvents=1;" vertex="1" parent="lGr5Bgv616YndTuxlMh_-170">
          <mxGeometry x="222" width="21" height="20" as="geometry">
            <mxRectangle width="21" height="20" as="alternateBounds" />
          </mxGeometry>
        </mxCell>
        <mxCell id="lGr5Bgv616YndTuxlMh_-183" value="" style="shape=partialRectangle;html=1;whiteSpace=wrap;connectable=0;strokeColor=inherit;overflow=hidden;fillColor=none;top=0;left=0;bottom=0;right=0;pointerEvents=1;" vertex="1" parent="lGr5Bgv616YndTuxlMh_-170">
          <mxGeometry x="243" width="19" height="20" as="geometry">
            <mxRectangle width="19" height="20" as="alternateBounds" />
          </mxGeometry>
        </mxCell>
        <mxCell id="lGr5Bgv616YndTuxlMh_-184" value="" style="shape=partialRectangle;html=1;whiteSpace=wrap;connectable=0;strokeColor=inherit;overflow=hidden;fillColor=none;top=0;left=0;bottom=0;right=0;pointerEvents=1;" vertex="1" parent="lGr5Bgv616YndTuxlMh_-170">
          <mxGeometry x="262" width="21" height="20" as="geometry">
            <mxRectangle width="21" height="20" as="alternateBounds" />
          </mxGeometry>
        </mxCell>
        <mxCell id="lGr5Bgv616YndTuxlMh_-185" value="" style="shape=partialRectangle;html=1;whiteSpace=wrap;connectable=0;strokeColor=inherit;overflow=hidden;fillColor=none;top=0;left=0;bottom=0;right=0;pointerEvents=1;" vertex="1" parent="lGr5Bgv616YndTuxlMh_-170">
          <mxGeometry x="283" width="20" height="20" as="geometry">
            <mxRectangle width="20" height="20" as="alternateBounds" />
          </mxGeometry>
        </mxCell>
        <mxCell id="lGr5Bgv616YndTuxlMh_-186" value="" style="shape=partialRectangle;html=1;whiteSpace=wrap;connectable=0;strokeColor=inherit;overflow=hidden;fillColor=none;top=0;left=0;bottom=0;right=0;pointerEvents=1;" vertex="1" parent="lGr5Bgv616YndTuxlMh_-170">
          <mxGeometry x="303" width="20" height="20" as="geometry">
            <mxRectangle width="20" height="20" as="alternateBounds" />
          </mxGeometry>
        </mxCell>
        <mxCell id="lGr5Bgv616YndTuxlMh_-187" value="" style="shape=partialRectangle;html=1;whiteSpace=wrap;connectable=0;strokeColor=inherit;overflow=hidden;fillColor=none;top=0;left=0;bottom=0;right=0;pointerEvents=1;" vertex="1" parent="lGr5Bgv616YndTuxlMh_-170">
          <mxGeometry x="323" width="21" height="20" as="geometry">
            <mxRectangle width="21" height="20" as="alternateBounds" />
          </mxGeometry>
        </mxCell>
        <mxCell id="lGr5Bgv616YndTuxlMh_-188" value="" style="shape=partialRectangle;html=1;whiteSpace=wrap;connectable=0;strokeColor=inherit;overflow=hidden;fillColor=none;top=0;left=0;bottom=0;right=0;pointerEvents=1;" vertex="1" parent="lGr5Bgv616YndTuxlMh_-170">
          <mxGeometry x="344" width="20" height="20" as="geometry">
            <mxRectangle width="20" height="20" as="alternateBounds" />
          </mxGeometry>
        </mxCell>
        <mxCell id="lGr5Bgv616YndTuxlMh_-189" value="" style="shape=partialRectangle;html=1;whiteSpace=wrap;connectable=0;strokeColor=inherit;overflow=hidden;fillColor=none;top=0;left=0;bottom=0;right=0;pointerEvents=1;" vertex="1" parent="lGr5Bgv616YndTuxlMh_-170">
          <mxGeometry x="364" width="20" height="20" as="geometry">
            <mxRectangle width="20" height="20" as="alternateBounds" />
          </mxGeometry>
        </mxCell>
        <mxCell id="lGr5Bgv616YndTuxlMh_-190" value="" style="shape=partialRectangle;html=1;whiteSpace=wrap;connectable=0;strokeColor=inherit;overflow=hidden;fillColor=none;top=0;left=0;bottom=0;right=0;pointerEvents=1;" vertex="1" parent="lGr5Bgv616YndTuxlMh_-170">
          <mxGeometry x="384" width="20" height="20" as="geometry">
            <mxRectangle width="20" height="20" as="alternateBounds" />
          </mxGeometry>
        </mxCell>
        <mxCell id="lGr5Bgv616YndTuxlMh_-191" value="" style="shape=tableRow;horizontal=0;startSize=0;swimlaneHead=0;swimlaneBody=0;strokeColor=inherit;top=0;left=0;bottom=0;right=0;collapsible=0;dropTarget=0;fillColor=none;points=[[0,0.5],[1,0.5]];portConstraint=eastwest;" vertex="1" parent="lGr5Bgv616YndTuxlMh_-106">
          <mxGeometry y="81" width="404" height="21" as="geometry" />
        </mxCell>
        <mxCell id="lGr5Bgv616YndTuxlMh_-192" value="" style="shape=partialRectangle;html=1;whiteSpace=wrap;connectable=0;strokeColor=inherit;overflow=hidden;fillColor=none;top=0;left=0;bottom=0;right=0;pointerEvents=1;" vertex="1" parent="lGr5Bgv616YndTuxlMh_-191">
          <mxGeometry width="20" height="21" as="geometry">
            <mxRectangle width="20" height="21" as="alternateBounds" />
          </mxGeometry>
        </mxCell>
        <mxCell id="lGr5Bgv616YndTuxlMh_-193" value="" style="shape=partialRectangle;html=1;whiteSpace=wrap;connectable=0;strokeColor=inherit;overflow=hidden;fillColor=none;top=0;left=0;bottom=0;right=0;pointerEvents=1;" vertex="1" parent="lGr5Bgv616YndTuxlMh_-191">
          <mxGeometry x="20" width="20" height="21" as="geometry">
            <mxRectangle width="20" height="21" as="alternateBounds" />
          </mxGeometry>
        </mxCell>
        <mxCell id="lGr5Bgv616YndTuxlMh_-194" value="" style="shape=partialRectangle;html=1;whiteSpace=wrap;connectable=0;strokeColor=inherit;overflow=hidden;fillColor=none;top=0;left=0;bottom=0;right=0;pointerEvents=1;" vertex="1" parent="lGr5Bgv616YndTuxlMh_-191">
          <mxGeometry x="40" width="20" height="21" as="geometry">
            <mxRectangle width="20" height="21" as="alternateBounds" />
          </mxGeometry>
        </mxCell>
        <mxCell id="lGr5Bgv616YndTuxlMh_-195" value="" style="shape=partialRectangle;html=1;whiteSpace=wrap;connectable=0;strokeColor=inherit;overflow=hidden;fillColor=none;top=0;left=0;bottom=0;right=0;pointerEvents=1;" vertex="1" parent="lGr5Bgv616YndTuxlMh_-191">
          <mxGeometry x="60" width="21" height="21" as="geometry">
            <mxRectangle width="21" height="21" as="alternateBounds" />
          </mxGeometry>
        </mxCell>
        <mxCell id="lGr5Bgv616YndTuxlMh_-196" value="" style="shape=partialRectangle;html=1;whiteSpace=wrap;connectable=0;strokeColor=inherit;overflow=hidden;fillColor=none;top=0;left=0;bottom=0;right=0;pointerEvents=1;" vertex="1" parent="lGr5Bgv616YndTuxlMh_-191">
          <mxGeometry x="81" width="20" height="21" as="geometry">
            <mxRectangle width="20" height="21" as="alternateBounds" />
          </mxGeometry>
        </mxCell>
        <mxCell id="lGr5Bgv616YndTuxlMh_-197" value="" style="shape=partialRectangle;html=1;whiteSpace=wrap;connectable=0;strokeColor=inherit;overflow=hidden;fillColor=none;top=0;left=0;bottom=0;right=0;pointerEvents=1;" vertex="1" parent="lGr5Bgv616YndTuxlMh_-191">
          <mxGeometry x="101" width="20" height="21" as="geometry">
            <mxRectangle width="20" height="21" as="alternateBounds" />
          </mxGeometry>
        </mxCell>
        <mxCell id="lGr5Bgv616YndTuxlMh_-198" value="" style="shape=partialRectangle;html=1;whiteSpace=wrap;connectable=0;strokeColor=inherit;overflow=hidden;fillColor=none;top=0;left=0;bottom=0;right=0;pointerEvents=1;" vertex="1" parent="lGr5Bgv616YndTuxlMh_-191">
          <mxGeometry x="121" width="21" height="21" as="geometry">
            <mxRectangle width="21" height="21" as="alternateBounds" />
          </mxGeometry>
        </mxCell>
        <mxCell id="lGr5Bgv616YndTuxlMh_-199" value="" style="shape=partialRectangle;html=1;whiteSpace=wrap;connectable=0;strokeColor=inherit;overflow=hidden;fillColor=none;top=0;left=0;bottom=0;right=0;pointerEvents=1;" vertex="1" parent="lGr5Bgv616YndTuxlMh_-191">
          <mxGeometry x="142" width="19" height="21" as="geometry">
            <mxRectangle width="19" height="21" as="alternateBounds" />
          </mxGeometry>
        </mxCell>
        <mxCell id="lGr5Bgv616YndTuxlMh_-200" value="" style="shape=partialRectangle;html=1;whiteSpace=wrap;connectable=0;strokeColor=inherit;overflow=hidden;fillColor=none;top=0;left=0;bottom=0;right=0;pointerEvents=1;" vertex="1" parent="lGr5Bgv616YndTuxlMh_-191">
          <mxGeometry x="161" width="21" height="21" as="geometry">
            <mxRectangle width="21" height="21" as="alternateBounds" />
          </mxGeometry>
        </mxCell>
        <mxCell id="lGr5Bgv616YndTuxlMh_-201" value="" style="shape=partialRectangle;html=1;whiteSpace=wrap;connectable=0;strokeColor=inherit;overflow=hidden;fillColor=none;top=0;left=0;bottom=0;right=0;pointerEvents=1;" vertex="1" parent="lGr5Bgv616YndTuxlMh_-191">
          <mxGeometry x="182" width="20" height="21" as="geometry">
            <mxRectangle width="20" height="21" as="alternateBounds" />
          </mxGeometry>
        </mxCell>
        <mxCell id="lGr5Bgv616YndTuxlMh_-202" value="" style="shape=partialRectangle;html=1;whiteSpace=wrap;connectable=0;strokeColor=inherit;overflow=hidden;fillColor=none;top=0;left=0;bottom=0;right=0;pointerEvents=1;" vertex="1" parent="lGr5Bgv616YndTuxlMh_-191">
          <mxGeometry x="202" width="20" height="21" as="geometry">
            <mxRectangle width="20" height="21" as="alternateBounds" />
          </mxGeometry>
        </mxCell>
        <mxCell id="lGr5Bgv616YndTuxlMh_-203" value="" style="shape=partialRectangle;html=1;whiteSpace=wrap;connectable=0;strokeColor=inherit;overflow=hidden;fillColor=none;top=0;left=0;bottom=0;right=0;pointerEvents=1;" vertex="1" parent="lGr5Bgv616YndTuxlMh_-191">
          <mxGeometry x="222" width="21" height="21" as="geometry">
            <mxRectangle width="21" height="21" as="alternateBounds" />
          </mxGeometry>
        </mxCell>
        <mxCell id="lGr5Bgv616YndTuxlMh_-204" value="" style="shape=partialRectangle;html=1;whiteSpace=wrap;connectable=0;strokeColor=inherit;overflow=hidden;fillColor=none;top=0;left=0;bottom=0;right=0;pointerEvents=1;" vertex="1" parent="lGr5Bgv616YndTuxlMh_-191">
          <mxGeometry x="243" width="19" height="21" as="geometry">
            <mxRectangle width="19" height="21" as="alternateBounds" />
          </mxGeometry>
        </mxCell>
        <mxCell id="lGr5Bgv616YndTuxlMh_-205" value="" style="shape=partialRectangle;html=1;whiteSpace=wrap;connectable=0;strokeColor=inherit;overflow=hidden;fillColor=none;top=0;left=0;bottom=0;right=0;pointerEvents=1;" vertex="1" parent="lGr5Bgv616YndTuxlMh_-191">
          <mxGeometry x="262" width="21" height="21" as="geometry">
            <mxRectangle width="21" height="21" as="alternateBounds" />
          </mxGeometry>
        </mxCell>
        <mxCell id="lGr5Bgv616YndTuxlMh_-206" value="" style="shape=partialRectangle;html=1;whiteSpace=wrap;connectable=0;strokeColor=inherit;overflow=hidden;fillColor=none;top=0;left=0;bottom=0;right=0;pointerEvents=1;" vertex="1" parent="lGr5Bgv616YndTuxlMh_-191">
          <mxGeometry x="283" width="20" height="21" as="geometry">
            <mxRectangle width="20" height="21" as="alternateBounds" />
          </mxGeometry>
        </mxCell>
        <mxCell id="lGr5Bgv616YndTuxlMh_-207" value="" style="shape=partialRectangle;html=1;whiteSpace=wrap;connectable=0;strokeColor=inherit;overflow=hidden;fillColor=none;top=0;left=0;bottom=0;right=0;pointerEvents=1;" vertex="1" parent="lGr5Bgv616YndTuxlMh_-191">
          <mxGeometry x="303" width="20" height="21" as="geometry">
            <mxRectangle width="20" height="21" as="alternateBounds" />
          </mxGeometry>
        </mxCell>
        <mxCell id="lGr5Bgv616YndTuxlMh_-208" value="" style="shape=partialRectangle;html=1;whiteSpace=wrap;connectable=0;strokeColor=inherit;overflow=hidden;fillColor=none;top=0;left=0;bottom=0;right=0;pointerEvents=1;" vertex="1" parent="lGr5Bgv616YndTuxlMh_-191">
          <mxGeometry x="323" width="21" height="21" as="geometry">
            <mxRectangle width="21" height="21" as="alternateBounds" />
          </mxGeometry>
        </mxCell>
        <mxCell id="lGr5Bgv616YndTuxlMh_-209" value="" style="shape=partialRectangle;html=1;whiteSpace=wrap;connectable=0;strokeColor=inherit;overflow=hidden;fillColor=none;top=0;left=0;bottom=0;right=0;pointerEvents=1;" vertex="1" parent="lGr5Bgv616YndTuxlMh_-191">
          <mxGeometry x="344" width="20" height="21" as="geometry">
            <mxRectangle width="20" height="21" as="alternateBounds" />
          </mxGeometry>
        </mxCell>
        <mxCell id="lGr5Bgv616YndTuxlMh_-210" value="" style="shape=partialRectangle;html=1;whiteSpace=wrap;connectable=0;strokeColor=inherit;overflow=hidden;fillColor=none;top=0;left=0;bottom=0;right=0;pointerEvents=1;" vertex="1" parent="lGr5Bgv616YndTuxlMh_-191">
          <mxGeometry x="364" width="20" height="21" as="geometry">
            <mxRectangle width="20" height="21" as="alternateBounds" />
          </mxGeometry>
        </mxCell>
        <mxCell id="lGr5Bgv616YndTuxlMh_-211" value="" style="shape=partialRectangle;html=1;whiteSpace=wrap;connectable=0;strokeColor=inherit;overflow=hidden;fillColor=none;top=0;left=0;bottom=0;right=0;pointerEvents=1;" vertex="1" parent="lGr5Bgv616YndTuxlMh_-191">
          <mxGeometry x="384" width="20" height="21" as="geometry">
            <mxRectangle width="20" height="21" as="alternateBounds" />
          </mxGeometry>
        </mxCell>
        <mxCell id="lGr5Bgv616YndTuxlMh_-212" value="" style="shape=tableRow;horizontal=0;startSize=0;swimlaneHead=0;swimlaneBody=0;strokeColor=inherit;top=0;left=0;bottom=0;right=0;collapsible=0;dropTarget=0;fillColor=none;points=[[0,0.5],[1,0.5]];portConstraint=eastwest;" vertex="1" parent="lGr5Bgv616YndTuxlMh_-106">
          <mxGeometry y="102" width="404" height="20" as="geometry" />
        </mxCell>
        <mxCell id="lGr5Bgv616YndTuxlMh_-213" value="" style="shape=partialRectangle;html=1;whiteSpace=wrap;connectable=0;strokeColor=inherit;overflow=hidden;fillColor=none;top=0;left=0;bottom=0;right=0;pointerEvents=1;" vertex="1" parent="lGr5Bgv616YndTuxlMh_-212">
          <mxGeometry width="20" height="20" as="geometry">
            <mxRectangle width="20" height="20" as="alternateBounds" />
          </mxGeometry>
        </mxCell>
        <mxCell id="lGr5Bgv616YndTuxlMh_-214" value="" style="shape=partialRectangle;html=1;whiteSpace=wrap;connectable=0;strokeColor=inherit;overflow=hidden;fillColor=none;top=0;left=0;bottom=0;right=0;pointerEvents=1;" vertex="1" parent="lGr5Bgv616YndTuxlMh_-212">
          <mxGeometry x="20" width="20" height="20" as="geometry">
            <mxRectangle width="20" height="20" as="alternateBounds" />
          </mxGeometry>
        </mxCell>
        <mxCell id="lGr5Bgv616YndTuxlMh_-215" value="" style="shape=partialRectangle;html=1;whiteSpace=wrap;connectable=0;strokeColor=inherit;overflow=hidden;fillColor=none;top=0;left=0;bottom=0;right=0;pointerEvents=1;" vertex="1" parent="lGr5Bgv616YndTuxlMh_-212">
          <mxGeometry x="40" width="20" height="20" as="geometry">
            <mxRectangle width="20" height="20" as="alternateBounds" />
          </mxGeometry>
        </mxCell>
        <mxCell id="lGr5Bgv616YndTuxlMh_-216" value="" style="shape=partialRectangle;html=1;whiteSpace=wrap;connectable=0;strokeColor=inherit;overflow=hidden;fillColor=none;top=0;left=0;bottom=0;right=0;pointerEvents=1;" vertex="1" parent="lGr5Bgv616YndTuxlMh_-212">
          <mxGeometry x="60" width="21" height="20" as="geometry">
            <mxRectangle width="21" height="20" as="alternateBounds" />
          </mxGeometry>
        </mxCell>
        <mxCell id="lGr5Bgv616YndTuxlMh_-217" value="" style="shape=partialRectangle;html=1;whiteSpace=wrap;connectable=0;strokeColor=inherit;overflow=hidden;fillColor=none;top=0;left=0;bottom=0;right=0;pointerEvents=1;" vertex="1" parent="lGr5Bgv616YndTuxlMh_-212">
          <mxGeometry x="81" width="20" height="20" as="geometry">
            <mxRectangle width="20" height="20" as="alternateBounds" />
          </mxGeometry>
        </mxCell>
        <mxCell id="lGr5Bgv616YndTuxlMh_-218" value="" style="shape=partialRectangle;html=1;whiteSpace=wrap;connectable=0;strokeColor=inherit;overflow=hidden;fillColor=none;top=0;left=0;bottom=0;right=0;pointerEvents=1;" vertex="1" parent="lGr5Bgv616YndTuxlMh_-212">
          <mxGeometry x="101" width="20" height="20" as="geometry">
            <mxRectangle width="20" height="20" as="alternateBounds" />
          </mxGeometry>
        </mxCell>
        <mxCell id="lGr5Bgv616YndTuxlMh_-219" value="" style="shape=partialRectangle;html=1;whiteSpace=wrap;connectable=0;strokeColor=inherit;overflow=hidden;fillColor=none;top=0;left=0;bottom=0;right=0;pointerEvents=1;" vertex="1" parent="lGr5Bgv616YndTuxlMh_-212">
          <mxGeometry x="121" width="21" height="20" as="geometry">
            <mxRectangle width="21" height="20" as="alternateBounds" />
          </mxGeometry>
        </mxCell>
        <mxCell id="lGr5Bgv616YndTuxlMh_-220" value="" style="shape=partialRectangle;html=1;whiteSpace=wrap;connectable=0;strokeColor=inherit;overflow=hidden;fillColor=none;top=0;left=0;bottom=0;right=0;pointerEvents=1;" vertex="1" parent="lGr5Bgv616YndTuxlMh_-212">
          <mxGeometry x="142" width="19" height="20" as="geometry">
            <mxRectangle width="19" height="20" as="alternateBounds" />
          </mxGeometry>
        </mxCell>
        <mxCell id="lGr5Bgv616YndTuxlMh_-221" value="" style="shape=partialRectangle;html=1;whiteSpace=wrap;connectable=0;strokeColor=inherit;overflow=hidden;fillColor=none;top=0;left=0;bottom=0;right=0;pointerEvents=1;" vertex="1" parent="lGr5Bgv616YndTuxlMh_-212">
          <mxGeometry x="161" width="21" height="20" as="geometry">
            <mxRectangle width="21" height="20" as="alternateBounds" />
          </mxGeometry>
        </mxCell>
        <mxCell id="lGr5Bgv616YndTuxlMh_-222" value="" style="shape=partialRectangle;html=1;whiteSpace=wrap;connectable=0;strokeColor=inherit;overflow=hidden;fillColor=none;top=0;left=0;bottom=0;right=0;pointerEvents=1;" vertex="1" parent="lGr5Bgv616YndTuxlMh_-212">
          <mxGeometry x="182" width="20" height="20" as="geometry">
            <mxRectangle width="20" height="20" as="alternateBounds" />
          </mxGeometry>
        </mxCell>
        <mxCell id="lGr5Bgv616YndTuxlMh_-223" value="" style="shape=partialRectangle;html=1;whiteSpace=wrap;connectable=0;strokeColor=inherit;overflow=hidden;fillColor=none;top=0;left=0;bottom=0;right=0;pointerEvents=1;" vertex="1" parent="lGr5Bgv616YndTuxlMh_-212">
          <mxGeometry x="202" width="20" height="20" as="geometry">
            <mxRectangle width="20" height="20" as="alternateBounds" />
          </mxGeometry>
        </mxCell>
        <mxCell id="lGr5Bgv616YndTuxlMh_-224" value="" style="shape=partialRectangle;html=1;whiteSpace=wrap;connectable=0;strokeColor=inherit;overflow=hidden;fillColor=none;top=0;left=0;bottom=0;right=0;pointerEvents=1;" vertex="1" parent="lGr5Bgv616YndTuxlMh_-212">
          <mxGeometry x="222" width="21" height="20" as="geometry">
            <mxRectangle width="21" height="20" as="alternateBounds" />
          </mxGeometry>
        </mxCell>
        <mxCell id="lGr5Bgv616YndTuxlMh_-225" value="" style="shape=partialRectangle;html=1;whiteSpace=wrap;connectable=0;strokeColor=inherit;overflow=hidden;fillColor=none;top=0;left=0;bottom=0;right=0;pointerEvents=1;" vertex="1" parent="lGr5Bgv616YndTuxlMh_-212">
          <mxGeometry x="243" width="19" height="20" as="geometry">
            <mxRectangle width="19" height="20" as="alternateBounds" />
          </mxGeometry>
        </mxCell>
        <mxCell id="lGr5Bgv616YndTuxlMh_-226" value="" style="shape=partialRectangle;html=1;whiteSpace=wrap;connectable=0;strokeColor=inherit;overflow=hidden;fillColor=none;top=0;left=0;bottom=0;right=0;pointerEvents=1;" vertex="1" parent="lGr5Bgv616YndTuxlMh_-212">
          <mxGeometry x="262" width="21" height="20" as="geometry">
            <mxRectangle width="21" height="20" as="alternateBounds" />
          </mxGeometry>
        </mxCell>
        <mxCell id="lGr5Bgv616YndTuxlMh_-227" value="" style="shape=partialRectangle;html=1;whiteSpace=wrap;connectable=0;strokeColor=inherit;overflow=hidden;fillColor=none;top=0;left=0;bottom=0;right=0;pointerEvents=1;" vertex="1" parent="lGr5Bgv616YndTuxlMh_-212">
          <mxGeometry x="283" width="20" height="20" as="geometry">
            <mxRectangle width="20" height="20" as="alternateBounds" />
          </mxGeometry>
        </mxCell>
        <mxCell id="lGr5Bgv616YndTuxlMh_-228" value="" style="shape=partialRectangle;html=1;whiteSpace=wrap;connectable=0;strokeColor=inherit;overflow=hidden;fillColor=none;top=0;left=0;bottom=0;right=0;pointerEvents=1;" vertex="1" parent="lGr5Bgv616YndTuxlMh_-212">
          <mxGeometry x="303" width="20" height="20" as="geometry">
            <mxRectangle width="20" height="20" as="alternateBounds" />
          </mxGeometry>
        </mxCell>
        <mxCell id="lGr5Bgv616YndTuxlMh_-229" value="" style="shape=partialRectangle;html=1;whiteSpace=wrap;connectable=0;strokeColor=inherit;overflow=hidden;fillColor=none;top=0;left=0;bottom=0;right=0;pointerEvents=1;" vertex="1" parent="lGr5Bgv616YndTuxlMh_-212">
          <mxGeometry x="323" width="21" height="20" as="geometry">
            <mxRectangle width="21" height="20" as="alternateBounds" />
          </mxGeometry>
        </mxCell>
        <mxCell id="lGr5Bgv616YndTuxlMh_-230" value="" style="shape=partialRectangle;html=1;whiteSpace=wrap;connectable=0;strokeColor=inherit;overflow=hidden;fillColor=none;top=0;left=0;bottom=0;right=0;pointerEvents=1;" vertex="1" parent="lGr5Bgv616YndTuxlMh_-212">
          <mxGeometry x="344" width="20" height="20" as="geometry">
            <mxRectangle width="20" height="20" as="alternateBounds" />
          </mxGeometry>
        </mxCell>
        <mxCell id="lGr5Bgv616YndTuxlMh_-231" value="" style="shape=partialRectangle;html=1;whiteSpace=wrap;connectable=0;strokeColor=inherit;overflow=hidden;fillColor=none;top=0;left=0;bottom=0;right=0;pointerEvents=1;" vertex="1" parent="lGr5Bgv616YndTuxlMh_-212">
          <mxGeometry x="364" width="20" height="20" as="geometry">
            <mxRectangle width="20" height="20" as="alternateBounds" />
          </mxGeometry>
        </mxCell>
        <mxCell id="lGr5Bgv616YndTuxlMh_-232" value="" style="shape=partialRectangle;html=1;whiteSpace=wrap;connectable=0;strokeColor=inherit;overflow=hidden;fillColor=none;top=0;left=0;bottom=0;right=0;pointerEvents=1;" vertex="1" parent="lGr5Bgv616YndTuxlMh_-212">
          <mxGeometry x="384" width="20" height="20" as="geometry">
            <mxRectangle width="20" height="20" as="alternateBounds" />
          </mxGeometry>
        </mxCell>
        <mxCell id="lGr5Bgv616YndTuxlMh_-252" value="5%" style="rounded=0;whiteSpace=wrap;html=1;fillColor=none;fontColor=#ffffff;strokeColor=#F0F0F0;container=0;" vertex="1" parent="JjWKAUgTpPJknrSIF9CD-1">
          <mxGeometry x="200.5" y="421" width="80" height="30" as="geometry" />
        </mxCell>
        <mxCell id="lGr5Bgv616YndTuxlMh_-254" value="5%" style="rounded=0;whiteSpace=wrap;html=1;fillColor=none;strokeColor=#F0F0F0;container=0;" vertex="1" parent="JjWKAUgTpPJknrSIF9CD-1">
          <mxGeometry x="120" y="420" width="81" height="30" as="geometry" />
        </mxCell>
        <mxCell id="lGr5Bgv616YndTuxlMh_-258" style="edgeStyle=orthogonalEdgeStyle;rounded=0;orthogonalLoop=1;jettySize=auto;html=1;exitX=0;exitY=0.5;exitDx=0;exitDy=0;entryX=-0.057;entryY=0.459;entryDx=0;entryDy=0;entryPerimeter=0;" edge="1" parent="JjWKAUgTpPJknrSIF9CD-1" source="lGr5Bgv616YndTuxlMh_-254" target="lGr5Bgv616YndTuxlMh_-254">
          <mxGeometry relative="1" as="geometry" />
        </mxCell>
      </root>
    </mxGraphModel>
  </diagram>
  <diagram id="-5KK3SncL-gxV549NWK1" name="Line Charts">
    <mxGraphModel dx="2000" dy="1363" grid="1" gridSize="10" guides="1" tooltips="1" connect="1" arrows="1" fold="1" page="1" pageScale="1" pageWidth="850" pageHeight="1100" math="0" shadow="0">
      <root>
        <mxCell id="0" />
        <mxCell id="1" parent="0" />
      </root>
    </mxGraphModel>
  </diagram>
  <diagram id="zKA6ihcK-_VxDW0XgUkM" name="Page-5">
    <mxGraphModel dx="2000" dy="1363" grid="1" gridSize="10" guides="1" tooltips="1" connect="1" arrows="1" fold="1" page="1" pageScale="1" pageWidth="850" pageHeight="1100" math="0" shadow="0">
      <root>
        <mxCell id="0" />
        <mxCell id="1" parent="0" />
      </root>
    </mxGraphModel>
  </diagram>
</mxfile>
